SplineFontDB: 3.2
FontName: linjaEnkipona
FullName: linja Enki pona
FamilyName: linja Enki pona
Weight: Book
Copyright: Copyright (c) 2024, kije Enki
Version: 1.0.1
ItalicAngle: 0
UnderlinePosition: -100
UnderlineWidth: 50
Ascent: 800
Descent: 200
InvalidEm: 0
LayerCount: 2
Layer: 0 1 "Back" 1
Layer: 1 1 "Fore" 0
XUID: [1021 547 -761801329 20879]
StyleMap: 0x0040
FSType: 0
OS2Version: 4
OS2_WeightWidthSlopeOnly: 0
OS2_UseTypoMetrics: 1
CreationTime: 1697305622
ModificationTime: 1707042741
PfmFamily: 17
TTFWeight: 400
TTFWidth: 5
LineGap: 90
VLineGap: 0
Panose: 2 0 5 3 0 0 0 0 0 0
OS2TypoAscent: 800
OS2TypoAOffset: 0
OS2TypoDescent: -200
OS2TypoDOffset: 0
OS2TypoLinegap: 90
OS2WinAscent: 1079
OS2WinAOffset: 0
OS2WinDescent: 342
OS2WinDOffset: 0
HheadAscent: 1079
HheadAOffset: 0
HheadDescent: -342
HheadDOffset: 0
OS2SubXSize: 650
OS2SubYSize: 700
OS2SubXOff: 0
OS2SubYOff: 140
OS2SupXSize: 650
OS2SupYSize: 700
OS2SupXOff: 0
OS2SupYOff: 480
OS2StrikeYSize: 49
OS2StrikeYPos: 258
OS2CapHeight: 641
OS2XHeight: 322
OS2Vendor: 'PfEd'
OS2CodePages: 00000001.00000000
OS2UnicodeRanges: 00000003.02000000.04000000.00000000
MarkAttachClasses: 1
DEI: 91125
ShortTable: cvt  2
  33
  633
EndShort
ShortTable: maxp 16
  1
  0
  345
  222
  10
  0
  0
  2
  0
  1
  1
  0
  64
  46
  0
  0
EndShort

StartChar: .notdef
Encoding: 1114112 -1 0
Width: 200
GlyphClass: 1
Flags: W
LayerCount: 2
Fore
SplineSet
69.234375 47.201171875 m 0,0,1
 69.234375 58.5458984375 69.234375 58.5458984375 83.1142578125 58.5458984375 c 0,2,3
 91.4091796875 58.5458984375 91.4091796875 58.5458984375 98.5869140625 54.337890625 c 128,-1,4
 105.874023438 50.06640625 105.874023438 50.06640625 105.874023438 42.494140625 c 128,-1,5
 105.874023438 34.921875 105.874023438 34.921875 101.279296875 30.2861328125 c 128,-1,6
 96.6669921875 25.6337890625 96.6669921875 25.6337890625 90.9892578125 25.6337890625 c 128,-1,7
 85.3125 25.6337890625 85.3125 25.6337890625 77.2734375 32.6357421875 c 128,-1,8
 69.234375 39.638671875 69.234375 39.638671875 69.234375 47.201171875 c 0,0,1
82.00390625 98.248046875 m 0,9,10
 71.908203125 98.248046875 71.908203125 98.248046875 70.34375 114.639648438 c 1,11,-1
 70.34375 118.758789062 l 2,12,13
 70.34375 135.11328125 70.34375 135.11328125 87.1416015625 168.350585938 c 128,-1,14
 103.939453125 201.587890625 103.939453125 201.587890625 113.391601562 215.740234375 c 128,-1,15
 122.844726562 229.892578125 122.844726562 229.892578125 123.716796875 231.563476562 c 1,16,17
 119.646484375 232.198242188 119.646484375 232.198242188 110.270507812 232.198242188 c 128,-1,18
 100.895507812 232.198242188 100.895507812 232.198242188 87.634765625 225.881835938 c 128,-1,19
 74.375 219.565429688 74.375 219.565429688 68.134765625 209.314453125 c 128,-1,20
 61.89453125 199.063476562 61.89453125 199.063476562 53.1416015625 199.063476562 c 128,-1,21
 44.388671875 199.063476562 44.388671875 199.063476562 37.79296875 204.681640625 c 128,-1,22
 31.1982421875 210.30078125 31.1982421875 210.30078125 38.9375 219.83203125 c 0,23,24
 71.6953125 260.17578125 71.6953125 260.17578125 120.484375 260.17578125 c 2,25,-1
 121.223632812 260.17578125 l 2,26,27
 134.240234375 260.17578125 134.240234375 260.17578125 143.309570312 253.971679688 c 128,-1,28
 152.37890625 247.768554688 152.37890625 247.768554688 152.864257812 237.55078125 c 2,29,-1
 152.864257812 233.321289062 l 2,30,31
 152.864257812 216.024414062 152.864257812 216.024414062 130.106445312 180.125 c 128,-1,32
 107.34765625 144.2265625 107.34765625 144.2265625 99.8095703125 125.075195312 c 128,-1,33
 92.2705078125 105.923828125 92.2705078125 105.923828125 90.0185546875 102.059570312 c 128,-1,34
 87.765625 98.1953125 87.765625 98.1953125 85.103515625 98.1953125 c 128,-1,35
 82.4404296875 98.1953125 82.4404296875 98.1953125 82.00390625 98.248046875 c 0,9,10
104.62890625 299.520507812 m 128,-1,37
 95.2236328125 288.833007812 95.2236328125 288.833007812 91.7734375 280.854492188 c 128,-1,38
 88.3232421875 272.875 88.3232421875 272.875 77.7734375 272.875 c 128,-1,39
 67.2236328125 272.875 67.2236328125 272.875 67.2236328125 283.461914062 c 128,-1,40
 67.2236328125 294.048828125 67.2236328125 294.048828125 80.6572265625 308.071289062 c 128,-1,41
 94.08984375 322.094726562 94.08984375 322.094726562 98.51953125 327.176757812 c 128,-1,42
 102.94921875 332.259765625 102.94921875 332.259765625 108.263671875 335.240234375 c 128,-1,43
 113.578125 338.220703125 113.578125 338.220703125 115.01953125 343.825195312 c 1,44,45
 97.2919921875 356.346679688 97.2919921875 356.346679688 80.037109375 364.934570312 c 128,-1,46
 62.7822265625 373.521484375 62.7822265625 373.521484375 57.5654296875 377.296875 c 128,-1,47
 52.3486328125 381.072265625 52.3486328125 381.072265625 52.3486328125 387.1875 c 0,48,49
 52.3486328125 398.1875 52.3486328125 398.1875 62.40625 398.1875 c 0,50,51
 68.908203125 398.1875 68.908203125 398.1875 78.2451171875 392.302734375 c 128,-1,52
 87.58203125 386.41796875 87.58203125 386.41796875 116.020507812 370.229492188 c 128,-1,53
 144.458984375 354.040039062 144.458984375 354.040039062 144.458984375 348.274414062 c 128,-1,54
 144.458984375 342.508789062 144.458984375 342.508789062 135.560546875 331.291992188 c 128,-1,55
 126.662109375 320.075195312 126.662109375 320.075195312 120.348632812 315.141601562 c 128,-1,36
 114.034179688 310.208984375 114.034179688 310.208984375 104.62890625 299.520507812 c 128,-1,37
76.8291015625 460.416015625 m 2,56,57
 76.841796875 460.700195312 76.841796875 460.700195312 76.841796875 460.837890625 c 130,-1,58
 76.841796875 460.837890625 76.841796875 460.837890625 76.841796875 474.982421875 c 128,-1,59
 76.841796875 488.989257812 76.841796875 488.989257812 76.63671875 490.981445312 c 2,60,-1
 76.63671875 492.012695312 l 2,61,62
 77.0576171875 496.116210938 77.0576171875 496.116210938 76.8330078125 500.075195312 c 2,63,-1
 76.8330078125 500.631835938 l 2,64,65
 77.0400390625 504.51171875 77.0400390625 504.51171875 77.0390625 507.625976562 c 2,66,-1
 77.0390625 510.4140625 l 2,67,68
 77.060546875 520.508789062 77.060546875 520.508789062 76.8173828125 525.159179688 c 0,69,70
 74.07421875 529.490234375 74.07421875 529.490234375 74.03515625 542.905273438 c 0,71,72
 74.1025390625 553.955078125 74.1025390625 553.955078125 86.7138671875 554.069335938 c 2,73,-1
 86.841796875 554.069335938 l 2,74,75
 102.715820312 553.813476562 102.715820312 553.813476562 105.764648438 535.846679688 c 0,76,77
 107.859375 523.504882812 107.859375 523.504882812 107.859375 497.479492188 c 128,-1,78
 107.859375 471.454101562 107.859375 471.454101562 109.11328125 452.374023438 c 1,79,80
 135.948242188 474.5078125 135.948242188 474.5078125 148.928710938 489.518554688 c 0,81,82
 150.51953125 496.485351562 150.51953125 496.485351562 164.592773438 497.237304688 c 2,83,-1
 176.609375 497.87890625 l 1,84,-1
 184.443359375 498.296875 l 1,85,86
 174.247070312 472.91796875 174.247070312 472.91796875 157.796875 460.065429688 c 128,-1,87
 141.346679688 447.212890625 141.346679688 447.212890625 129.91015625 435.770507812 c 128,-1,88
 118.473632812 424.327148438 118.473632812 424.327148438 109.359375 418.36328125 c 128,-1,89
 100.245117188 412.399414062 100.245117188 412.399414062 99.0205078125 412.399414062 c 128,-1,90
 97.7958984375 412.399414062 97.7958984375 412.399414062 97.6708984375 412.439453125 c 130,-1,91
 97.6708984375 412.439453125 97.6708984375 412.439453125 92.609375 412.42578125 c 128,-1,92
 87.5478515625 412.412109375 87.5478515625 412.412109375 81.3037109375 419.611328125 c 128,-1,93
 75.05859375 426.810546875 75.05859375 426.810546875 69.6201171875 429.3203125 c 128,-1,94
 64.181640625 431.830078125 64.181640625 431.830078125 40.78515625 454.704101562 c 128,-1,95
 17.388671875 477.578125 17.388671875 477.578125 17.388671875 486.903320312 c 0,96,97
 17.3759765625 487.127929688 17.3759765625 487.127929688 17.3759765625 487.342773438 c 0,98,99
 17.3759765625 494.805664062 17.3759765625 494.805664062 29.46875 495.317382812 c 2,100,-1
 29.6630859375 495.326171875 l 2,101,102
 42.08203125 494.899414062 42.08203125 494.899414062 46.95703125 489.596679688 c 128,-1,103
 51.83203125 484.293945312 51.83203125 484.293945312 53.8349609375 481.795898438 c 128,-1,104
 55.8388671875 479.297851562 55.8388671875 479.297851562 58.796875 476.344726562 c 128,-1,105
 61.75390625 473.390625 61.75390625 473.390625 64.2138671875 470.4453125 c 128,-1,106
 66.6474609375 467.51953125 66.6474609375 467.51953125 70.044921875 464.607421875 c 128,-1,107
 73.4423828125 461.696289062 73.4423828125 461.696289062 74.9296875 460.137695312 c 128,-1,108
 76.4169921875 458.580078125 76.4169921875 458.580078125 76.9013671875 458.151367188 c 1,109,110
 76.8681640625 459.03515625 76.8681640625 459.03515625 76.8291015625 459.998046875 c 2,111,-1
 76.8291015625 460.416015625 l 2,56,57
165.799804688 660.203125 m 1,112,113
 169.979492188 654.806640625 169.979492188 654.806640625 169.979492188 639.260742188 c 128,-1,114
 169.979492188 623.713867188 169.979492188 623.713867188 166.491210938 617.96875 c 1,115,-1
 166.491210938 616.748046875 l 1,116,-1
 165.751953125 616.212890625 l 1,117,118
 165.392578125 614.546875 165.392578125 614.546875 164.635742188 609.458984375 c 0,119,120
 160.08203125 578.8515625 160.08203125 578.8515625 112.502929688 561.235351562 c 0,121,122
 95.8515625 556.002929688 95.8515625 556.002929688 85.40234375 556.01953125 c 128,-1,123
 74.953125 556.03515625 74.953125 556.03515625 57.0078125 562.548828125 c 128,-1,124
 39.0615234375 569.0625 39.0615234375 569.0625 33.337890625 573.717773438 c 128,-1,125
 27.615234375 578.373046875 27.615234375 578.373046875 22.197265625 587.880859375 c 2,126,-1
 16.244140625 598.329101562 l 1,127,-1
 15.556640625 599.536132812 l 1,128,-1
 15.59375 600.934570312 l 1,129,-1
 16.0908203125 619.50390625 l 2,130,131
 17.119140625 639.018554688 17.119140625 639.018554688 21.033203125 649.779296875 c 128,-1,132
 24.947265625 660.5390625 24.947265625 660.5390625 38.455078125 681.416992188 c 128,-1,133
 51.9638671875 702.293945312 51.9638671875 702.293945312 57.3427734375 704.5703125 c 128,-1,134
 62.7216796875 706.84765625 62.7216796875 706.84765625 72.087890625 708.408203125 c 128,-1,135
 81.453125 709.967773438 81.453125 709.967773438 86.501953125 710.30859375 c 128,-1,136
 91.5517578125 710.649414062 91.5517578125 710.649414062 94.04296875 710.900390625 c 1,137,-1
 94.7587890625 711.544921875 l 1,138,139
 97.9599609375 710.921875 97.9599609375 710.921875 106.428710938 710.921875 c 128,-1,140
 114.897460938 710.921875 114.897460938 710.921875 119.723632812 708.383789062 c 128,-1,141
 124.548828125 705.845703125 124.548828125 705.845703125 127.62109375 705.4296875 c 0,142,143
 151.341796875 700.420898438 151.341796875 700.420898438 161.181640625 682.623046875 c 0,144,145
 162.640625 679.916992188 162.640625 679.916992188 167.327148438 675.640625 c 128,-1,146
 172.012695312 671.364257812 172.012695312 671.364257812 165.799804688 660.203125 c 1,112,113
135.981445312 606.953125 m 0,147,148
 149.533203125 620.359375 149.533203125 620.359375 145.728515625 641.950195312 c 1,149,-1
 145.728515625 643.017578125 l 1,150,151
 145.728515625 643.017578125 145.728515625 643.017578125 146.426757812 657.208007812 c 1,152,153
 145.072265625 660 145.072265625 660 144.072265625 666.5 c 128,-1,154
 143.072265625 673 143.072265625 673 141.944335938 675.549804688 c 0,155,156
 140.76953125 677.504882812 140.76953125 677.504882812 133.3203125 680.241210938 c 2,157,-1
 120.740234375 684.862304688 l 2,158,159
 112.072265625 688 112.072265625 688 95.228515625 689.123046875 c 1,160,161
 85.01953125 682.967773438 85.01953125 682.967773438 81.7587890625 682.875976562 c 2,162,-1
 81.5615234375 682.870117188 l 2,163,164
 75.7734375 683.171875 75.7734375 683.171875 70.9228515625 685.5859375 c 128,-1,165
 66.072265625 688 66.072265625 688 64.572265625 684 c 128,-1,166
 63.072265625 680 63.072265625 680 53.0634765625 661.482421875 c 128,-1,167
 43.0537109375 642.96484375 43.0537109375 642.96484375 43.201171875 635.02734375 c 2,168,-1
 43.2060546875 634.751953125 l 2,169,170
 43.072265625 634 43.072265625 634 41.7158203125 625.952148438 c 1,171,-1
 41.7158203125 622.936523438 l 2,172,173
 41.09375 622.182617188 41.09375 622.182617188 41.09375 622.026367188 c 130,-1,174
 41.09375 622.026367188 41.09375 622.026367188 40.5830078125 611.512695312 c 0,175,176
 39.7216796875 593.775390625 39.7216796875 593.775390625 62.376953125 586.240234375 c 0,177,178
 74.072265625 582 74.072265625 582 76.857421875 580.618164062 c 128,-1,179
 79.642578125 579.236328125 79.642578125 579.236328125 82.64453125 579.236328125 c 2,180,-1
 83.1455078125 579.236328125 l 2,181,182
 115.448242188 578.78515625 115.448242188 578.78515625 123.759765625 590.892578125 c 128,-1,183
 132.072265625 603 132.072265625 603 135.981445312 606.953125 c 0,147,148
EndSplineSet
EndChar

StartChar: exclam
Encoding: 33 33 4
Width: 153
GlyphClass: 1
Flags: W
LayerCount: 2
Fore
SplineSet
38 19 m 0,0,1
 38 21 38 21 38.5 26 c 128,-1,2
 39 31 39 31 42 41 c 128,-1,3
 45 51 45 51 49.5 59 c 128,-1,4
 54 67 54 67 63.5 73.5 c 128,-1,5
 73 80 73 80 86 80 c 0,6,7
 114 80 114 80 114 61 c 0,8,9
 114 48 114 48 97 18 c 128,-1,10
 80 -12 80 -12 65 -12 c 0,11,12
 56 -12 56 -12 47 -4 c 128,-1,13
 38 4 38 4 38 19 c 0,0,1
102 578 m 0,14,15
 102 551 102 551 100 498.5 c 128,-1,16
 98 446 98 446 98 443 c 0,17,18
 98 432 98 432 99 411 c 128,-1,19
 100 390 100 390 100 372 c 0,20,21
 100 368 100 368 99.5 359 c 128,-1,22
 99 350 99 350 99 345 c 0,23,24
 97 225 97 225 95.5 205.5 c 128,-1,25
 94 186 94 186 85 186 c 2,26,-1
 79 186 l 2,27,28
 62 186 62 186 56 217 c 128,-1,29
 50 248 50 248 50 333 c 2,30,-1
 50 364 l 2,31,32
 51 561 51 561 76 617 c 0,33,34
 87 642 87 642 93 642 c 0,35,36
 102 642 102 642 102 578 c 0,14,15
EndSplineSet
EndChar

StartChar: quotedbl
Encoding: 34 34 5
Width: 249
GlyphClass: 1
Flags: W
LayerCount: 2
Fore
SplineSet
41 750 m 0,0,1
 41 776 41 776 43.5 783 c 128,-1,2
 46 790 46 790 60 790 c 0,3,4
 66 790 66 790 68.5 788.5 c 128,-1,5
 71 787 71 787 74 778.5 c 128,-1,6
 77 770 77 770 79 752 c 128,-1,7
 81 734 81 734 83 699 c 0,8,9
 84 680 84 680 87 630 c 128,-1,10
 90 580 90 580 91 569 c 0,11,12
 93 555 93 555 93 552 c 0,13,14
 93 527 93 527 82 527 c 0,15,16
 74 527 74 527 64 539 c 0,17,18
 41 562 41 562 41 750 c 0,0,1
167 790 m 0,19,20
 180 790 180 790 186.5 782.5 c 128,-1,21
 193 775 193 775 199 725 c 128,-1,22
 205 675 205 675 205 573 c 0,23,24
 205 521 205 521 194 521 c 0,25,26
 178 521 178 521 172 551 c 128,-1,27
 166 581 166 581 161 675 c 0,28,29
 159 710 159 710 159 752 c 0,30,31
 159 790 159 790 167 790 c 0,19,20
EndSplineSet
EndChar

StartChar: numbersign
Encoding: 35 35 6
Width: 721
GlyphClass: 1
Flags: W
LayerCount: 2
Fore
SplineSet
379 622 m 0,0,1
 379 606 379 606 355 547 c 128,-1,2
 331 488 331 488 331 478 c 128,-1,3
 331 468 331 468 338.5 465.5 c 128,-1,4
 346 463 346 463 380 463 c 0,5,6
 419 463 419 463 432 471 c 128,-1,7
 445 479 445 479 445 503 c 0,8,9
 445 513 445 513 459.5 563 c 128,-1,10
 474 613 474 613 482 634 c 0,11,12
 485 641 485 641 496 641 c 0,13,14
 517 641 517 641 517 623 c 0,15,16
 517 614 517 614 508.5 582 c 128,-1,17
 500 550 500 550 496 517 c 2,18,-1
 491 469 l 1,19,-1
 569 474 l 2,20,21
 619 476 619 476 630 476 c 0,22,23
 687 476 687 476 687 458 c 0,24,25
 687 446 687 446 674 443 c 128,-1,26
 661 440 661 440 599 436 c 0,27,28
 540 433 540 433 515 429 c 128,-1,29
 490 425 490 425 478 417 c 128,-1,30
 466 409 466 409 460 391 c 0,31,32
 436 319 436 319 415 228 c 2,33,-1
 410 207 l 1,34,-1
 466 211 l 2,35,36
 574 220 574 220 595 220 c 0,37,38
 613 220 613 220 613 215 c 0,39,40
 613 214 613 214 611 208.5 c 128,-1,41
 609 203 609 203 609 199 c 0,42,43
 609 190 609 190 595 187.5 c 128,-1,44
 581 185 581 185 520 184 c 0,45,46
 495 184 495 184 495 182 c 256,47,48
 495 180 495 180 493 180 c 0,49,50
 489 179 489 179 474 178 c 2,51,-1
 393 174 l 1,52,-1
 383 135 l 2,53,54
 376 107 376 107 376 78 c 2,55,-1
 378 39 l 2,56,57
 378 10 378 10 335 23 c 0,58,59
 332 24 332 24 332 24 c 2,60,61
 320 28 320 28 320 42 c 0,62,63
 320 55 320 55 329 98.5 c 128,-1,64
 338 142 338 142 338 155 c 0,65,66
 338 159 338 159 337.5 160 c 128,-1,67
 337 161 337 161 332 162.5 c 128,-1,68
 327 164 327 164 317.5 164.5 c 128,-1,69
 308 165 308 165 289 165 c 0,70,71
 202 165 202 165 192 159 c 0,72,73
 185 154 185 154 177 118 c 128,-1,74
 169 82 169 82 168 56 c 0,75,76
 166 -2 166 -2 142 -2 c 0,77,78
 130 -2 130 -2 121 14 c 128,-1,79
 112 30 112 30 112 49 c 0,80,81
 112 65 112 65 120 82.5 c 128,-1,82
 128 100 128 100 130 123 c 2,83,-1
 133 154 l 1,84,-1
 89 162 l 2,85,86
 33 173 33 173 33 188 c 0,87,88
 33 192 33 192 34.5 193.5 c 128,-1,89
 36 195 36 195 45 196 c 128,-1,90
 54 197 54 197 75 197 c 2,91,-1
 98 197 l 1,92,-1
 160 195 l 1,93,-1
 176 232 l 2,94,95
 254 406 254 406 254 418 c 0,96,97
 254 425 254 425 222 425 c 0,98,99
 185 425 185 425 143 415.5 c 128,-1,100
 101 406 101 406 87 406 c 0,101,102
 64 406 64 406 64 418 c 0,103,104
 64 431 64 431 106 443.5 c 128,-1,105
 148 456 148 456 208 461 c 0,106,107
 266 465 266 465 277 474.5 c 128,-1,108
 288 484 288 484 306 548 c 0,109,110
 330 635 330 635 364 635 c 0,111,112
 379 635 379 635 379 622 c 0,0,1
419 409 m 0,113,114
 419 415 419 415 417 418 c 128,-1,115
 415 421 415 421 401.5 424 c 128,-1,116
 388 427 388 427 360 427 c 0,117,118
 344 427 344 427 335 426 c 128,-1,119
 326 425 326 425 314 417 c 128,-1,120
 302 409 302 409 297 393 c 0,121,122
 291 374 291 374 255.5 302 c 128,-1,123
 220 230 220 230 220 213 c 0,124,125
 220 197 220 197 247 197 c 0,126,127
 253 197 253 197 275 199 c 0,128,129
 324 204 324 204 344.5 211 c 128,-1,130
 365 218 365 218 369 233 c 0,131,132
 370 235 370 235 382 273.5 c 128,-1,133
 394 312 394 312 406.5 356 c 128,-1,134
 419 400 419 400 419 409 c 0,113,114
EndSplineSet
EndChar

StartChar: dollar
Encoding: 36 36 7
Width: 451
GlyphClass: 1
Flags: W
LayerCount: 2
Fore
SplineSet
64 123 m 0,0,1
 80 120 80 120 97.5 84 c 128,-1,2
 115 48 115 48 134 48 c 0,3,4
 145 48 145 48 161 56 c 0,5,6
 182 67 182 67 185.5 83 c 128,-1,7
 189 99 189 99 189 180 c 0,8,9
 189 188 189 188 189 192 c 2,10,-1
 189 313 l 1,11,-1
 145 342 l 2,12,13
 35 413 35 413 35 496 c 0,14,15
 35 528 35 528 41.5 540.5 c 128,-1,16
 48 553 48 553 75 574 c 0,17,18
 103 596 103 596 144.5 614 c 128,-1,19
 186 632 186 632 210 644 c 128,-1,20
 234 656 234 656 234 669 c 0,21,22
 234 684 234 684 273 827 c 0,23,24
 279 847 279 847 295 847 c 0,25,26
 309 847 309 847 321 833 c 128,-1,27
 333 819 333 819 333 799 c 0,28,29
 333 781 333 781 316.5 740.5 c 128,-1,30
 300 700 300 700 300 677 c 0,31,32
 300 656 300 656 306.5 646.5 c 128,-1,33
 313 637 313 637 336 627 c 0,34,35
 363 615 363 615 390 591.5 c 128,-1,36
 417 568 417 568 417 556 c 0,37,38
 417 549 417 549 405.5 540 c 128,-1,39
 394 531 394 531 379 531 c 0,40,41
 360 531 360 531 336 546 c 128,-1,42
 312 561 312 561 302 561 c 0,43,44
 286 561 286 561 279 533.5 c 128,-1,45
 272 506 272 506 269 438 c 2,46,-1
 265 339 l 1,47,-1
 304 309 l 2,48,49
 332 288 332 288 338 275.5 c 128,-1,50
 344 263 344 263 344 227 c 0,51,52
 344 193 344 193 337.5 176 c 128,-1,53
 331 159 331 159 306 131 c 0,54,55
 250 68 250 68 250 -27 c 0,56,57
 250 -33 250 -33 250.5 -42.5 c 128,-1,58
 251 -52 251 -52 251.5 -61.5 c 128,-1,59
 252 -71 252 -71 252 -79.5 c 128,-1,60
 252 -88 252 -88 252 -94 c 2,61,-1
 253 -99 l 2,62,63
 253 -118 253 -118 248.5 -126 c 128,-1,64
 244 -134 244 -134 232 -141 c 0,65,66
 216 -149 216 -149 208 -149 c 0,67,68
 186 -149 186 -149 185 -64 c 2,69,-1
 184 8 l 1,70,-1
 137 8 l 2,71,72
 88 8 88 8 67 26 c 128,-1,73
 46 44 46 44 46 85 c 0,74,75
 46 124 46 124 60 124 c 2,76,-1
 62 124 l 2,77,78
 63 123 63 123 64 123 c 0,0,1
187 383 m 0,79,80
 203 383 203 383 203 526 c 0,81,82
 203 584 203 584 185 584 c 0,83,84
 171 584 171 584 126 549 c 0,85,86
 85 517 85 517 85 493 c 0,87,88
 85 464 85 464 127.5 423.5 c 128,-1,89
 170 383 170 383 187 383 c 0,79,80
289 221 m 0,90,91
 289 235 289 235 283 252 c 128,-1,92
 277 269 277 269 270 269 c 0,93,94
 256 269 256 269 256 224 c 0,95,96
 256 181 256 181 268 181 c 2,97,-1
 270 181 l 1,98,99
 289 186 289 186 289 221 c 0,90,91
EndSplineSet
EndChar

StartChar: percent
Encoding: 37 37 8
Width: 817
GlyphClass: 1
Flags: W
LayerCount: 2
Fore
SplineSet
514 5 m 0,0,1
 488 5 488 5 460 24.5 c 128,-1,2
 432 44 432 44 432 89 c 0,3,4
 432 127 432 127 452 178 c 0,5,6
 474 237 474 237 491.5 259 c 128,-1,7
 509 281 509 281 548 300 c 0,8,9
 583 317 583 317 622 317 c 0,10,11
 665 317 665 317 693.5 294.5 c 128,-1,12
 722 272 722 272 722 234 c 0,13,14
 722 161 722 161 646.5 83 c 128,-1,15
 571 5 571 5 514 5 c 0,0,1
672 227 m 0,16,17
 672 243 672 243 665 253.5 c 128,-1,18
 658 264 658 264 652 267 c 128,-1,19
 646 270 646 270 642 270 c 0,20,21
 635 270 635 270 617 259 c 128,-1,22
 599 248 599 248 585 248 c 0,23,24
 581 248 581 248 579 249 c 2,25,-1
 574 249 l 2,26,27
 545 249 545 249 513.5 194.5 c 128,-1,28
 482 140 482 140 482 95 c 0,29,30
 482 54 482 54 514 54 c 0,31,32
 555 54 555 54 613.5 114.5 c 128,-1,33
 672 175 672 175 672 227 c 0,16,17
213 644 m 0,34,35
 242 644 242 644 285 632.5 c 128,-1,36
 328 621 328 621 366 621 c 0,37,38
 375 621 375 621 393.5 622.5 c 128,-1,39
 412 624 412 624 418 624 c 0,40,41
 534 632 534 632 568.5 642 c 128,-1,42
 603 652 603 652 625 681 c 0,43,44
 641 703 641 703 656 703 c 0,45,46
 666 703 666 703 676.5 694.5 c 128,-1,47
 687 686 687 686 695 686 c 0,48,49
 705 686 705 686 727.5 693.5 c 128,-1,50
 750 701 750 701 761 701 c 0,51,52
 783 701 783 701 783 676 c 0,53,54
 783 662 783 662 751 645.5 c 128,-1,55
 719 629 719 629 689 620 c 128,-1,56
 659 611 659 611 656 611 c 0,57,58
 627 611 627 611 568 519 c 0,59,60
 540 476 540 476 503 435 c 128,-1,61
 466 394 466 394 429.5 359 c 128,-1,62
 393 324 393 324 379 308 c 0,63,64
 348 272 348 272 288.5 188.5 c 128,-1,65
 229 105 229 105 195 64 c 0,66,67
 167 30 167 30 140.5 -9 c 128,-1,68
 114 -48 114 -48 102.5 -62 c 128,-1,69
 91 -76 91 -76 80 -76 c 0,70,71
 68 -76 68 -76 68 -52 c 0,72,73
 68 -34 68 -34 80 -14.5 c 128,-1,74
 92 5 92 5 144 73 c 0,75,76
 145 74 145 74 174.5 114 c 128,-1,77
 204 154 204 154 243.5 207 c 128,-1,78
 283 260 283 260 302 285 c 0,79,80
 348 344 348 344 410 417.5 c 128,-1,81
 472 491 472 491 505 530 c 128,-1,82
 538 569 538 569 538 576 c 0,83,84
 538 580 538 580 522 580 c 0,85,86
 510 580 510 580 476.5 574 c 128,-1,87
 443 568 443 568 411 568 c 0,88,89
 388 568 388 568 378 570 c 128,-1,90
 368 572 368 572 359 572 c 0,91,92
 338 572 338 572 338 559 c 0,93,94
 338 554 338 554 350.5 529 c 128,-1,95
 363 504 363 504 363 485 c 0,96,97
 363 454 363 454 331 438 c 0,98,99
 285 414 285 414 231 383 c 0,100,101
 165 345 165 345 132 345 c 0,102,103
 102 345 102 345 69 375 c 0,104,105
 47 394 47 394 41 407 c 128,-1,106
 35 420 35 420 35 444 c 0,107,108
 35 513 35 513 104 598 c 0,109,110
 116 614 116 614 125 621.5 c 128,-1,111
 134 629 134 629 156.5 636.5 c 128,-1,112
 179 644 179 644 213 644 c 0,34,35
233 540 m 0,113,114
 233 542 233 542 226.5 556 c 128,-1,115
 220 570 220 570 205.5 585.5 c 128,-1,116
 191 601 191 601 176 601 c 0,117,118
 151 601 151 601 118.5 548.5 c 128,-1,119
 86 496 86 496 86 456 c 0,120,121
 86 400 86 400 127 400 c 0,122,123
 161 400 161 400 235 437 c 0,124,125
 280 459 280 459 295 470 c 128,-1,126
 310 481 310 481 310 491 c 0,127,128
 310 505 310 505 299.5 511 c 128,-1,129
 289 517 289 517 276.5 517 c 128,-1,130
 264 517 264 517 250.5 522 c 128,-1,131
 237 527 237 527 233 540 c 0,113,114
EndSplineSet
EndChar

StartChar: ampersand
Encoding: 38 38 9
Width: 651
GlyphClass: 1
Flags: W
LayerCount: 2
Fore
SplineSet
341 58 m 0,0,1
 333 58 333 58 242.5 26 c 128,-1,2
 152 -6 152 -6 110 -6 c 0,3,4
 85 -6 85 -6 61 1 c 0,5,6
 44 6 44 6 39 10.5 c 128,-1,7
 34 15 34 15 34 28 c 0,8,9
 34 93 34 93 93 183 c 2,10,-1
 146 263 l 1,11,-1
 134 322 l 2,12,13
 122 382 122 382 122 426 c 0,14,15
 122 493 122 493 152 543 c 0,16,17
 175 581 175 581 199 601 c 128,-1,18
 223 621 223 621 270 640 c 0,19,20
 306 654 306 654 329 654 c 128,-1,21
 352 654 352 654 397 645 c 0,22,23
 450 635 450 635 472.5 624 c 128,-1,24
 495 613 495 613 495 597 c 0,25,26
 495 571 495 571 454 513.5 c 128,-1,27
 413 456 413 456 370 419 c 0,28,29
 317 374 317 374 269 320 c 128,-1,30
 221 266 221 266 221 251 c 0,31,32
 221 232 221 232 245.5 201.5 c 128,-1,33
 270 171 270 171 302 148 c 2,34,-1
 341 121 l 1,35,-1
 470 183 l 2,36,37
 598 245 598 245 600 258 c 0,38,39
 602 269 602 269 610 250 c 0,40,41
 616 234 616 234 616 223 c 0,42,43
 616 218 616 218 615 216 c 0,44,45
 612 211 612 211 570 188 c 128,-1,46
 528 165 528 165 477.5 137.5 c 128,-1,47
 427 110 427 110 412 101 c 2,48,-1
 382 83 l 1,49,-1
 449 34 l 2,50,51
 463 24 463 24 484 7.5 c 128,-1,52
 505 -9 505 -9 519 -19.5 c 128,-1,53
 533 -30 533 -30 540 -34 c 0,54,55
 568 -47 568 -47 568 -69 c 0,56,57
 568 -84 568 -84 551 -90 c 1,58,-1
 550 -90 l 2,59,60
 548 -91 548 -91 547 -91 c 0,61,62
 525 -91 525 -91 437.5 -16.5 c 128,-1,63
 350 58 350 58 341 58 c 0,0,1
432 580 m 0,64,65
 432 584 432 584 420.5 590 c 128,-1,66
 409 596 409 596 388 601.5 c 128,-1,67
 367 607 367 607 345 607 c 0,68,69
 273 607 273 607 215 552 c 0,70,71
 200 537 200 537 193.5 527.5 c 128,-1,72
 187 518 187 518 182.5 492 c 128,-1,73
 178 466 178 466 178 420 c 0,74,75
 178 375 178 375 183 350 c 2,76,-1
 190 312 l 1,77,-1
 212 332 l 2,78,79
 299 412 299 412 365.5 487 c 128,-1,80
 432 562 432 562 432 580 c 0,64,65
288 95 m 0,81,82
 288 98 288 98 238 140.5 c 128,-1,83
 188 183 188 183 188 188 c 0,84,85
 188 195 188 195 176 195 c 0,86,87
 166 195 166 195 133 143.5 c 128,-1,88
 100 92 100 92 92 64 c 2,89,-1
 85 39 l 1,90,-1
 132 44 l 2,91,92
 165 48 165 48 226.5 68 c 128,-1,93
 288 88 288 88 288 95 c 0,81,82
EndSplineSet
EndChar

StartChar: quotesingle
Encoding: 39 39 10
Width: 128
GlyphClass: 1
Flags: W
LayerCount: 2
Fore
SplineSet
59 491 m 2,0,1
 54 491 54 491 51 495 c 128,-1,2
 48 499 48 499 46 513.5 c 128,-1,3
 44 528 44 528 43.5 554 c 128,-1,4
 43 580 43 580 43 626 c 0,5,6
 43 753 43 753 46 762 c 0,7,8
 46 764 46 764 57 764 c 0,9,10
 75 764 75 764 80.5 746 c 128,-1,11
 86 728 86 728 86 669 c 2,12,-1
 86 657 l 2,13,14
 85 495 85 495 62 491 c 1,15,-1
 59 491 l 2,0,1
EndSplineSet
EndChar

StartChar: parenleft
Encoding: 40 40 11
Width: 362
GlyphClass: 1
Flags: W
LayerCount: 2
Fore
SplineSet
231 774 m 0,0,1
 242 793 242 793 249 800 c 128,-1,2
 256 807 256 807 276 818 c 1,3,-1
 277 818 l 2,4,5
 283 818 283 818 306 805.5 c 128,-1,6
 329 793 329 793 329 789 c 0,7,8
 329 782 329 782 304 770 c 0,9,10
 278 757 278 757 224 683 c 0,11,12
 170 608 170 608 126 484 c 128,-1,13
 82 360 82 360 82 187 c 0,14,15
 82 171 82 171 83 163 c 128,-1,16
 84 155 84 155 88 145.5 c 128,-1,17
 92 136 92 136 94 127 c 0,18,19
 104 86 104 86 120 62.5 c 128,-1,20
 136 39 136 39 148.5 35 c 128,-1,21
 161 31 161 31 170.5 26.5 c 128,-1,22
 180 22 180 22 180 12 c 0,23,24
 180 -2 180 -2 160 -5 c 0,25,26
 158 -5 158 -5 155 -5.5 c 128,-1,27
 152 -6 152 -6 150 -6 c 0,28,29
 109 -6 109 -6 77 58 c 0,30,31
 46 121 46 121 42 146 c 0,32,33
 39 163 39 163 39 186 c 0,34,35
 39 225 39 225 43 272 c 128,-1,36
 47 319 47 319 58.5 396 c 128,-1,37
 70 473 70 473 100 552 c 128,-1,38
 130 631 130 631 174 690 c 0,39,40
 216 747 216 747 231 774 c 0,0,1
EndSplineSet
EndChar

StartChar: parenright
Encoding: 41 41 12
Width: 308
GlyphClass: 1
Flags: W
LayerCount: 2
Fore
SplineSet
271 455 m 0,0,1
 271 419 271 419 259.5 360 c 128,-1,2
 248 301 248 301 248 290 c 0,3,4
 248 256 248 256 211.5 175 c 128,-1,5
 175 94 175 94 143 56 c 0,6,7
 115 24 115 24 86 -0.5 c 128,-1,8
 57 -25 57 -25 47 -25 c 0,9,10
 33 -25 33 -25 33 -16 c 0,11,12
 33 -5 33 -5 59 23 c 0,13,14
 118 84 118 84 166 197 c 0,15,16
 184 239 184 239 200.5 324 c 128,-1,17
 217 409 217 409 217 459 c 0,18,19
 217 525 217 525 185.5 613 c 128,-1,20
 154 701 154 701 108 761 c 0,21,22
 97 777 97 777 109 787 c 128,-1,23
 121 797 121 797 133 795 c 0,24,25
 144 793 144 793 179 742.5 c 128,-1,26
 214 692 214 692 223 664 c 0,27,28
 271 514 271 514 271 455 c 0,0,1
EndSplineSet
EndChar

StartChar: asterisk
Encoding: 42 42 13
Width: 362
GlyphClass: 1
Flags: W
LayerCount: 2
Fore
SplineSet
142 722 m 2,0,1
 142 747 142 747 146.5 757 c 128,-1,2
 151 767 151 767 163 767 c 0,3,4
 178 767 178 767 192.5 756 c 128,-1,5
 207 745 207 745 207 732 c 0,6,7
 207 730 207 730 206 726.5 c 128,-1,8
 205 723 205 723 205 721 c 0,9,10
 205 717 205 717 208 717 c 0,11,12
 213 717 213 717 248 736 c 128,-1,13
 283 755 283 755 294 755 c 0,14,15
 299 755 299 755 303.5 751.5 c 128,-1,16
 308 748 308 748 308 745 c 0,17,18
 308 737 308 737 262.5 698.5 c 128,-1,19
 217 660 217 660 217 652 c 0,20,21
 217 627 217 627 285 627 c 0,22,23
 309 627 309 627 316 624.5 c 128,-1,24
 323 622 323 622 323 612 c 0,25,26
 323 582 323 582 259 582 c 0,27,28
 238 582 238 582 231 578.5 c 128,-1,29
 224 575 224 575 217 560 c 0,30,31
 207 538 207 538 196 538 c 128,-1,32
 185 538 185 538 176.5 552.5 c 128,-1,33
 168 567 168 567 168 585 c 0,34,35
 168 604 168 604 161 608 c 1,36,-1
 160 608 l 2,37,38
 153 608 153 608 127.5 582.5 c 128,-1,39
 102 557 102 557 80 529 c 0,40,41
 69 516 69 516 58 516 c 0,42,43
 46 516 46 516 46 526 c 0,44,45
 46 541 46 541 80.5 585.5 c 128,-1,46
 115 630 115 630 115 640 c 0,47,48
 115 646 115 646 77 663 c 128,-1,49
 39 680 39 680 39 687 c 0,50,51
 39 699 39 699 75 699 c 0,52,53
 98 699 98 699 118 689 c 128,-1,54
 138 679 138 679 139 679 c 0,55,56
 142 679 142 679 142 705 c 2,57,-1
 142 722 l 2,0,1
EndSplineSet
EndChar

StartChar: plus
Encoding: 43 43 14
Width: 552
GlyphClass: 1
Flags: W
LayerCount: 2
Fore
SplineSet
259 496 m 0,0,1
 259 514 259 514 257.5 522.5 c 128,-1,2
 256 531 256 531 256 539 c 0,3,4
 256 568 256 568 269.5 588 c 128,-1,5
 283 608 283 608 303 595 c 0,6,7
 314 588 314 588 314 567 c 0,8,9
 314 551 314 551 307 495.5 c 128,-1,10
 300 440 300 440 300 393 c 2,11,-1
 300 385 l 1,12,13
 304 381 304 381 400 381 c 2,14,-1
 423 381 l 2,15,16
 428 381 428 381 437.5 381.5 c 128,-1,17
 447 382 447 382 451 382 c 0,18,19
 517 382 517 382 517 369 c 0,20,21
 517 365 517 365 507 355 c 0,22,23
 498 347 498 347 467 344 c 128,-1,24
 436 341 436 341 386 336.5 c 128,-1,25
 336 332 336 332 296 322 c 1,26,27
 292 282 292 282 292 223 c 0,28,29
 291 161 291 161 288.5 148.5 c 128,-1,30
 286 136 286 136 273 134 c 2,31,-1
 269 134 l 2,32,33
 253 134 253 134 248 156.5 c 128,-1,34
 243 179 243 179 243 244 c 2,35,-1
 242 322 l 1,36,-1
 184 317 l 1,37,-1
 71 308 l 2,38,39
 57 304 57 304 53 304 c 0,40,41
 37 304 37 304 37 316 c 0,42,43
 37 329 37 329 58 344 c 0,44,45
 78 358 78 358 153 362 c 128,-1,46
 228 366 228 366 241 376 c 0,47,48
 247 382 247 382 253 422.5 c 128,-1,49
 259 463 259 463 259 496 c 0,0,1
EndSplineSet
EndChar

StartChar: comma
Encoding: 44 44 15
Width: 186
GlyphClass: 1
Flags: W
LayerCount: 2
Fore
SplineSet
142 34 m 0,0,1
 142 0 142 0 106.5 -80 c 128,-1,2
 71 -160 71 -160 71 -163 c 0,3,4
 71 -167 71 -167 62.5 -172 c 128,-1,5
 54 -177 54 -177 46 -177 c 0,6,7
 39 -177 39 -177 39 -172 c 0,8,9
 39 -161 39 -161 55.5 -91.5 c 128,-1,10
 72 -22 72 -22 74 -10 c 0,11,12
 74 -7 74 -7 79 10.5 c 128,-1,13
 84 28 84 28 94.5 47 c 128,-1,14
 105 66 105 66 117 66 c 0,15,16
 120 66 120 66 124.5 65 c 128,-1,17
 129 64 129 64 135.5 56 c 128,-1,18
 142 48 142 48 142 34 c 0,0,1
EndSplineSet
EndChar

StartChar: hyphen
Encoding: 45 45 16
Width: 514
GlyphClass: 1
Flags: W
LayerCount: 2
Fore
SplineSet
80 301 m 1,0,1
 44 301 44 301 44 325 c 0,2,3
 44 341 44 341 62 347 c 128,-1,4
 80 353 80 353 247 353 c 2,5,-1
 268 353 l 2,6,7
 387 352 387 352 429.5 349 c 128,-1,8
 472 346 472 346 472 336 c 0,9,10
 472 332 472 332 463 324 c 0,11,12
 441 304 441 304 326 304 c 2,13,-1
 314 304 l 2,14,15
 303 305 303 305 285.5 305.5 c 128,-1,16
 268 306 268 306 249 306 c 128,-1,17
 230 306 230 306 212.5 306.5 c 128,-1,18
 195 307 195 307 185 307 c 0,19,20
 172 307 172 307 159.5 306.5 c 128,-1,21
 147 306 147 306 137 305.5 c 128,-1,22
 127 305 127 305 118 304.5 c 128,-1,23
 109 304 109 304 102 303.5 c 128,-1,24
 95 303 95 303 90 302.5 c 128,-1,25
 85 302 85 302 82 302 c 2,26,-1
 80 301 l 1,0,1
EndSplineSet
EndChar

StartChar: period
Encoding: 46 46 17
Width: 148
GlyphClass: 1
Flags: W
LayerCount: 2
Fore
SplineSet
41 20 m 0,0,1
 42 58 42 58 48 67 c 0,2,3
 50 70 50 70 58 70 c 0,4,5
 71 70 71 70 87.5 63 c 128,-1,6
 104 56 104 56 104 50 c 0,7,8
 104 43 104 43 95.5 29.5 c 128,-1,9
 87 16 87 16 77 8 c 128,-1,10
 67 0 67 0 64 -0.5 c 128,-1,11
 61 -1 61 -1 52 4 c 0,12,13
 41 11 41 11 41 20 c 0,0,1
EndSplineSet
EndChar

StartChar: slash
Encoding: 47 47 18
Width: 575
GlyphClass: 1
Flags: W
LayerCount: 2
Fore
SplineSet
47 -106 m 0,0,1
 33 -106 33 -106 33 -85 c 0,2,3
 33 -60 33 -60 59 -16 c 128,-1,4
 85 28 85 28 120.5 76 c 128,-1,5
 156 124 156 124 161 133 c 0,6,7
 179 164 179 164 207 209 c 0,8,9
 243 267 243 267 306 382.5 c 128,-1,10
 369 498 369 498 418 586 c 128,-1,11
 467 674 467 674 483 693 c 0,12,13
 505 718 505 718 521 718 c 0,14,15
 528 718 528 718 533 713 c 128,-1,16
 538 708 538 708 539.5 703 c 128,-1,17
 541 698 541 698 541 694 c 0,18,19
 541 676 541 676 518 655 c 128,-1,20
 495 634 495 634 453.5 553 c 128,-1,21
 412 472 412 472 332 328.5 c 128,-1,22
 252 185 252 185 156 47 c 0,23,24
 114 -14 114 -14 88 -61 c 0,25,26
 65 -106 65 -106 47 -106 c 0,0,1
EndSplineSet
EndChar

StartChar: zero
Encoding: 48 48 19
Width: 430
GlyphClass: 1
Flags: W
LayerCount: 2
Fore
SplineSet
272 647 m 2,0,1
 312 647 312 647 352.5 609.5 c 128,-1,2
 393 572 393 572 393 524 c 0,3,4
 393 503 393 503 389 469.5 c 128,-1,5
 385 436 385 436 378.5 397 c 128,-1,6
 372 358 372 358 371 348 c 0,7,8
 356 226 356 226 291 113.5 c 128,-1,9
 226 1 226 1 158 1 c 0,10,11
 112 1 112 1 76 64 c 0,12,13
 63 87 63 87 58 108 c 128,-1,14
 53 129 53 129 47 189 c 0,15,16
 41 244 41 244 41 310 c 0,17,18
 41 404 41 404 56 471 c 0,19,20
 73 543 73 543 83.5 564 c 128,-1,21
 94 585 94 585 113 585 c 2,22,-1
 119 585 l 2,23,24
 120 585 120 585 122 584.5 c 128,-1,25
 124 584 124 584 125 584 c 0,26,27
 140 584 140 584 163 602 c 128,-1,28
 186 620 186 620 210 630 c 0,29,30
 247 646 247 646 266 647 c 2,31,-1
 272 647 l 2,0,1
351 505 m 0,32,33
 351 531 351 531 345.5 546 c 128,-1,34
 340 561 340 561 333.5 566 c 128,-1,35
 327 571 327 571 311 579 c 0,36,37
 282 593 282 593 247 593 c 0,38,39
 215 593 215 593 192.5 579.5 c 128,-1,40
 170 566 170 566 169 545 c 0,41,42
 168 533 168 533 162 530 c 0,43,44
 161 530 161 530 137 522 c 0,45,46
 130 520 130 520 126 517 c 128,-1,47
 122 514 122 514 114 500 c 128,-1,48
 106 486 106 486 101 464 c 128,-1,49
 96 442 96 442 92 397.5 c 128,-1,50
 88 353 88 353 88 292 c 0,51,52
 88 177 88 177 101 135 c 0,53,54
 128 49 128 49 165 49 c 0,55,56
 172 49 172 49 180 52 c 0,57,58
 190 56 190 56 224 96.5 c 128,-1,59
 258 137 258 137 258 145 c 0,60,61
 258 146 258 146 262.5 152.5 c 128,-1,62
 267 159 267 159 274 170.5 c 128,-1,63
 281 182 281 182 285 193 c 0,64,65
 311 267 311 267 331 359 c 128,-1,66
 351 451 351 451 351 505 c 0,32,33
EndSplineSet
EndChar

StartChar: one
Encoding: 49 49 20
Width: 359
GlyphClass: 1
Flags: W
LayerCount: 2
Fore
SplineSet
248 62 m 0,0,1
 248 35 248 35 252.5 20.5 c 128,-1,2
 257 6 257 6 257 3 c 0,3,4
 256 -7 256 -7 241.5 -6.5 c 128,-1,5
 227 -6 227 -6 218 0 c 0,6,7
 203 10 203 10 203 65 c 0,8,9
 203 101 203 101 210 132 c 0,10,11
 212 142 212 142 216 185 c 128,-1,12
 220 228 220 228 229.5 295 c 128,-1,13
 239 362 239 362 254 433 c 0,14,15
 260 460 260 460 260 478 c 0,16,17
 260 487 260 487 258 487 c 0,18,19
 249 487 249 487 210 430 c 0,20,21
 179 386 179 386 131 340.5 c 128,-1,22
 83 295 83 295 64 294 c 2,23,-1
 62 294 l 2,24,25
 52 294 52 294 43.5 303 c 128,-1,26
 35 312 35 312 35 320 c 0,27,28
 35 329 35 329 81 354 c 0,29,30
 121 376 121 376 165 436 c 0,31,32
 203 487 203 487 239 545 c 128,-1,33
 275 603 275 603 279 620 c 0,34,35
 282 637 282 637 306 637 c 0,36,37
 324 637 324 637 324 623 c 0,38,39
 324 611 324 611 314 549 c 128,-1,40
 304 487 304 487 294 430 c 2,41,-1
 285 374 l 2,42,43
 248 121 248 121 248 62 c 0,0,1
EndSplineSet
EndChar

StartChar: two
Encoding: 50 50 21
Width: 539
GlyphClass: 1
Flags: W
LayerCount: 2
Fore
SplineSet
133 511 m 0,0,1
 133 513 133 513 146 526.5 c 128,-1,2
 159 540 159 540 182.5 558.5 c 128,-1,3
 206 577 206 577 234 594.5 c 128,-1,4
 262 612 262 612 297 624.5 c 128,-1,5
 332 637 332 637 362 637 c 0,6,7
 366 637 366 637 372 636.5 c 128,-1,8
 378 636 378 636 392.5 632 c 128,-1,9
 407 628 407 628 417.5 621 c 128,-1,10
 428 614 428 614 437 599 c 128,-1,11
 446 584 446 584 446 564 c 0,12,13
 446 490 446 490 405 375 c 0,14,15
 394 343 394 343 330.5 253 c 128,-1,16
 267 163 267 163 245 140 c 0,17,18
 203 98 203 98 203 89 c 0,19,20
 203 87 203 87 209 79.5 c 128,-1,21
 215 72 215 72 235 63 c 128,-1,22
 255 54 255 54 284 54 c 0,23,24
 327 54 327 54 400.5 75 c 128,-1,25
 474 96 474 96 489 96 c 0,26,27
 505 96 505 96 505 85 c 0,28,29
 505 80 505 80 464 62 c 128,-1,30
 423 44 423 44 366.5 27 c 128,-1,31
 310 10 310 10 277 10 c 0,32,33
 242 10 242 10 203.5 28 c 128,-1,34
 165 46 165 46 159 46 c 0,35,36
 146 46 146 46 99 12.5 c 128,-1,37
 52 -21 52 -21 40 -21 c 2,38,-1
 38 -21 l 2,39,40
 33 -18 33 -18 33 -6 c 0,41,42
 33 19 33 19 48 43 c 0,43,44
 57 57 57 57 90.5 77 c 128,-1,45
 124 97 124 97 139 97 c 2,46,-1
 140 97 l 2,47,48
 176 97 176 97 242 184 c 0,49,50
 298 259 298 259 352 384 c 128,-1,51
 406 509 406 509 406 559 c 0,52,53
 406 594 406 594 358 594 c 0,54,55
 301 594 301 594 227 545 c 0,56,57
 206 531 206 531 199.5 524 c 128,-1,58
 193 517 193 517 193 506 c 0,59,60
 193 497 193 497 194.5 488.5 c 128,-1,61
 196 480 196 480 196 476 c 0,62,63
 196 463 196 463 184 463 c 2,64,-1
 181 463 l 2,65,66
 169 464 169 464 151 482 c 128,-1,67
 133 500 133 500 133 511 c 0,0,1
EndSplineSet
EndChar

StartChar: three
Encoding: 51 51 22
Width: 476
GlyphClass: 1
Flags: W
LayerCount: 2
Fore
SplineSet
34 554 m 0,0,1
 34 576 34 576 88 603.5 c 128,-1,2
 142 631 142 631 200 631 c 0,3,4
 248 631 248 631 292.5 617.5 c 128,-1,5
 337 604 337 604 349 585 c 0,6,7
 358 570 358 570 358 553 c 0,8,9
 358 530 358 530 330 483.5 c 128,-1,10
 302 437 302 437 302 427 c 128,-1,11
 302 417 302 417 332 417 c 0,12,13
 367 416 367 416 403.5 345 c 128,-1,14
 440 274 440 274 440 228 c 0,15,16
 440 204 440 204 418 161 c 128,-1,17
 396 118 396 118 374 98 c 0,18,19
 351 76 351 76 304.5 39.5 c 128,-1,20
 258 3 258 3 242 -6 c 0,21,22
 228 -14 228 -14 184 -14 c 2,23,-1
 176 -14 l 2,24,25
 134 -12 134 -12 116 2 c 128,-1,26
 98 16 98 16 98 48 c 2,27,-1
 98 53 l 2,28,29
 100 89 100 89 116 89 c 0,30,31
 128 89 128 89 153.5 59 c 128,-1,32
 179 29 179 29 199 29 c 0,33,34
 235 29 235 29 305.5 99 c 128,-1,35
 376 169 376 169 388 204 c 0,36,37
 391 213 391 213 391 231 c 0,38,39
 391 266 391 266 381.5 306 c 128,-1,40
 372 346 372 346 357 356 c 0,41,42
 328 375 328 375 306 375 c 0,43,44
 276 375 276 375 235.5 345.5 c 128,-1,45
 195 316 195 316 185 316 c 0,46,47
 180 316 180 316 174 322 c 128,-1,48
 168 328 168 328 168 336 c 0,49,50
 168 350 168 350 213.5 396 c 128,-1,51
 259 442 259 442 259 447 c 128,-1,52
 259 452 259 452 284 487.5 c 128,-1,53
 309 523 309 523 309 539 c 0,54,55
 309 559 309 559 279 571.5 c 128,-1,56
 249 584 249 584 214 584 c 0,57,58
 172 584 172 584 137.5 570.5 c 128,-1,59
 103 557 103 557 82.5 543.5 c 128,-1,60
 62 530 62 530 54 530 c 0,61,62
 48 530 48 530 41 538 c 128,-1,63
 34 546 34 546 34 554 c 0,0,1
EndSplineSet
EndChar

StartChar: four
Encoding: 52 52 23
Width: 464
GlyphClass: 1
Flags: W
LayerCount: 2
Fore
SplineSet
71 298 m 2,0,1
 58 298 58 298 52.5 299.5 c 128,-1,2
 47 301 47 301 42.5 308.5 c 128,-1,3
 38 316 38 316 38 333 c 0,4,5
 38 365 38 365 66.5 478.5 c 128,-1,6
 95 592 95 592 97 607 c 0,7,8
 99 619 99 619 101.5 627.5 c 128,-1,9
 104 636 104 636 111.5 643.5 c 128,-1,10
 119 651 119 651 130 650 c 0,11,12
 142 648 142 648 142 627 c 0,13,14
 142 610 142 610 117 513 c 128,-1,15
 92 416 92 416 92 355 c 0,16,17
 92 353 92 353 92.5 350.5 c 128,-1,18
 93 348 93 348 93 347 c 0,19,20
 93 343 93 343 125 343 c 0,21,22
 162 343 162 343 208.5 347.5 c 128,-1,23
 255 352 255 352 262 357 c 0,24,25
 266 360 266 360 267.5 401 c 128,-1,26
 269 442 269 442 271.5 502.5 c 128,-1,27
 274 563 274 563 279 599 c 0,28,29
 285 632 285 632 299 635 c 0,30,31
 313 637 313 637 321 631 c 0,32,33
 323 629 323 629 323 618 c 0,34,35
 323 601 323 601 316 548 c 128,-1,36
 309 495 309 495 309 453 c 0,37,38
 309 404 309 404 317 373.5 c 128,-1,39
 325 343 325 343 340 343 c 2,40,-1
 341 343 l 2,41,42
 342 343 342 343 344 343.5 c 128,-1,43
 346 344 346 344 347 344 c 0,44,45
 364 344 364 344 397 339 c 128,-1,46
 430 334 430 334 430 324 c 0,47,48
 430 323 430 323 428.5 320.5 c 128,-1,49
 427 318 427 318 427 317 c 0,50,51
 422 307 422 307 385 307 c 2,52,-1
 347 307 l 2,53,54
 341 307 341 307 337.5 304 c 128,-1,55
 334 301 334 301 330.5 287 c 128,-1,56
 327 273 327 273 324 246 c 0,57,58
 319 200 319 200 315 127 c 128,-1,59
 311 54 311 54 306.5 19 c 128,-1,60
 302 -16 302 -16 294 -16 c 0,61,62
 274 -16 274 -16 274 29 c 2,63,-1
 274 223 l 2,64,65
 274 228 274 228 274.5 235.5 c 128,-1,66
 275 243 275 243 275.5 251 c 128,-1,67
 276 259 276 259 276.5 266 c 128,-1,68
 277 273 277 273 278 278 c 2,69,-1
 278 283 l 2,70,71
 278 306 278 306 202 306 c 0,72,73
 184 306 184 306 149 302 c 128,-1,74
 114 298 114 298 84 298 c 2,75,-1
 71 298 l 2,0,1
EndSplineSet
EndChar

StartChar: five
Encoding: 53 53 24
Width: 473
GlyphClass: 1
Flags: W
LayerCount: 2
Fore
SplineSet
141 624 m 2,0,1
 165 624 165 624 258.5 637.5 c 128,-1,2
 352 651 352 651 383 651 c 2,3,-1
 384 651 l 2,4,5
 439 651 439 651 439 636 c 0,6,7
 439 627 439 627 409.5 620.5 c 128,-1,8
 380 614 380 614 272 601 c 0,9,10
 263 600 263 600 243.5 598 c 128,-1,11
 224 596 224 596 213.5 594.5 c 128,-1,12
 203 593 203 593 187 590.5 c 128,-1,13
 171 588 171 588 161 585.5 c 128,-1,14
 151 583 151 583 140.5 579 c 128,-1,15
 130 575 130 575 124 570 c 128,-1,16
 118 565 118 565 115 559 c 0,17,18
 112 552 112 552 108.5 505 c 128,-1,19
 105 458 105 458 105 432 c 2,20,-1
 105 423 l 1,21,-1
 108 396 l 1,22,-1
 143 409 l 2,23,24
 163 416 163 416 185 416 c 0,25,26
 235 416 235 416 259 377 c 0,27,28
 260 375 260 375 271 358.5 c 128,-1,29
 282 342 282 342 291.5 328.5 c 128,-1,30
 301 315 301 315 314 293 c 128,-1,31
 327 271 327 271 336 253 c 128,-1,32
 345 235 345 235 351.5 216.5 c 128,-1,33
 358 198 358 198 358 185 c 0,34,35
 358 180 358 180 357 177 c 0,36,37
 347 131 347 131 296.5 88.5 c 128,-1,38
 246 46 246 46 193 24 c 128,-1,39
 140 2 140 2 110 2 c 0,40,41
 77 2 77 2 58.5 24.5 c 128,-1,42
 40 47 40 47 40 68 c 0,43,44
 40 78 40 78 48 78 c 0,45,46
 60 78 60 78 81.5 56.5 c 128,-1,47
 103 35 103 35 111 35 c 0,48,49
 115 35 115 35 154.5 50 c 128,-1,50
 194 65 194 65 242 90 c 128,-1,51
 290 115 290 115 301 135 c 0,52,53
 311 152 311 152 311 178 c 0,54,55
 311 238 311 238 263 305 c 128,-1,56
 215 372 215 372 175 372 c 0,57,58
 156 372 156 372 116 345 c 128,-1,59
 76 318 76 318 68 318 c 0,60,61
 54 318 54 318 54 350 c 0,62,63
 54 356 54 356 57 397 c 128,-1,64
 60 438 60 438 60 469 c 0,65,66
 60 534 60 534 48 546 c 0,67,68
 35 559 35 559 35 568 c 0,69,70
 35 594 35 594 70 609 c 128,-1,71
 105 624 105 624 129 624 c 2,72,-1
 141 624 l 2,0,1
EndSplineSet
EndChar

StartChar: six
Encoding: 54 54 25
Width: 367
GlyphClass: 1
Flags: W
LayerCount: 2
Fore
SplineSet
165 343 m 0,0,1
 172 343 172 343 183.5 342.5 c 128,-1,2
 195 342 195 342 223.5 336 c 128,-1,3
 252 330 252 330 274 320.5 c 128,-1,4
 296 311 296 311 313.5 290 c 128,-1,5
 331 269 331 269 331 240 c 0,6,7
 331 208 331 208 302 133.5 c 128,-1,8
 273 59 273 59 271 47 c 0,9,10
 267 31 267 31 231 18 c 128,-1,11
 195 5 195 5 162 5 c 0,12,13
 148 5 148 5 141 8 c 0,14,15
 101 22 101 22 71 117.5 c 128,-1,16
 41 213 41 213 41 325 c 2,17,-1
 41 330 l 2,18,19
 42 491 42 491 88 578 c 0,20,21
 107 615 107 615 125.5 626.5 c 128,-1,22
 144 638 144 638 201 638 c 0,23,24
 284 638 284 638 305 610 c 0,25,26
 319 592 319 592 319 583 c 0,27,28
 319 578 319 578 312 578 c 0,29,30
 306 578 306 578 289 584 c 128,-1,31
 272 590 272 590 248 590 c 0,32,33
 176 590 176 590 155 571 c 0,34,35
 123 541 123 541 106 499 c 128,-1,36
 89 457 89 457 87 432 c 128,-1,37
 85 407 85 407 85 369 c 0,38,39
 85 357 85 357 86 352 c 128,-1,40
 87 347 87 347 93.5 342 c 128,-1,41
 100 337 100 337 113 337 c 0,42,43
 123 337 123 337 140 340 c 128,-1,44
 157 343 157 343 165 343 c 0,0,1
232 288 m 128,-1,46
 229 288 229 288 204 292.5 c 128,-1,47
 179 297 179 297 159 297 c 0,48,49
 127 297 127 297 110.5 282 c 128,-1,50
 94 267 94 267 94 230 c 0,51,52
 94 194 94 194 110.5 133.5 c 128,-1,53
 127 73 127 73 145 63 c 0,54,55
 159 54 159 54 184 54 c 0,56,57
 214 54 214 54 233 77 c 0,58,59
 242 87 242 87 245.5 105.5 c 128,-1,60
 249 124 249 124 255 135 c 0,61,62
 287 201 287 201 287 247 c 0,63,64
 287 264 287 264 281 270 c 0,65,66
 261 289 261 289 245 289 c 0,67,68
 243 289 243 289 239 288.5 c 128,-1,45
 235 288 235 288 232 288 c 128,-1,46
EndSplineSet
EndChar

StartChar: seven
Encoding: 55 55 26
Width: 493
GlyphClass: 1
Flags: W
LayerCount: 2
Fore
SplineSet
59 407 m 0,0,1
 55 407 55 407 51 408 c 128,-1,2
 47 409 47 409 41 416 c 128,-1,3
 35 423 35 423 35 436 c 0,4,5
 35 459 35 459 59 529 c 128,-1,6
 83 599 83 599 86 620 c 0,7,8
 89 648 89 648 92.5 655 c 128,-1,9
 96 662 96 662 110 662 c 0,10,11
 135 662 135 662 144 648 c 0,12,13
 153 636 153 636 168 636 c 0,14,15
 192 636 192 636 252 647 c 128,-1,16
 312 658 312 658 336 668 c 128,-1,17
 360 678 360 678 369 678 c 0,18,19
 372 678 372 678 375.5 677.5 c 128,-1,20
 379 677 379 677 385 671 c 128,-1,21
 391 665 391 665 391 655 c 0,22,23
 391 633 391 633 368.5 545 c 128,-1,24
 346 457 346 457 345 430 c 0,25,26
 345 422 345 422 340 395 c 128,-1,27
 335 368 335 368 335 359 c 128,-1,28
 335 350 335 350 339 350 c 2,29,-1
 340 350 l 1,30,31
 382 365 382 365 412 365 c 0,32,33
 458 365 458 365 458 335 c 0,34,35
 458 325 458 325 449.5 318.5 c 128,-1,36
 441 312 441 312 429 312 c 0,37,38
 423 312 423 312 414 314.5 c 128,-1,39
 405 317 405 317 397 317 c 0,40,41
 376 317 376 317 348.5 310 c 128,-1,42
 321 303 321 303 315 296 c 0,43,44
 310 290 310 290 299.5 183 c 128,-1,45
 289 76 289 76 289 46 c 0,46,47
 289 10 289 10 268 1 c 0,48,49
 266 1 266 1 258.5 6 c 128,-1,50
 251 11 251 11 242.5 21.5 c 128,-1,51
 234 32 234 32 234 42 c 0,52,53
 234 47 234 47 249.5 105 c 128,-1,54
 265 163 265 163 265 233 c 0,55,56
 265 290 265 290 259 292 c 2,57,-1
 256 292 l 2,58,59
 243 292 243 292 185 281 c 128,-1,60
 127 270 127 270 109 270 c 0,61,62
 105 270 105 270 102 270.5 c 128,-1,63
 99 271 99 271 97.5 272 c 128,-1,64
 96 273 96 273 95 274 c 128,-1,65
 94 275 94 275 92 277 c 128,-1,66
 90 279 90 279 88 280 c 0,67,68
 76 288 76 288 76 294 c 0,69,70
 76 310 76 310 179 329 c 0,71,72
 207 334 207 334 223.5 335.5 c 128,-1,73
 240 337 240 337 267 342 c 0,74,75
 271 343 271 343 286.5 389.5 c 128,-1,76
 302 436 302 436 306 461 c 2,77,-1
 320 534 l 2,78,79
 334 606 334 606 334 611 c 0,80,81
 334 615 334 615 331 615 c 128,-1,82
 328 615 328 615 273.5 605 c 128,-1,83
 219 595 219 595 176 595 c 2,84,-1
 152 595 l 2,85,86
 133 595 133 595 128.5 591 c 128,-1,87
 124 587 124 587 122 573 c 0,88,89
 119 557 119 557 96 501 c 128,-1,90
 73 445 73 445 73 431 c 0,91,92
 73 407 73 407 59 407 c 0,0,1
EndSplineSet
EndChar

StartChar: eight
Encoding: 56 56 27
Width: 375
GlyphClass: 1
Flags: W
LayerCount: 2
Fore
SplineSet
242 312 m 0,0,1
 242 301 242 301 256 285.5 c 128,-1,2
 270 270 270 270 287.5 254 c 128,-1,3
 305 238 305 238 319 208 c 128,-1,4
 333 178 333 178 333 141 c 0,5,6
 333 107 333 107 318 83 c 128,-1,7
 303 59 303 59 268 34 c 0,8,9
 220 1 220 1 190 -4 c 0,10,11
 188 -4 188 -4 186 -4.5 c 128,-1,12
 184 -5 184 -5 182 -5 c 0,13,14
 124 -5 124 -5 66 72 c 0,15,16
 50 93 50 93 50 115 c 0,17,18
 50 117 50 117 50.5 120.5 c 128,-1,19
 51 124 51 124 51 127 c 0,20,21
 52 153 52 153 62 196 c 0,22,23
 62 198 62 198 63.5 204.5 c 128,-1,24
 65 211 65 211 66 213.5 c 128,-1,25
 67 216 67 216 69.5 221 c 128,-1,26
 72 226 72 226 77 231.5 c 128,-1,27
 82 237 82 237 90 245 c 0,28,29
 124 279 124 279 124 298 c 0,30,31
 124 313 124 313 98 336 c 0,32,33
 36 388 36 388 36 457 c 0,34,35
 36 519 36 519 83 572 c 128,-1,36
 130 625 130 625 197 625 c 0,37,38
 260 625 260 625 299 578 c 128,-1,39
 338 531 338 531 338 486 c 0,40,41
 338 453 338 453 314 415.5 c 128,-1,42
 290 378 290 378 266 350 c 128,-1,43
 242 322 242 322 242 312 c 0,0,1
178 266 m 2,44,45
 161 263 161 263 129 211 c 128,-1,46
 97 159 97 159 97 142 c 0,47,48
 97 137 97 137 112 98 c 0,49,50
 130 48 130 48 164 48 c 0,51,52
 190 48 190 48 246 84 c 0,53,54
 271 100 271 100 279 108.5 c 128,-1,55
 287 117 287 117 287 126 c 0,56,57
 287 160 287 160 247 213 c 128,-1,58
 207 266 207 266 181 266 c 2,59,-1
 178 266 l 2,44,45
195 567 m 1,60,61
 156 563 156 563 124 534.5 c 128,-1,62
 92 506 92 506 92 471 c 0,63,64
 92 462 92 462 100 422 c 0,65,66
 104 402 104 402 113 391 c 128,-1,67
 122 380 122 380 149 364 c 0,68,69
 189 339 189 339 195 339 c 0,70,71
 198 339 198 339 219.5 365.5 c 128,-1,72
 241 392 241 392 262.5 428 c 128,-1,73
 284 464 284 464 284 483 c 0,74,75
 284 484 284 484 283.5 486 c 128,-1,76
 283 488 283 488 283 489 c 0,77,78
 276 529 276 529 248 548 c 128,-1,79
 220 567 220 567 198 567 c 2,80,-1
 195 567 l 1,60,61
EndSplineSet
EndChar

StartChar: nine
Encoding: 57 57 28
Width: 352
GlyphClass: 1
Flags: W
LayerCount: 2
Fore
SplineSet
37 462 m 0,0,1
 37 538 37 538 80 592.5 c 128,-1,2
 123 647 123 647 177 647 c 0,3,4
 200 647 200 647 220 637 c 0,5,6
 242 627 242 627 252 615.5 c 128,-1,7
 262 604 262 604 278 571 c 0,8,9
 303 520 303 520 303 469 c 2,10,-1
 303 453 l 2,11,12
 303 419 303 419 306.5 346 c 128,-1,13
 310 273 310 273 310 258 c 0,14,15
 310 201 310 201 303 159 c 128,-1,16
 296 117 296 117 276.5 78 c 128,-1,17
 257 39 257 39 218 19 c 128,-1,18
 179 -1 179 -1 120 -1 c 2,19,-1
 114 -1 l 2,20,21
 82 0 82 0 64 13 c 128,-1,22
 46 26 46 26 46 40 c 0,23,24
 46 50 46 50 64 50 c 0,25,26
 73 50 73 50 101 45.5 c 128,-1,27
 129 41 129 41 143 41 c 0,28,29
 155 41 155 41 165 43 c 0,30,31
 188 48 188 48 215 84.5 c 128,-1,32
 242 121 242 121 249 159 c 0,33,34
 253 178 253 178 253 230 c 0,35,36
 253 258 253 258 251.5 310 c 128,-1,37
 250 362 250 362 250 377 c 0,38,39
 250 385 250 385 250 390 c 2,40,-1
 251 395 l 2,41,42
 251 406 251 406 245 406 c 0,43,44
 242 406 242 406 236.5 401.5 c 128,-1,45
 231 397 231 397 224 389 c 128,-1,46
 217 381 217 381 212 374.5 c 128,-1,47
 207 368 207 368 200 359 c 128,-1,48
 193 350 193 350 192 348 c 0,49,50
 180 334 180 334 156 324 c 128,-1,51
 132 314 132 314 114 314 c 0,52,53
 88 314 88 314 62.5 359 c 128,-1,54
 37 404 37 404 37 462 c 0,0,1
244 530 m 0,55,56
 244 559 244 559 228 582.5 c 128,-1,57
 212 606 212 606 193 606 c 0,58,59
 160 606 160 606 125 582 c 0,60,61
 95 562 95 562 91 460 c 0,62,63
 91 455 91 455 90.5 445.5 c 128,-1,64
 90 436 90 436 90 432 c 0,65,66
 90 373 90 373 116 361 c 0,67,68
 126 356 126 356 132 356 c 0,69,70
 146 356 146 356 166 379 c 0,71,72
 244 463 244 463 244 530 c 0,55,56
EndSplineSet
EndChar

StartChar: colon
Encoding: 58 58 29
Width: 167
GlyphClass: 1
Flags: W
LayerCount: 2
Fore
SplineSet
39 10 m 0,0,1
 39 26 39 26 51.5 57.5 c 128,-1,2
 64 89 64 89 79 89 c 0,3,4
 82 89 82 89 91.5 87 c 128,-1,5
 101 85 101 85 113 78.5 c 128,-1,6
 125 72 125 72 125 64 c 0,7,8
 125 53 125 53 109 24 c 0,9,10
 99 4 99 4 91 -1.5 c 128,-1,11
 83 -7 83 -7 68 -7 c 0,12,13
 39 -7 39 -7 39 10 c 0,0,1
52 309 m 0,14,15
 52 330 52 330 62.5 352.5 c 128,-1,16
 73 375 73 375 91 375 c 0,17,18
 104 375 104 375 112 364 c 128,-1,19
 120 353 120 353 120 340 c 0,20,21
 120 330 120 330 111.5 321 c 128,-1,22
 103 312 103 312 103 298 c 0,23,24
 103 288 103 288 98.5 284 c 128,-1,25
 94 280 94 280 83 280 c 0,26,27
 52 280 52 280 52 309 c 0,14,15
EndSplineSet
EndChar

StartChar: semicolon
Encoding: 59 59 30
Width: 273
GlyphClass: 1
Flags: W
LayerCount: 2
Fore
SplineSet
178 80 m 0,0,1
 180 80 180 80 184 79 c 128,-1,2
 188 78 188 78 194 69.5 c 128,-1,3
 200 61 200 61 200 46 c 0,4,5
 200 3 200 3 181 -16 c 0,6,7
 167 -30 167 -30 153 -60 c 0,8,9
 122 -121 122 -121 92 -163 c 128,-1,10
 62 -205 62 -205 48 -207 c 0,11,12
 33 -209 33 -209 33 -201 c 0,13,14
 34 -186 34 -186 72 -119 c 0,15,16
 107 -57 107 -57 127 -9 c 128,-1,17
 147 39 147 39 152 55 c 128,-1,18
 157 71 157 71 164 75 c 0,19,20
 174 80 174 80 178 80 c 0,0,1
138 307 m 0,21,22
 138 321 138 321 155 348 c 128,-1,23
 172 375 172 375 193 375 c 0,24,25
 206 375 206 375 220 366 c 128,-1,26
 234 357 234 357 234 343 c 0,27,28
 234 325 234 325 202 293 c 2,29,-1
 169 261 l 1,30,-1
 153 278 l 2,31,32
 138 294 138 294 138 307 c 0,21,22
EndSplineSet
EndChar

StartChar: less
Encoding: 60 60 31
Width: 518
GlyphClass: 1
Flags: W
LayerCount: 2
Fore
SplineSet
483 133 m 0,0,1
 483 127 483 127 471 121.5 c 128,-1,2
 459 116 459 116 443 116 c 0,3,4
 421 116 421 116 395 126 c 0,5,6
 360 140 360 140 252 171 c 0,7,8
 196 187 196 187 151.5 209.5 c 128,-1,9
 107 232 107 232 83.5 252 c 128,-1,10
 60 272 60 272 48.5 288 c 128,-1,11
 37 304 37 304 37 313 c 0,12,13
 37 332 37 332 74 368.5 c 128,-1,14
 111 405 111 405 232 511 c 0,15,16
 351 616 351 616 373 616 c 0,17,18
 394 616 394 616 394 602 c 0,19,20
 394 583 394 583 360 544 c 128,-1,21
 326 505 326 505 265 455 c 0,22,23
 196 398 196 398 167.5 369 c 128,-1,24
 139 340 139 340 139 320 c 0,25,26
 139 303 139 303 169.5 278 c 128,-1,27
 200 253 200 253 222 247 c 0,28,29
 237 243 237 243 270.5 225.5 c 128,-1,30
 304 208 304 208 320 203 c 0,31,32
 340 197 340 197 364.5 190.5 c 128,-1,33
 389 184 389 184 401 180.5 c 128,-1,34
 413 177 413 177 428 171 c 128,-1,35
 443 165 443 165 456 157 c 0,36,37
 483 141 483 141 483 133 c 0,0,1
EndSplineSet
EndChar

StartChar: equal
Encoding: 61 61 32
Width: 499
GlyphClass: 1
Flags: W
LayerCount: 2
Fore
SplineSet
246 268 m 0,0,1
 289 268 289 268 343 273.5 c 128,-1,2
 397 279 397 279 421 279 c 0,3,4
 424 279 424 279 427.5 278.5 c 128,-1,5
 431 278 431 278 432 278 c 0,6,7
 444 277 444 277 452 270.5 c 128,-1,8
 460 264 460 264 460 258 c 128,-1,9
 460 252 460 252 453 251 c 0,10,11
 384 231 384 231 253 226.5 c 128,-1,12
 122 222 122 222 103 217 c 0,13,14
 93 215 93 215 88 215 c 0,15,16
 75 215 75 215 66 221 c 128,-1,17
 57 227 57 227 57 236 c 0,18,19
 57 271 57 271 149 271 c 0,20,21
 162 271 162 271 183 269.5 c 128,-1,22
 204 268 204 268 246 268 c 0,0,1
40 405 m 0,23,24
 40 425 40 425 81 429.5 c 128,-1,25
 122 434 122 434 280 434 c 0,26,27
 386 434 386 434 417 433 c 0,28,29
 423 433 423 433 421 416 c 0,30,31
 420 408 420 408 414 404 c 128,-1,32
 408 400 408 400 391 397 c 128,-1,33
 374 394 374 394 333 390 c 0,34,35
 258 383 258 383 159 383 c 2,36,-1
 145 383 l 2,37,38
 75 384 75 384 59 386 c 128,-1,39
 43 388 43 388 41 398 c 0,40,41
 41 399 41 399 40.5 401.5 c 128,-1,42
 40 404 40 404 40 405 c 0,23,24
EndSplineSet
EndChar

StartChar: greater
Encoding: 62 62 33
Width: 476
GlyphClass: 1
Flags: W
LayerCount: 2
Fore
SplineSet
35 575 m 0,0,1
 35 589 35 589 53 589 c 0,2,3
 82 589 82 589 140 550 c 128,-1,4
 198 511 198 511 357 390 c 0,5,6
 440 327 440 327 440 322 c 128,-1,7
 440 317 440 317 417 301.5 c 128,-1,8
 394 286 394 286 387 286 c 0,9,10
 370 286 370 286 297.5 238.5 c 128,-1,11
 225 191 225 191 183 153 c 0,12,13
 117 93 117 93 99 93 c 0,14,15
 89 93 89 93 89 106 c 0,16,17
 89 131 89 131 165 200.5 c 128,-1,18
 241 270 241 270 330 327 c 0,19,20
 339 333 339 333 339 337 c 0,21,22
 339 345 339 345 300 377 c 0,23,24
 175 482 175 482 97 521 c 0,25,26
 35 553 35 553 35 575 c 0,0,1
EndSplineSet
EndChar

StartChar: question
Encoding: 63 63 34
Width: 362
GlyphClass: 1
Flags: W
LayerCount: 2
Fore
SplineSet
127 42 m 0,0,1
 127 60 127 60 151 60 c 0,2,3
 157 60 157 60 165 59 c 128,-1,4
 173 58 173 58 186 50 c 128,-1,5
 199 42 199 42 199 27 c 0,6,7
 199 13 199 13 190.5 4 c 128,-1,8
 182 -5 182 -5 172 -5 c 128,-1,9
 162 -5 162 -5 144.5 11 c 128,-1,10
 127 27 127 27 127 42 c 0,0,1
61 487 m 0,11,12
 51 487 51 487 42.5 494 c 128,-1,13
 34 501 34 501 34 507 c 0,14,15
 34 519 34 519 75 557 c 0,16,17
 101 581 101 581 119 594.5 c 128,-1,18
 137 608 137 608 172.5 620 c 128,-1,19
 208 632 208 632 252 632 c 2,20,-1
 254 632 l 2,21,22
 285 632 285 632 304.5 618 c 128,-1,23
 324 604 324 604 326 582 c 2,24,-1
 326 570 l 2,25,26
 326 541 326 541 313 511.5 c 128,-1,27
 300 482 300 482 269.5 431.5 c 128,-1,28
 239 381 239 381 222 347 c 0,29,30
 209 322 209 322 198.5 299 c 128,-1,31
 188 276 188 276 182 262 c 128,-1,32
 176 248 176 248 171.5 236 c 128,-1,33
 167 224 167 224 164.5 218 c 128,-1,34
 162 212 162 212 159.5 207.5 c 128,-1,35
 157 203 157 203 154.5 202 c 128,-1,36
 152 201 152 201 148 201 c 0,37,38
 140 201 140 201 135.5 212 c 128,-1,39
 131 223 131 223 130 234 c 2,40,-1
 130 245 l 2,41,42
 130 288 130 288 189 410 c 0,43,44
 210 454 210 454 233 492.5 c 128,-1,45
 256 531 256 531 266.5 547.5 c 128,-1,46
 277 564 277 564 277 571 c 0,47,48
 277 581 277 581 234 581 c 0,49,50
 196 581 196 581 157 561.5 c 128,-1,51
 118 542 118 542 102 515 c 0,52,53
 86 487 86 487 61 487 c 0,11,12
EndSplineSet
EndChar

StartChar: at
Encoding: 64 64 35
Width: 749
GlyphClass: 1
Flags: W
LayerCount: 2
Fore
SplineSet
435 -162 m 0,0,1
 435 -177 435 -177 349 -189.5 c 128,-1,2
 263 -202 263 -202 232 -202 c 0,3,4
 198 -202 198 -202 141.5 -174.5 c 128,-1,5
 85 -147 85 -147 54 -90 c 0,6,7
 50 -83 50 -83 45 -75 c 0,8,9
 38 -65 38 -65 38 -33 c 0,10,11
 38 -12 38 -12 38 3 c 0,12,13
 38 11 38 11 37.5 24 c 128,-1,14
 37 37 37 37 37 42 c 0,15,16
 37 83 37 83 41 104 c 128,-1,17
 45 125 45 125 61 165 c 0,18,19
 76 203 76 203 94 239.5 c 128,-1,20
 112 276 112 276 146.5 325.5 c 128,-1,21
 181 375 181 375 220.5 411.5 c 128,-1,22
 260 448 260 448 319 473.5 c 128,-1,23
 378 499 378 499 444 499 c 0,24,25
 515 499 515 499 545 484 c 0,26,27
 587 464 587 464 649 389 c 128,-1,28
 711 314 711 314 711 279 c 0,29,30
 711 243 711 243 665 173.5 c 128,-1,31
 619 104 619 104 577 77 c 0,32,33
 522 43 522 43 486 43 c 0,34,35
 468 43 468 43 449 49 c 2,36,-1
 413 60 l 1,37,-1
 372 18 l 2,38,39
 347 -7 347 -7 334 -15 c 128,-1,40
 321 -23 321 -23 304 -23 c 0,41,42
 277 -23 277 -23 265.5 -11.5 c 128,-1,43
 254 0 254 0 254 28 c 0,44,45
 254 76 254 76 270 138.5 c 128,-1,46
 286 201 286 201 322 254.5 c 128,-1,47
 358 308 358 308 404 308 c 0,48,49
 425 308 425 308 448 294 c 0,50,51
 475 277 475 277 485.5 252.5 c 128,-1,52
 496 228 496 228 496 184 c 0,53,54
 496 147 496 147 493 139 c 128,-1,55
 490 131 490 131 475 127 c 0,56,57
 456 122 456 122 456 108 c 0,58,59
 456 99 456 99 465 90.5 c 128,-1,60
 474 82 474 82 486 82 c 0,61,62
 529 82 529 82 598 151 c 128,-1,63
 667 220 667 220 667 266 c 0,64,65
 667 296 667 296 625 351.5 c 128,-1,66
 583 407 583 407 540 434 c 0,67,68
 518 448 518 448 501.5 451 c 128,-1,69
 485 454 485 454 435 454 c 0,70,71
 384 454 384 454 365 451 c 128,-1,72
 346 448 346 448 318 433 c 0,73,74
 278 413 278 413 227 362 c 128,-1,75
 176 311 176 311 155 271 c 0,76,77
 137 237 137 237 110 173 c 0,78,79
 94 135 94 135 89.5 114.5 c 128,-1,80
 85 94 85 94 85 52 c 2,81,-1
 85 -7 l 2,82,83
 85 -63 85 -63 133.5 -110.5 c 128,-1,84
 182 -158 182 -158 228 -158 c 0,85,86
 241 -158 241 -158 296.5 -151 c 128,-1,87
 352 -144 352 -144 382 -144 c 0,88,89
 435 -144 435 -144 435 -162 c 0,0,1
414 167 m 0,90,91
 414 180 414 180 431 194.5 c 128,-1,92
 448 209 448 209 448 217 c 0,93,94
 448 224 448 224 445 234 c 0,95,96
 440 249 440 249 435 253.5 c 128,-1,97
 430 258 430 258 417 258 c 2,98,-1
 416 258 l 2,99,100
 385 258 385 258 360 233 c 128,-1,101
 335 208 335 208 322 171.5 c 128,-1,102
 309 135 309 135 302.5 103.5 c 128,-1,103
 296 72 296 72 296 51 c 0,104,105
 296 39 296 39 301 32 c 128,-1,106
 306 25 306 25 310 24 c 2,107,-1
 315 23 l 2,108,109
 331 23 331 23 372.5 82 c 128,-1,110
 414 141 414 141 414 167 c 0,90,91
EndSplineSet
EndChar

StartChar: A
Encoding: 65 65 36
Width: 489
GlyphClass: 1
Flags: W
LayerCount: 2
Fore
SplineSet
284 289 m 0,0,1
 280 289 280 289 248.5 284.5 c 128,-1,2
 217 280 217 280 203 280 c 0,3,4
 193 280 193 280 185.5 258 c 128,-1,5
 178 236 178 236 164 189 c 128,-1,6
 150 142 150 142 133 105 c 0,7,8
 102 38 102 38 90.5 21.5 c 128,-1,9
 79 5 79 5 63 5 c 0,10,11
 33 5 33 5 33 23 c 128,-1,12
 33 41 33 41 58 82 c 0,13,14
 71 105 71 105 83 130.5 c 128,-1,15
 95 156 95 156 108 194.5 c 128,-1,16
 121 233 121 233 126.5 248.5 c 128,-1,17
 132 264 132 264 147 316 c 128,-1,18
 162 368 162 368 163 371 c 0,19,20
 176 414 176 414 188 450.5 c 128,-1,21
 200 487 200 487 204.5 500.5 c 128,-1,22
 209 514 209 514 213 534 c 128,-1,23
 217 554 217 554 220 584 c 0,24,25
 223 617 223 617 228 633 c 128,-1,26
 233 649 233 649 236.5 651.5 c 128,-1,27
 240 654 240 654 246 654 c 0,28,29
 260 654 260 654 270 639 c 0,30,31
 276 630 276 630 276 603 c 0,32,33
 276 596 276 596 274 564 c 2,34,-1
 274 556 l 2,35,36
 274 539 274 539 280.5 525.5 c 128,-1,37
 287 512 287 512 298.5 496 c 128,-1,38
 310 480 310 480 316 468 c 0,39,40
 336 426 336 426 370 315 c 0,41,42
 385 265 385 265 401 184 c 128,-1,43
 417 103 417 103 423 89 c 0,44,45
 454 8 454 8 454 -8 c 0,46,47
 454 -18 454 -18 444 -18 c 0,48,49
 429 -18 429 -18 419 -13 c 0,50,51
 410 -9 410 -9 392.5 42 c 128,-1,52
 375 93 375 93 361 152 c 0,53,54
 359 160 359 160 354.5 178 c 128,-1,55
 350 196 350 196 347.5 206 c 128,-1,56
 345 216 345 216 340 231 c 128,-1,57
 335 246 335 246 330.5 254.5 c 128,-1,58
 326 263 326 263 319 272 c 128,-1,59
 312 281 312 281 303.5 285 c 128,-1,60
 295 289 295 289 284 289 c 0,0,1
203 321 m 0,61,62
 206 321 206 321 209 322.5 c 128,-1,63
 212 324 212 324 216 326.5 c 128,-1,64
 220 329 220 329 235.5 330.5 c 128,-1,65
 251 332 251 332 277 332 c 0,66,67
 316 332 316 332 316 346 c 0,68,69
 316 349 316 349 313 355 c 128,-1,70
 310 361 310 361 303.5 376 c 128,-1,71
 297 391 297 391 291 411 c 0,72,73
 264 495 264 495 254 498 c 0,74,75
 248 498 248 498 243.5 478 c 128,-1,76
 239 458 239 458 232 422.5 c 128,-1,77
 225 387 225 387 216 363 c 0,78,79
 202 324 202 324 202 323 c 0,80,81
 202 321 202 321 203 321 c 0,61,62
EndSplineSet
EndChar

StartChar: B
Encoding: 66 66 37
Width: 445
GlyphClass: 1
Flags: W
LayerCount: 2
Fore
SplineSet
274 646 m 2,0,-1
 278 646 l 2,1,2
 301 646 301 646 331.5 631.5 c 128,-1,3
 362 617 362 617 372 601 c 0,4,5
 386 578 386 578 398 545.5 c 128,-1,6
 410 513 410 513 410 499 c 0,7,8
 410 479 410 479 373 437.5 c 128,-1,9
 336 396 336 396 295 370 c 0,10,11
 248 340 248 340 248 336 c 128,-1,12
 248 332 248 332 264 324.5 c 128,-1,13
 280 317 280 317 306 302 c 128,-1,14
 332 287 332 287 350 267 c 0,15,16
 376 240 376 240 376 223 c 0,17,18
 376 217 376 217 375 209 c 128,-1,19
 374 201 374 201 366.5 182 c 128,-1,20
 359 163 359 163 346.5 144.5 c 128,-1,21
 334 126 334 126 307.5 100.5 c 128,-1,22
 281 75 281 75 246 52 c 0,23,24
 218 34 218 34 190 32.5 c 128,-1,25
 162 31 162 31 145 23 c 0,26,27
 104 5 104 5 86 5 c 2,28,-1
 81 5 l 2,29,30
 77 5 77 5 71.5 5.5 c 128,-1,31
 66 6 66 6 63.5 6 c 128,-1,32
 61 6 61 6 57.5 7 c 128,-1,33
 54 8 54 8 53 10 c 128,-1,34
 52 12 52 12 50.5 16.5 c 128,-1,35
 49 21 49 21 49 27 c 0,36,37
 41 115 41 115 41 218 c 0,38,39
 41 419 41 419 66 628 c 1,40,41
 75 652 75 652 162 652 c 0,42,43
 184 652 184 652 210 650.5 c 128,-1,44
 236 649 236 649 253.5 647.5 c 128,-1,45
 271 646 271 646 274 646 c 2,0,-1
118 580 m 1,46,47
 114 545 114 545 108 499 c 128,-1,48
 102 453 102 453 98.5 425 c 128,-1,49
 95 397 95 397 95 389 c 2,50,-1
 97 354 l 1,51,-1
 141 355 l 2,52,53
 184 356 184 356 234 384 c 0,54,55
 362 455 362 455 362 513 c 0,56,57
 362 527 362 527 348.5 551.5 c 128,-1,58
 335 576 335 576 322 585 c 0,59,60
 309 593 309 593 214 593 c 0,61,62
 132 593 132 593 118 580 c 1,46,47
320 224 m 0,63,64
 309 241 309 241 234 273 c 128,-1,65
 159 305 159 305 113 305 c 0,66,67
 91 305 91 305 88 296 c 0,68,69
 85 288 85 288 85 239 c 0,70,71
 85 185 85 185 88.5 126.5 c 128,-1,72
 92 68 92 68 96 64 c 0,73,74
 103 59 103 59 124 71 c 0,75,76
 128 74 128 74 171 80.5 c 128,-1,77
 214 87 214 87 230 95 c 0,78,79
 271 115 271 115 284 128.5 c 128,-1,80
 297 142 297 142 319 181 c 0,81,82
 332 203 332 203 332 210 c 0,83,84
 332 213 332 213 330.5 214.5 c 128,-1,85
 329 216 329 216 325.5 218.5 c 128,-1,86
 322 221 322 221 320 224 c 0,63,64
EndSplineSet
EndChar

StartChar: C
Encoding: 67 67 38
Width: 443
GlyphClass: 1
Flags: W
LayerCount: 2
Fore
SplineSet
408 67 m 0,0,1
 408 60 408 60 378 40.5 c 128,-1,2
 348 21 348 21 302.5 3.5 c 128,-1,3
 257 -14 257 -14 224 -14 c 0,4,5
 176 -14 176 -14 139 20.5 c 128,-1,6
 102 55 102 55 68 129 c 0,7,8
 58 151 58 151 52.5 166 c 128,-1,9
 47 181 47 181 42 215.5 c 128,-1,10
 37 250 37 250 37 297 c 0,11,12
 37 412 37 412 72 499.5 c 128,-1,13
 107 587 107 587 165 615 c 0,14,15
 195 630 195 630 272 630 c 0,16,17
 372 630 372 630 388 601 c 0,18,19
 393 592 393 592 386 586 c 0,20,21
 374 576 374 576 335 576 c 0,22,23
 318 576 318 576 302 583 c 128,-1,24
 286 590 286 590 265 590 c 0,25,26
 221 590 221 590 178 564 c 128,-1,27
 135 538 135 538 119 496 c 0,28,29
 85 408 85 408 85 334 c 0,30,31
 85 320 85 320 87 278 c 0,32,33
 90 220 90 220 95 194.5 c 128,-1,34
 100 169 100 169 113 141 c 0,35,36
 168 27 168 27 243 27 c 0,37,38
 253 27 253 27 315.5 50 c 128,-1,39
 378 73 378 73 396 73 c 0,40,41
 408 73 408 73 408 67 c 0,0,1
EndSplineSet
EndChar

StartChar: D
Encoding: 68 68 39
Width: 506
GlyphClass: 1
Flags: W
LayerCount: 2
Fore
SplineSet
52 627 m 0,0,1
 52 631 52 631 62 629 c 0,2,3
 71 628 71 628 77.5 627 c 128,-1,4
 84 626 84 626 100.5 625 c 128,-1,5
 117 624 117 624 136 624 c 0,6,7
 140 624 140 624 146 624.5 c 128,-1,8
 152 625 152 625 156 625 c 2,9,-1
 170 625 l 2,10,11
 226 625 226 625 268.5 612.5 c 128,-1,12
 311 600 311 600 361 570 c 0,13,14
 401 546 401 546 422 518.5 c 128,-1,15
 443 491 443 491 459 442 c 0,16,17
 469 412 469 412 469 393 c 0,18,19
 469 381 469 381 464 353 c 0,20,21
 454 306 454 306 448.5 291.5 c 128,-1,22
 443 277 443 277 411 222 c 0,23,24
 407 214 407 214 398 199 c 128,-1,25
 389 184 389 184 386 179 c 128,-1,26
 383 174 383 174 376 162.5 c 128,-1,27
 369 151 369 151 363 145 c 128,-1,28
 357 139 357 139 346.5 128.5 c 128,-1,29
 336 118 336 118 323.5 107.5 c 128,-1,30
 311 97 311 97 294 83 c 0,31,32
 286 76 286 76 272 65 c 0,33,34
 229 31 229 31 216 27 c 0,35,36
 214 26 214 26 209 24 c 0,37,38
 200 21 200 21 194 19 c 0,39,40
 145 2 145 2 108 2 c 0,41,42
 62 2 62 2 52.5 12.5 c 128,-1,43
 43 23 43 23 41 74 c 2,44,-1
 41 101 l 2,45,46
 41 138 41 138 43 168 c 0,47,48
 45 187 45 187 52 627 c 0,0,1
266 573 m 0,49,50
 228 586 228 586 173 586 c 0,51,52
 142 586 142 586 122 580 c 0,53,54
 110 576 110 576 106 558.5 c 128,-1,55
 102 541 102 541 95 464 c 0,56,57
 86 356 86 356 86 282 c 0,58,59
 86 232 86 232 89 179 c 128,-1,60
 92 126 92 126 92 123 c 0,61,62
 92 72 92 72 97 57 c 0,63,64
 101 45 101 45 118 45 c 0,65,66
 162 45 162 45 222 76 c 0,67,68
 226 78 226 78 242 90 c 0,69,70
 248 94 248 94 257 102.5 c 128,-1,71
 266 111 266 111 283 129 c 128,-1,72
 300 147 300 147 311 158 c 0,73,74
 320 167 320 167 340.5 193.5 c 128,-1,75
 361 220 361 220 389 278 c 128,-1,76
 417 336 417 336 417 384 c 0,77,78
 417 426 417 426 401 467 c 0,79,80
 391 493 391 493 348.5 526.5 c 128,-1,81
 306 560 306 560 266 573 c 0,49,50
EndSplineSet
EndChar

StartChar: E
Encoding: 69 69 40
Width: 535
GlyphClass: 1
Flags: W
LayerCount: 2
Fore
SplineSet
467 590 m 1,0,-1
 464 590 l 2,1,2
 462 591 462 591 457 592 c 128,-1,3
 452 593 452 593 445 594.5 c 128,-1,4
 438 596 438 596 427.5 597.5 c 128,-1,5
 417 599 417 599 404.5 600 c 128,-1,6
 392 601 392 601 375 601.5 c 128,-1,7
 358 602 358 602 339 602 c 0,8,9
 326 602 326 602 191 593 c 0,10,11
 186 593 186 593 168.5 592.5 c 128,-1,12
 151 592 151 592 145.5 590.5 c 128,-1,13
 140 589 140 589 130 584 c 128,-1,14
 120 579 120 579 116.5 568.5 c 128,-1,15
 113 558 113 558 113 540 c 0,16,17
 113 514 113 514 110 452 c 128,-1,18
 107 390 107 390 107 369 c 0,19,20
 107 339 107 339 111 339 c 0,21,22
 113 339 113 339 127.5 340 c 128,-1,23
 142 341 142 341 151 341 c 0,24,25
 162 341 162 341 166.5 340 c 128,-1,26
 171 339 171 339 190 339 c 0,27,28
 199 339 199 339 233.5 339.5 c 128,-1,29
 268 340 268 340 293 340 c 2,30,-1
 347 340 l 2,31,32
 386 339 386 339 398 322 c 0,33,34
 410 307 410 307 402 301 c 0,35,36
 394 297 394 297 336 297 c 2,37,-1
 327 297 l 2,38,39
 233 297 233 297 182 298 c 1,40,-1
 106 293 l 1,41,-1
 99 233 l 2,42,43
 95 177 95 177 95 154 c 2,44,-1
 95 119 l 2,45,46
 95 108 95 108 96 95 c 2,47,-1
 98 57 l 1,48,-1
 147 60 l 1,49,-1
 154 60 l 2,50,51
 162 60 162 60 207.5 58 c 128,-1,52
 253 56 253 56 284 56 c 0,53,54
 290 56 290 56 300 56.5 c 128,-1,55
 310 57 310 57 316 57 c 0,56,57
 388 59 388 59 406 59 c 0,58,59
 498 59 498 59 498 39 c 0,60,61
 498 38 498 38 497.5 37 c 128,-1,62
 497 36 497 36 497 35 c 0,63,64
 494 24 494 24 466 20 c 128,-1,65
 438 16 438 16 397.5 15 c 128,-1,66
 357 14 357 14 343 11 c 0,67,68
 327 8 327 8 254 4 c 0,69,70
 235 3 235 3 201 -3 c 128,-1,71
 167 -9 167 -9 140 -11 c 0,72,73
 118 -13 118 -13 92.5 -19 c 128,-1,74
 67 -25 67 -25 62 -25 c 0,75,76
 51 -25 51 -25 47.5 -14.5 c 128,-1,77
 44 -4 44 -4 44 25 c 2,78,-1
 44 40 l 2,79,80
 45 56 45 56 46 81.5 c 128,-1,81
 47 107 47 107 48 139 c 128,-1,82
 49 171 49 171 49.5 211.5 c 128,-1,83
 50 252 50 252 50 290 c 0,84,85
 50 386 50 386 48 468 c 2,86,-1
 48 505 l 2,87,88
 48 626 48 626 68 629 c 0,89,90
 192 641 192 641 291 641 c 0,91,92
 408 641 408 641 439 625 c 0,93,94
 476 605 476 605 476 598 c 0,95,96
 476 594 476 594 469 590 c 1,97,-1
 467 590 l 1,0,-1
EndSplineSet
EndChar

StartChar: F
Encoding: 70 70 41
Width: 428
GlyphClass: 1
Flags: W
LayerCount: 2
Fore
SplineSet
55 383 m 0,0,1
 55 427 55 427 46 500.5 c 128,-1,2
 37 574 37 574 37 594 c 0,3,4
 37 612 37 612 43 614 c 0,5,6
 53 618 53 618 126 632 c 2,7,-1
 206 648 l 1,8,-1
 208 648 l 2,9,10
 210 649 210 649 212 649 c 0,11,12
 234 649 234 649 296 641.5 c 128,-1,13
 358 634 358 634 370 630 c 0,14,15
 387 623 387 623 387 610 c 0,16,17
 387 602 387 602 353 602 c 0,18,19
 349 602 349 602 265 604 c 2,20,-1
 250 604 l 2,21,22
 145 604 145 604 108 575 c 0,23,24
 95 565 95 565 95 533 c 0,25,26
 95 517 95 517 98.5 454.5 c 128,-1,27
 102 392 102 392 104 380 c 2,28,-1
 108 347 l 1,29,-1
 153 348 l 1,30,-1
 156 348 l 2,31,32
 175 348 175 348 362 337 c 0,33,34
 393 336 393 336 393 325 c 0,35,36
 393 317 393 317 379 313.5 c 128,-1,37
 365 310 365 310 315 306 c 0,38,39
 294 304 294 304 245 304 c 0,40,41
 212 304 212 304 180.5 307 c 128,-1,42
 149 310 149 310 130 312.5 c 128,-1,43
 111 315 111 315 108 315 c 0,44,45
 101 315 101 315 101 281 c 0,46,47
 101 254 101 254 103.5 210 c 128,-1,48
 106 166 106 166 106 151 c 0,49,50
 106 138 106 138 105.5 122.5 c 128,-1,51
 105 107 105 107 103.5 94.5 c 128,-1,52
 102 82 102 82 101 71.5 c 128,-1,53
 100 61 100 61 100 54 c 2,54,-1
 99 48 l 2,55,56
 99 34 99 34 101.5 27 c 128,-1,57
 104 20 104 20 104 19 c 0,58,59
 104 10 104 10 94.5 3 c 128,-1,60
 85 -4 85 -4 73 -4 c 0,61,62
 59 -4 59 -4 55 2 c 128,-1,63
 51 8 51 8 51 38 c 2,64,-1
 51 65 l 2,65,66
 51 314 51 314 54 360 c 0,67,68
 54 363 54 363 54.5 370.5 c 128,-1,69
 55 378 55 378 55 383 c 0,0,1
EndSplineSet
EndChar

StartChar: G
Encoding: 71 71 42
Width: 474
GlyphClass: 1
Flags: W
LayerCount: 2
Fore
SplineSet
380 367 m 0,0,1
 438 367 438 367 438 337 c 0,2,3
 438 327 438 327 428 298 c 0,4,5
 424 287 424 287 420 279.5 c 128,-1,6
 416 272 416 272 411 266 c 128,-1,7
 406 260 406 260 405 257 c 0,8,9
 403 252 403 252 392 207 c 128,-1,10
 381 162 381 162 367 123 c 128,-1,11
 353 84 353 84 314.5 47.5 c 128,-1,12
 276 11 276 11 220 6 c 0,13,14
 213 5 213 5 185.5 -1.5 c 128,-1,15
 158 -8 158 -8 144 -8 c 0,16,17
 93 -8 93 -8 71 48 c 128,-1,18
 49 104 49 104 42 211 c 0,19,20
 37 288 37 288 37 298 c 0,21,22
 37 393 37 393 95 532 c 0,23,24
 107 560 107 560 137.5 593 c 128,-1,25
 168 626 168 626 205 647 c 0,26,27
 216 653 216 653 240 653 c 0,28,29
 263 653 263 653 289 648.5 c 128,-1,30
 315 644 315 644 321 641 c 0,31,32
 361 613 361 613 361 592 c 0,33,34
 361 578 361 578 343 578 c 0,35,36
 322 578 322 578 299 591 c 0,37,38
 284 604 284 604 258 604 c 2,39,-1
 255 604 l 2,40,41
 249 604 249 604 241 601 c 128,-1,42
 233 598 233 598 228 595 c 2,43,-1
 222 592 l 2,44,45
 187 574 187 574 162 549.5 c 128,-1,46
 137 525 137 525 118 477 c 0,47,48
 83 391 83 391 83 304 c 0,49,50
 83 291 83 291 84 263 c 128,-1,51
 85 235 85 235 85 220 c 0,52,53
 85 104 85 104 102 73 c 0,54,55
 113 52 113 52 121.5 45 c 128,-1,56
 130 38 130 38 150 38 c 0,57,58
 160 38 160 38 181 45 c 128,-1,59
 202 52 202 52 210 53 c 0,60,61
 262 63 262 63 294.5 97 c 128,-1,62
 327 131 327 131 336.5 166 c 128,-1,63
 346 201 346 201 355.5 239.5 c 128,-1,64
 365 278 365 278 373 290 c 0,65,66
 377 296 377 296 381 298 c 1,67,68
 377 296 377 296 371 302 c 0,69,70
 370 303 370 303 368 305 c 128,-1,71
 366 307 366 307 365 307.5 c 128,-1,72
 364 308 364 308 362.5 309 c 128,-1,73
 361 310 361 310 359 310 c 128,-1,74
 357 310 357 310 354.5 311 c 128,-1,75
 352 312 352 312 348 312 c 128,-1,76
 344 312 344 312 339 312 c 128,-1,77
 334 312 334 312 327 312 c 2,78,-1
 272 312 l 2,79,80
 262 312 262 312 249 310.5 c 128,-1,81
 236 309 236 309 223 309 c 0,82,83
 209 309 209 309 200 313 c 128,-1,84
 191 317 191 317 188 321.5 c 128,-1,85
 185 326 185 326 185 329 c 0,86,87
 185 338 185 338 199 344 c 128,-1,88
 213 350 213 350 236 350 c 0,89,90
 262 350 262 350 308 358.5 c 128,-1,91
 354 367 354 367 380 367 c 0,0,1
EndSplineSet
EndChar

StartChar: H
Encoding: 72 72 43
Width: 500
GlyphClass: 1
Flags: W
LayerCount: 2
Fore
SplineSet
68 336 m 0,0,1
 68 530 68 530 60 603 c 1,2,-1
 60 613 l 2,3,4
 60 641 60 641 70 641 c 0,5,6
 86 641 86 641 98 599 c 0,7,8
 112 553 112 553 112 458 c 0,9,10
 112 382 112 382 113.5 364.5 c 128,-1,11
 115 347 115 347 123 347 c 0,12,13
 126 349 126 349 220 358 c 0,14,15
 350 370 350 370 372 406 c 0,16,17
 380 420 380 420 395.5 500.5 c 128,-1,18
 411 581 411 581 411 609 c 0,19,20
 411 641 411 641 434 641 c 0,21,22
 465 641 465 641 465 603 c 0,23,24
 465 583 465 583 442.5 487.5 c 128,-1,25
 420 392 420 392 411 322 c 0,26,27
 410 315 410 315 404.5 229.5 c 128,-1,28
 399 144 399 144 394 121 c 0,29,30
 392 109 392 109 389.5 100.5 c 128,-1,31
 387 92 387 92 386 88 c 128,-1,32
 385 84 385 84 384 81 c 128,-1,33
 383 78 383 78 382.5 76.5 c 128,-1,34
 382 75 382 75 382 74 c 0,35,36
 382 69 382 69 385.5 40 c 128,-1,37
 389 11 389 11 389 10 c 0,38,39
 389 -1 389 -1 375 -1 c 0,40,41
 362 -1 362 -1 350.5 12 c 128,-1,42
 339 25 339 25 339 48 c 0,43,44
 340 58 340 58 340 65 c 2,45,-1
 340 71 l 2,46,47
 340 80 340 80 351 138 c 128,-1,48
 362 196 362 196 362 261 c 0,49,50
 362 332 362 332 356 338 c 0,51,52
 353 341 353 341 348 341 c 0,53,54
 341 341 341 341 334 338 c 128,-1,55
 327 335 327 335 318.5 331 c 128,-1,56
 310 327 310 327 283.5 322.5 c 128,-1,57
 257 318 257 318 217 316 c 0,58,59
 142 312 142 312 120 306 c 0,60,61
 111 303 111 303 108 282.5 c 128,-1,62
 105 262 105 262 100.5 198.5 c 128,-1,63
 96 135 96 135 90 81 c 0,64,65
 79 -15 79 -15 59 -15 c 0,66,67
 58 -15 58 -15 56.5 -14.5 c 128,-1,68
 55 -14 55 -14 51 -12.5 c 128,-1,69
 47 -11 47 -11 43.5 -8.5 c 128,-1,70
 40 -6 40 -6 37.5 -1 c 128,-1,71
 35 4 35 4 35 10 c 0,72,73
 35 20 35 20 51.5 118.5 c 128,-1,74
 68 217 68 217 68 336 c 0,0,1
EndSplineSet
EndChar

StartChar: I
Encoding: 73 73 44
Width: 492
GlyphClass: 1
Flags: W
LayerCount: 2
Fore
SplineSet
169 640 m 2,0,1
 206 640 206 640 222 652 c 128,-1,2
 238 664 238 664 258 664 c 0,3,4
 270 664 270 664 283 656 c 128,-1,5
 296 648 296 648 339 648 c 0,6,7
 342 648 342 648 347 648.5 c 128,-1,8
 352 649 352 649 355 649 c 2,9,-1
 379 649 l 2,10,11
 419 649 419 649 437 635 c 0,12,13
 456 621 456 621 456 615 c 0,14,15
 456 605 456 605 415 605 c 0,16,17
 392 605 392 605 380 606 c 128,-1,18
 368 607 368 607 347 607 c 0,19,20
 304 607 304 607 294 600 c 0,21,22
 283 592 283 592 275 479.5 c 128,-1,23
 267 367 267 367 261.5 242.5 c 128,-1,24
 256 118 256 118 252 99 c 0,25,26
 246 63 246 63 246 60 c 0,27,28
 246 59 246 59 282 56 c 128,-1,29
 318 53 318 53 363 47 c 128,-1,30
 408 41 408 41 425 32 c 0,31,32
 455 16 455 16 456 14 c 0,33,34
 459 2 459 2 453 1 c 0,35,36
 452 1 452 1 449 0.5 c 128,-1,37
 446 0 446 0 441 0 c 128,-1,38
 436 0 436 0 431 0 c 2,39,-1
 271 3 l 2,40,41
 128 4 128 4 80.5 12 c 128,-1,42
 33 20 33 20 33 40 c 0,43,44
 33 54 33 54 40.5 57 c 128,-1,45
 48 60 48 60 67 60 c 2,46,-1
 72 60 l 2,47,48
 82 60 82 60 95 59 c 128,-1,49
 108 58 108 58 120 57 c 128,-1,50
 132 56 132 56 142.5 54.5 c 128,-1,51
 153 53 153 53 160 52 c 2,52,-1
 167 51 l 2,53,54
 190 51 190 51 199 98.5 c 128,-1,55
 208 146 208 146 212 231 c 0,56,57
 216 315 216 315 223 395 c 0,58,59
 230 482 230 482 230 571 c 0,60,61
 230 590 230 590 229 591 c 128,-1,62
 228 592 228 592 220 592 c 0,63,64
 208 592 208 592 177.5 588 c 128,-1,65
 147 584 147 584 130 584 c 0,66,67
 79 584 79 584 79 614 c 0,68,69
 79 631 79 631 89 635.5 c 128,-1,70
 99 640 99 640 136 640 c 2,71,-1
 169 640 l 2,0,1
EndSplineSet
EndChar

StartChar: J
Encoding: 74 74 45
Width: 404
GlyphClass: 1
Flags: W
LayerCount: 2
Fore
SplineSet
34 152 m 0,0,1
 34 169 34 169 45 185.5 c 128,-1,2
 56 202 56 202 67 202 c 0,3,4
 80 202 80 202 80 179 c 2,5,-1
 80 172 l 2,6,7
 80 170 80 170 79.5 166 c 128,-1,8
 79 162 79 162 79 160 c 0,9,10
 79 120 79 120 126.5 92.5 c 128,-1,11
 174 65 174 65 201 65 c 0,12,13
 217 65 217 65 227 75 c 0,14,15
 269 119 269 119 294.5 237.5 c 128,-1,16
 320 356 320 356 321 517 c 0,17,18
 322 559 322 559 322.5 580 c 128,-1,19
 323 601 323 601 325 611.5 c 128,-1,20
 327 622 327 622 328.5 623.5 c 128,-1,21
 330 625 330 625 335 625 c 0,22,23
 343 625 343 625 354 614 c 0,24,25
 363 605 363 605 363 526 c 0,26,27
 363 519 363 519 362.5 502 c 128,-1,28
 362 485 362 485 362 474 c 0,29,30
 357 150 357 150 257 45 c 0,31,32
 240 28 240 28 229 22.5 c 128,-1,33
 218 17 218 17 200 17 c 0,34,35
 140 17 140 17 87 61.5 c 128,-1,36
 34 106 34 106 34 152 c 0,0,1
EndSplineSet
EndChar

StartChar: K
Encoding: 75 75 46
Width: 452
GlyphClass: 1
Flags: W
LayerCount: 2
Fore
SplineSet
112 571 m 2,0,-1
 112 557 l 2,1,2
 111 543 111 543 110.5 521 c 128,-1,3
 110 499 110 499 109.5 474.5 c 128,-1,4
 109 450 109 450 108.5 424.5 c 128,-1,5
 108 399 108 399 108 382 c 0,6,7
 108 341 108 341 109 341 c 0,8,9
 112 341 112 341 122.5 351 c 128,-1,10
 133 361 133 361 153 379 c 128,-1,11
 173 397 173 397 192 411 c 0,12,13
 255 456 255 456 276 478 c 128,-1,14
 297 500 297 500 330 555 c 0,15,16
 360 605 360 605 373 623 c 128,-1,17
 386 641 386 641 397 641 c 0,18,19
 418 641 418 641 418 622 c 0,20,21
 418 605 418 605 401 580 c 0,22,23
 385 557 385 557 356 507 c 0,24,25
 333 465 333 465 256 398 c 2,26,-1
 181 332 l 1,27,-1
 195 311 l 2,28,29
 198 306 198 306 214.5 251.5 c 128,-1,30
 231 197 231 197 236 188 c 0,31,32
 250 165 250 165 285 124.5 c 128,-1,33
 320 84 320 84 346.5 51.5 c 128,-1,34
 373 19 373 19 373 7 c 128,-1,35
 373 -5 373 -5 364 -5 c 0,36,37
 351 -5 351 -5 317 27 c 0,38,39
 214 126 214 126 190 174 c 0,40,41
 188 178 188 178 179.5 209 c 128,-1,42
 171 240 171 240 158 262.5 c 128,-1,43
 145 285 145 285 124 292 c 1,44,-1
 123 292 l 2,45,46
 113 292 113 292 105.5 249.5 c 128,-1,47
 98 207 98 207 90 135.5 c 128,-1,48
 82 64 82 64 76 32 c 0,49,50
 69 -4 69 -4 63 -4 c 0,51,52
 62 -4 62 -4 58 -3.5 c 128,-1,53
 54 -3 54 -3 51 -3 c 0,54,55
 41 -3 41 -3 38 -1 c 128,-1,56
 35 1 35 1 35 9 c 0,57,58
 35 23 35 23 39.5 50.5 c 128,-1,59
 44 78 44 78 50.5 109.5 c 128,-1,60
 57 141 57 141 59 151 c 0,61,62
 64 187 64 187 64 251 c 0,63,64
 64 269 64 269 63.5 333 c 128,-1,65
 63 397 63 397 63 446 c 0,66,67
 63 641 63 641 81 641 c 0,68,69
 91 641 91 641 104 622 c 0,70,71
 112 611 112 611 112 571 c 2,0,-1
EndSplineSet
EndChar

StartChar: L
Encoding: 76 76 47
Width: 455
GlyphClass: 1
Flags: W
LayerCount: 2
Fore
SplineSet
205 6 m 0,0,1
 159 6 159 6 130 4 c 128,-1,2
 101 2 101 2 92.5 -1 c 128,-1,3
 84 -4 84 -4 77.5 -6 c 128,-1,4
 71 -8 71 -8 66 -8 c 2,5,-1
 63 -8 l 2,6,7
 51 -6 51 -6 48 1 c 128,-1,8
 45 8 45 8 45 41 c 0,9,10
 45 47 45 47 45.5 64.5 c 128,-1,11
 46 82 46 82 46 95 c 0,12,13
 47 124 47 124 47.5 255 c 128,-1,14
 48 386 48 386 48 434 c 0,15,16
 50 620 50 620 63 628 c 0,17,18
 74 634 74 634 79 634 c 0,19,20
 86 634 86 634 95 624 c 0,21,22
 101 616 101 616 101 482 c 0,23,24
 101 210 101 210 88 158 c 0,25,26
 81 131 81 131 81 93 c 0,27,28
 81 58 81 58 88 55 c 2,29,-1
 90 54 l 2,30,31
 91 54 91 54 93 54 c 0,32,33
 97 54 97 54 119 55.5 c 128,-1,34
 141 57 141 57 155 57 c 2,35,-1
 170 57 l 2,36,37
 418 57 418 57 418 15 c 0,38,39
 418 0 418 0 389 0 c 2,40,-1
 380 0 l 1,41,42
 308 6 308 6 205 6 c 0,0,1
EndSplineSet
EndChar

StartChar: M
Encoding: 77 77 48
Width: 550
GlyphClass: 1
Flags: W
LayerCount: 2
Fore
SplineSet
58 607 m 0,0,1
 58 613 58 613 69.5 627 c 128,-1,2
 81 641 81 641 86 641 c 128,-1,3
 91 641 91 641 98 629 c 0,4,5
 114 599 114 599 149 501 c 128,-1,6
 184 403 184 403 217 285 c 0,7,8
 237 213 237 213 243 197 c 128,-1,9
 249 181 249 181 254 181 c 2,10,-1
 255 181 l 2,11,12
 263 181 263 181 282 230 c 0,13,14
 285 236 285 236 338 355 c 128,-1,15
 391 474 391 474 407 529 c 0,16,17
 416 559 416 559 420.5 573.5 c 128,-1,18
 425 588 425 588 432 607 c 128,-1,19
 439 626 439 626 445.5 633.5 c 128,-1,20
 452 641 452 641 459 641 c 0,21,22
 470 641 470 641 472.5 616.5 c 128,-1,23
 475 592 475 592 475 517 c 0,24,25
 476 366 476 366 491.5 208.5 c 128,-1,26
 507 51 507 51 507 24 c 0,27,28
 507 -9 507 -9 498 -9 c 0,29,30
 493 -9 493 -9 478 6 c 0,31,32
 467 17 467 17 462.5 48 c 128,-1,33
 458 79 458 79 449 195 c 0,34,35
 436 366 436 366 431 404 c 2,36,-1
 426 441 l 1,37,-1
 411 419 l 2,38,39
 392 391 392 391 338 258 c 0,40,41
 305 177 305 177 287.5 146 c 128,-1,42
 270 115 270 115 257 115 c 0,43,44
 243 115 243 115 224 146.5 c 128,-1,45
 205 178 205 178 193 219 c 0,46,47
 189 232 189 232 169 319.5 c 128,-1,48
 149 407 149 407 142 430 c 0,49,50
 112 529 112 529 100 529 c 0,51,52
 96 529 96 529 96 509 c 0,53,54
 96 506 96 506 102 425 c 128,-1,55
 108 344 108 344 108 302 c 0,56,57
 108 288 108 288 105 266 c 128,-1,58
 102 244 102 244 102 229 c 2,59,-1
 102 217 l 2,60,61
 102 205 102 205 100 179 c 128,-1,62
 98 153 98 153 95.5 124.5 c 128,-1,63
 93 96 93 96 90.5 70 c 128,-1,64
 88 44 88 44 86 26 c 2,65,-1
 84 8 l 2,66,67
 83 -3 83 -3 76 -10 c 128,-1,68
 69 -17 69 -17 61 -17 c 0,69,70
 36 -17 36 -17 36 49 c 0,71,72
 36 76 36 76 42 92 c 0,73,74
 52 116 52 116 59 245.5 c 128,-1,75
 66 375 66 375 66 489 c 0,76,77
 66 584 66 584 61 597 c 0,78,79
 58 603 58 603 58 607 c 0,0,1
EndSplineSet
EndChar

StartChar: N
Encoding: 78 78 49
Width: 472
GlyphClass: 1
Flags: W
LayerCount: 2
Fore
SplineSet
40 133 m 0,0,1
 40 174 40 174 48 345 c 128,-1,2
 56 516 56 516 56 588 c 2,3,-1
 56 604 l 2,4,5
 56 641 56 641 86 641 c 2,6,-1
 87 641 l 2,7,8
 100 641 100 641 132 602 c 0,9,10
 136 597 136 597 138 594 c 0,11,12
 163 563 163 563 244 375 c 128,-1,13
 325 187 325 187 334 155 c 0,14,15
 346 108 346 108 364 108 c 0,16,17
 383 108 383 108 391.5 239.5 c 128,-1,18
 400 371 400 371 400.5 504.5 c 128,-1,19
 401 638 401 638 402 639 c 0,20,21
 405 641 405 641 413 641 c 128,-1,22
 421 641 421 641 422 638 c 0,23,24
 426 620 426 620 426 482 c 0,25,26
 426 233 426 233 410 164 c 0,27,28
 406 149 406 149 406 131 c 0,29,30
 406 119 406 119 408 98 c 128,-1,31
 410 77 410 77 410 70 c 0,32,33
 410 54 410 54 401.5 33 c 128,-1,34
 393 12 393 12 378 12 c 0,35,36
 355 12 355 12 332 62 c 0,37,38
 317 96 317 96 274.5 203 c 128,-1,39
 232 310 232 310 195.5 400 c 128,-1,40
 159 490 159 490 147 508 c 0,41,42
 118 552 118 552 103 552 c 0,43,44
 94 552 94 552 94 530 c 2,45,-1
 94 524 l 2,46,47
 95 501 95 501 95 439 c 0,48,49
 95 304 95 304 88 245 c 0,50,51
 82 194 82 194 82 146 c 0,52,53
 82 97 82 97 88.5 64 c 128,-1,54
 95 31 95 31 95 26 c 0,55,56
 95 -4 95 -4 67 -4 c 2,57,-1
 62 -4 l 2,58,59
 45 -3 45 -3 46 14 c 0,60,61
 47 21 47 21 45.5 29.5 c 128,-1,62
 44 38 44 38 42 64.5 c 128,-1,63
 40 91 40 91 40 133 c 0,0,1
EndSplineSet
EndChar

StartChar: O
Encoding: 79 79 50
Width: 586
GlyphClass: 1
Flags: W
LayerCount: 2
Fore
SplineSet
257 609 m 0,0,1
 296 627 296 627 326 627 c 0,2,3
 367 627 367 627 414 601 c 0,4,5
 462 574 462 574 481.5 552.5 c 128,-1,6
 501 531 501 531 520 485 c 0,7,8
 547 420 547 420 547 376 c 0,9,10
 547 350 547 350 537 296 c 128,-1,11
 527 242 527 242 526 219 c 0,12,13
 524 182 524 182 515 165 c 0,14,15
 505 145 505 145 450 92.5 c 128,-1,16
 395 40 395 40 367 23 c 0,17,18
 323 -2 323 -2 290 -2 c 0,19,20
 267 -2 267 -2 240 2 c 0,21,22
 178 10 178 10 141 35 c 128,-1,23
 104 60 104 60 74 114 c 0,24,25
 37 182 37 182 37 267 c 0,26,27
 37 317 37 317 47 377 c 0,28,29
 62 464 62 464 161 540 c 0,30,31
 169 546 169 546 180 554 c 128,-1,32
 191 562 191 562 198 567 c 0,33,34
 203 571 203 571 215.5 581 c 128,-1,35
 228 591 228 591 237 597.5 c 128,-1,36
 246 604 246 604 257 609 c 0,0,1
199 515 m 0,37,38
 133 446 133 446 109.5 397.5 c 128,-1,39
 86 349 86 349 86 249 c 0,40,41
 86 207 86 207 107 155 c 0,42,43
 123 115 123 115 132.5 101 c 128,-1,44
 142 87 142 87 165 70 c 0,45,46
 214 34 214 34 274 34 c 0,47,48
 289 34 289 34 301 37 c 0,49,50
 324 43 324 43 361 71 c 128,-1,51
 398 99 398 99 433 136 c 0,52,53
 459 164 459 164 467 183.5 c 128,-1,54
 475 203 475 203 487 264 c 0,55,56
 505 360 505 360 505 386 c 0,57,58
 505 409 505 409 491 456 c 0,59,60
 481 491 481 491 463.5 516.5 c 128,-1,61
 446 542 446 542 430 554 c 128,-1,62
 414 566 414 566 396 573 c 128,-1,63
 378 580 378 580 370.5 581 c 128,-1,64
 363 582 363 582 357 582 c 0,65,66
 322 582 322 582 271.5 560 c 128,-1,67
 221 538 221 538 199 515 c 0,37,38
EndSplineSet
EndChar

StartChar: P
Encoding: 80 80 51
Width: 476
GlyphClass: 1
Flags: W
LayerCount: 2
Fore
SplineSet
42 43 m 0,0,1
 42 68 42 68 50 128 c 128,-1,2
 58 188 58 188 58 253 c 0,3,4
 58 287 58 287 51 362 c 128,-1,5
 44 437 44 437 45 474 c 2,6,-1
 47 626 l 2,7,8
 47 650 47 650 151 650 c 0,9,10
 209 650 209 650 250 640 c 0,11,12
 283 632 283 632 323.5 611.5 c 128,-1,13
 364 591 364 591 401.5 551 c 128,-1,14
 439 511 439 511 439 466 c 0,15,16
 439 389 439 389 331 310 c 0,17,18
 301 288 301 288 234 268.5 c 128,-1,19
 167 249 167 249 138 249 c 0,20,21
 120 249 120 249 113.5 246 c 128,-1,22
 107 243 107 243 105 233 c 0,23,24
 99 208 99 208 97 152 c 128,-1,25
 95 96 95 96 92.5 54 c 128,-1,26
 90 12 90 12 81 7 c 0,27,28
 70 1 70 1 66 1 c 0,29,30
 65 1 65 1 63.5 1.5 c 128,-1,31
 62 2 62 2 58 5 c 128,-1,32
 54 8 54 8 50.5 12 c 128,-1,33
 47 16 47 16 44.5 24 c 128,-1,34
 42 32 42 32 42 43 c 0,0,1
343 547 m 0,35,36
 322 564 322 564 256.5 579 c 128,-1,37
 191 594 191 594 142 594 c 2,38,-1
 118 594 l 2,39,40
 95 594 95 594 94 576 c 2,41,-1
 94 554 l 2,42,43
 94 514 94 514 98.5 454.5 c 128,-1,44
 103 395 103 395 108 354 c 128,-1,45
 113 313 113 313 114 310 c 0,46,47
 121 294 121 294 125 294 c 0,48,49
 126 294 126 294 134.5 296.5 c 128,-1,50
 143 299 143 299 152 300 c 0,51,52
 188 303 188 303 247.5 326 c 128,-1,53
 307 349 307 349 328 368 c 0,54,55
 386 419 386 419 386 457 c 0,56,57
 386 476 386 476 372 505.5 c 128,-1,58
 358 535 358 535 343 547 c 0,35,36
EndSplineSet
EndChar

StartChar: Q
Encoding: 81 81 52
Width: 599
GlyphClass: 1
Flags: W
LayerCount: 2
Fore
SplineSet
96 449 m 0,0,1
 144 545 144 545 212.5 598.5 c 128,-1,2
 281 652 281 652 334 652 c 0,3,4
 360 652 360 652 384 641.5 c 128,-1,5
 408 631 408 631 421.5 621 c 128,-1,6
 435 611 435 611 460 588 c 0,7,8
 560 500 560 500 560 375 c 0,9,10
 560 289 560 289 523 207.5 c 128,-1,11
 486 126 486 126 452 97 c 2,12,-1
 421 70 l 1,13,-1
 448 22 l 2,14,15
 470 -16 470 -16 482 -55.5 c 128,-1,16
 494 -95 494 -95 499 -105 c 0,17,18
 510 -127 510 -127 510 -156 c 0,19,20
 510 -173 510 -173 508 -178.5 c 128,-1,21
 506 -184 506 -184 498 -184 c 0,22,23
 497 -184 497 -184 494 -183.5 c 128,-1,24
 491 -183 491 -183 489 -183 c 0,25,26
 476 -182 476 -182 469.5 -172 c 128,-1,27
 463 -162 463 -162 452 -128 c 0,28,29
 435 -72 435 -72 414.5 -22.5 c 128,-1,30
 394 27 394 27 385 35 c 0,31,32
 380 38 380 38 376 38 c 128,-1,33
 372 38 372 38 351 26 c 128,-1,34
 330 14 330 14 285 -2.5 c 128,-1,35
 240 -19 240 -19 183 -28 c 0,36,37
 179 -29 179 -29 170 -29 c 0,38,39
 110 -29 110 -29 67 58 c 0,40,41
 48 95 48 95 43.5 117 c 128,-1,42
 39 139 39 139 37 203 c 0,43,44
 37 210 37 210 36.5 222 c 128,-1,45
 36 234 36 234 36 239 c 0,46,47
 36 296 36 296 47.5 335 c 128,-1,48
 59 374 59 374 96 449 c 0,0,1
85 176 m 0,49,50
 85 113 85 113 120 66.5 c 128,-1,51
 155 20 155 20 180 20 c 2,52,-1
 189 20 l 2,53,54
 237 20 237 20 291 45 c 0,55,56
 293 46 293 46 305.5 51 c 128,-1,57
 318 56 318 56 322.5 58.5 c 128,-1,58
 327 61 327 61 335 66.5 c 128,-1,59
 343 72 343 72 346.5 79 c 128,-1,60
 350 86 350 86 350 95 c 0,61,62
 350 112 350 112 327.5 147 c 128,-1,63
 305 182 305 182 305 204 c 0,64,65
 305 230 305 230 323 230 c 0,66,67
 337 230 337 230 351 214.5 c 128,-1,68
 365 199 365 199 365 184 c 0,69,70
 365 171 365 171 380.5 143.5 c 128,-1,71
 396 116 396 116 404 116 c 0,72,73
 414 116 414 116 440 147.5 c 128,-1,74
 466 179 466 179 481 209 c 0,75,76
 518 283 518 283 518 388 c 0,77,78
 518 440 518 440 504 473 c 0,79,80
 499 484 499 484 452 539 c 0,81,82
 420 576 420 576 404.5 585.5 c 128,-1,83
 389 595 389 595 350 595 c 2,84,-1
 343 595 l 2,85,86
 332 595 332 595 323.5 594.5 c 128,-1,87
 315 594 315 594 306.5 592 c 128,-1,88
 298 590 298 590 293.5 589 c 128,-1,89
 289 588 289 588 281.5 583.5 c 128,-1,90
 274 579 274 579 272 578.5 c 128,-1,91
 270 578 270 578 261.5 572.5 c 128,-1,92
 253 567 253 567 252 566 c 0,93,94
 159 506 159 506 103 348 c 0,95,96
 102 345 102 345 98 326.5 c 128,-1,97
 94 308 94 308 89.5 265 c 128,-1,98
 85 222 85 222 85 176 c 0,49,50
EndSplineSet
EndChar

StartChar: R
Encoding: 82 82 53
Width: 430
GlyphClass: 1
Flags: W
LayerCount: 2
Fore
SplineSet
103 597 m 0,0,1
 124 597 124 597 156.5 610.5 c 128,-1,2
 189 624 189 624 223 624 c 0,3,4
 393 624 393 624 393 544 c 0,5,6
 393 501 393 501 343 414.5 c 128,-1,7
 293 328 293 328 250 304 c 0,8,9
 226 291 226 291 226 284 c 0,10,11
 226 268 226 268 295 166 c 0,12,13
 302 155 302 155 315 138.5 c 128,-1,14
 328 122 328 122 337.5 108 c 128,-1,15
 347 94 347 94 354 79 c 0,16,17
 363 59 363 59 371 45.5 c 128,-1,18
 379 32 379 32 383 28 c 128,-1,19
 387 24 387 24 389 19.5 c 128,-1,20
 391 15 391 15 391 7 c 0,21,22
 391 -10 391 -10 379 -13 c 128,-1,23
 367 -16 367 -16 353 -6 c 0,24,25
 341 2 341 2 308 48 c 0,26,27
 293 70 293 70 245 133.5 c 128,-1,28
 197 197 197 197 190 210 c 0,29,30
 152 280 152 280 131 280 c 0,31,32
 130 280 130 280 128 280 c 2,33,-1
 126 279 l 2,34,35
 119 277 119 277 113.5 248 c 128,-1,36
 108 219 108 219 108 181 c 128,-1,37
 108 143 108 143 118 89.5 c 128,-1,38
 128 36 128 36 128 22 c 0,39,40
 128 9 128 9 117 6 c 2,41,-1
 112 6 l 2,42,43
 97 6 97 6 83 17 c 0,44,45
 69 27 69 27 64.5 50 c 128,-1,46
 60 73 60 73 52 167 c 0,47,48
 49 203 49 203 49 238 c 0,49,50
 49 253 49 253 49.5 279 c 128,-1,51
 50 305 50 305 50 315 c 0,52,53
 50 348 50 348 44.5 380 c 128,-1,54
 39 412 39 412 39 436 c 0,55,56
 39 456 39 456 45 515 c 0,57,58
 52 589 52 589 59 597 c 0,59,60
 63 601 63 601 71 601 c 0,61,62
 74 601 74 601 82 599 c 128,-1,63
 90 597 90 597 103 597 c 0,0,1
314 566 m 0,64,65
 294 575 294 575 253 575 c 0,66,67
 214 575 214 575 190 568.5 c 128,-1,68
 166 562 166 562 158 552.5 c 128,-1,69
 150 543 150 543 146.5 533.5 c 128,-1,70
 143 524 143 524 137.5 517.5 c 128,-1,71
 132 511 132 511 120 511 c 0,72,73
 109 511 109 511 106 504.5 c 128,-1,74
 103 498 103 498 103 471 c 2,75,-1
 103 460 l 2,76,77
 103 408 103 408 110 376 c 2,78,-1
 116 343 l 1,79,-1
 164 344 l 2,80,81
 198 345 198 345 210.5 350.5 c 128,-1,82
 223 356 223 356 249 383 c 0,83,84
 281 415 281 415 309.5 464 c 128,-1,85
 338 513 338 513 338 535 c 0,86,87
 338 554 338 554 314 566 c 0,64,65
EndSplineSet
EndChar

StartChar: S
Encoding: 83 83 54
Width: 448
GlyphClass: 1
Flags: W
LayerCount: 2
Fore
SplineSet
61 66 m 0,0,1
 75 66 75 66 112.5 56.5 c 128,-1,2
 150 47 150 47 169 47 c 0,3,4
 187 47 187 47 202 52 c 0,5,6
 215 56 215 56 228.5 64 c 128,-1,7
 242 72 242 72 250.5 79 c 128,-1,8
 259 86 259 86 275.5 100 c 128,-1,9
 292 114 292 114 299 120 c 0,10,11
 329 145 329 145 336.5 157.5 c 128,-1,12
 344 170 344 170 344 195 c 0,13,14
 344 226 344 226 327.5 247 c 128,-1,15
 311 268 311 268 231 339 c 0,16,17
 156 406 156 406 132.5 447 c 128,-1,18
 109 488 109 488 109 521 c 0,19,20
 109 547 109 547 124.5 568.5 c 128,-1,21
 140 590 140 590 176 614 c 0,22,23
 203 632 203 632 215.5 637 c 128,-1,24
 228 642 228 642 249 642 c 0,25,26
 267 642 267 642 280 641 c 0,27,28
 337 638 337 638 372 621 c 128,-1,29
 407 604 407 604 407 579 c 0,30,31
 407 551 407 551 390 551 c 0,32,33
 378 551 378 551 361 567 c 0,34,35
 334 594 334 594 254 594 c 0,36,37
 224 594 224 594 197 573 c 0,38,39
 165 549 165 549 165 527 c 0,40,41
 165 503 165 503 195.5 462.5 c 128,-1,42
 226 422 226 422 248.5 400 c 128,-1,43
 271 378 271 378 291 360 c 0,44,45
 359 300 359 300 382.5 265.5 c 128,-1,46
 406 231 406 231 406 194 c 0,47,48
 406 156 406 156 388 129 c 128,-1,49
 370 102 370 102 328 78 c 0,50,51
 272 46 272 46 259 38 c 0,52,53
 257 37 257 37 244 26.5 c 128,-1,54
 231 16 231 16 217.5 9 c 128,-1,55
 204 2 204 2 189 0 c 0,56,57
 184 -1 184 -1 172 -1 c 0,58,59
 149 -1 149 -1 107 8.5 c 128,-1,60
 65 18 65 18 64 18 c 0,61,62
 33 23 33 23 33 41 c 0,63,64
 33 66 33 66 61 66 c 0,0,1
EndSplineSet
EndChar

StartChar: T
Encoding: 84 84 55
Width: 645
GlyphClass: 1
Flags: W
LayerCount: 2
Fore
SplineSet
251 596 m 2,0,1
 229 596 229 596 202.5 595 c 128,-1,2
 176 594 176 594 154 592 c 128,-1,3
 132 590 132 590 113 588.5 c 128,-1,4
 94 587 94 587 82 586 c 2,5,-1
 71 585 l 2,6,7
 34 585 34 585 34 608 c 0,8,9
 34 624 34 624 41 629 c 128,-1,10
 48 634 48 634 70 638 c 0,11,12
 85 641 85 641 316 641 c 2,13,-1
 364 641 l 2,14,15
 511 639 511 639 554 634 c 128,-1,16
 597 629 597 629 607 611 c 0,17,18
 611 603 611 603 611 601 c 0,19,20
 611 597 611 597 599 597 c 2,21,-1
 596 597 l 2,22,23
 594 597 594 597 588.5 597.5 c 128,-1,24
 583 598 583 598 575.5 598 c 128,-1,25
 568 598 568 598 556 598.5 c 128,-1,26
 544 599 544 599 530.5 599.5 c 128,-1,27
 517 600 517 600 497.5 600 c 128,-1,28
 478 600 478 600 457 600 c 0,29,30
 337 600 337 600 331 595 c 0,31,32
 327 592 327 592 325.5 307 c 128,-1,33
 324 22 324 22 312 11 c 0,34,35
 306 5 306 5 298 5 c 0,36,37
 281 5 281 5 275 26 c 0,38,39
 272 35 272 35 272 178 c 0,40,41
 272 196 272 196 272.5 240 c 128,-1,42
 273 284 273 284 273 309 c 2,43,-1
 275 595 l 1,44,-1
 255 596 l 1,45,-1
 251 596 l 2,0,1
EndSplineSet
EndChar

StartChar: U
Encoding: 85 85 56
Width: 508
GlyphClass: 1
Flags: W
LayerCount: 2
Fore
SplineSet
274 51 m 0,0,1
 349 109 349 109 374 283 c 0,2,3
 375 289 375 289 375 292 c 0,4,5
 402 484 402 484 407 538 c 0,6,7
 414 641 414 641 445 641 c 0,8,9
 458 641 458 641 469 620 c 0,10,11
 472 615 472 615 472 591 c 0,12,13
 472 577 472 577 460.5 528.5 c 128,-1,14
 449 480 449 480 439 396 c 0,15,16
 425 283 425 283 398 186 c 0,17,18
 398 177 398 177 370 94 c 0,19,20
 337 -4 337 -4 222 -4 c 0,21,22
 145 -4 145 -4 113 42.5 c 128,-1,23
 81 89 81 89 57 207 c 0,24,25
 41 283 41 283 41 396 c 0,26,27
 41 397 41 397 40.5 407.5 c 128,-1,28
 40 418 40 418 39.5 434 c 128,-1,29
 39 450 39 450 39 466 c 0,30,31
 39 586 39 586 69 624 c 0,32,33
 83 641 83 641 93 641 c 0,34,35
 105 641 105 641 110.5 636 c 128,-1,36
 116 631 116 631 116 616 c 0,37,38
 116 614 116 614 110 577 c 0,39,40
 107 560 107 560 105.5 543 c 128,-1,41
 104 526 104 526 103.5 512 c 128,-1,42
 103 498 103 498 101.5 456 c 128,-1,43
 100 414 100 414 98 375 c 0,44,45
 98 372 98 372 97.5 366 c 128,-1,46
 97 360 97 360 97 356 c 0,47,48
 97 294 97 294 109 214.5 c 128,-1,49
 121 135 121 135 136 100 c 0,50,51
 144 80 144 80 174 59 c 128,-1,52
 204 38 204 38 234 38 c 0,53,54
 258 38 258 38 274 51 c 0,0,1
EndSplineSet
EndChar

StartChar: V
Encoding: 86 86 57
Width: 542
GlyphClass: 1
Flags: W
LayerCount: 2
Fore
SplineSet
427 536 m 0,0,1
 458 613 458 613 470 633 c 128,-1,2
 482 653 482 653 494 653 c 0,3,4
 502 653 502 653 506.5 645 c 128,-1,5
 511 637 511 637 504 625 c 0,6,7
 495 612 495 612 460 515 c 1,8,9
 443 481 443 481 387 330 c 0,10,11
 340 204 340 204 282 57 c 0,12,13
 263 9 263 9 254 -3 c 128,-1,14
 245 -15 245 -15 229 -15 c 0,15,16
 210 -15 210 -15 203 9 c 0,17,18
 185 65 185 65 161.5 158 c 128,-1,19
 138 251 138 251 130 279 c 0,20,21
 119 319 119 319 110 367 c 0,22,23
 107 383 107 383 94.5 412 c 128,-1,24
 82 441 82 441 80 451 c 0,25,26
 72 487 72 487 59.5 523.5 c 128,-1,27
 47 560 47 560 40 581 c 128,-1,28
 33 602 33 602 33 612 c 0,29,30
 33 637 33 637 55 639 c 2,31,-1
 57 639 l 2,32,33
 87 639 87 639 125.5 534 c 128,-1,34
 164 429 164 429 167 355 c 0,35,36
 168 329 168 329 183.5 282.5 c 128,-1,37
 199 236 199 236 211 170 c 0,38,39
 213 157 213 157 217 135 c 0,40,41
 229 64 229 64 235 64 c 0,42,43
 240 64 240 64 259 120 c 0,44,45
 259 121 259 121 427 536 c 0,0,1
EndSplineSet
EndChar

StartChar: W
Encoding: 87 87 58
Width: 645
GlyphClass: 1
Flags: W
LayerCount: 2
Fore
SplineSet
552 580 m 0,0,1
 552 595 552 595 564 611.5 c 128,-1,2
 576 628 576 628 590 628 c 2,3,-1
 591 628 l 2,4,5
 592 627 592 627 593 627 c 0,6,7
 603 625 603 625 606 620.5 c 128,-1,8
 609 616 609 616 609 600 c 2,9,-1
 609 588 l 2,10,11
 608 573 608 573 607 566 c 128,-1,12
 606 559 606 559 603 548.5 c 128,-1,13
 600 538 600 538 589 515 c 128,-1,14
 578 492 578 492 565 464 c 128,-1,15
 552 436 552 436 523.5 373.5 c 128,-1,16
 495 311 495 311 463 240 c 0,17,18
 409 119 409 119 403 90 c 128,-1,19
 397 61 397 61 384.5 44.5 c 128,-1,20
 372 28 372 28 357 28 c 0,21,22
 344 28 344 28 332 41 c 0,23,24
 321 54 321 54 314.5 154 c 128,-1,25
 308 254 308 254 304.5 346.5 c 128,-1,26
 301 439 301 439 297 439 c 0,27,28
 292 439 292 439 282.5 405.5 c 128,-1,29
 273 372 273 372 256 313 c 128,-1,30
 239 254 239 254 223 214 c 0,31,32
 177 94 177 94 177 66 c 0,33,34
 177 44 177 44 168.5 28 c 128,-1,35
 160 12 160 12 148 12 c 0,36,37
 129 12 129 12 109 74 c 128,-1,38
 89 136 89 136 74 244 c 0,39,40
 58 365 58 365 49 421 c 0,41,42
 36 509 36 509 36 565 c 0,43,44
 36 615 36 615 45 627 c 0,45,46
 57 644 57 644 69 634 c 128,-1,47
 81 624 81 624 84 619 c 128,-1,48
 87 614 87 614 87 602 c 2,49,-1
 87 572 l 2,50,51
 87 459 87 459 101 370 c 0,52,53
 111 303 111 303 118 248 c 0,54,55
 132 139 132 139 139 139 c 2,56,-1
 140 139 l 1,57,58
 147 146 147 146 217.5 353 c 128,-1,59
 288 560 288 560 293 590 c 0,60,61
 297 613 297 613 309 627 c 128,-1,62
 321 641 321 641 335 641 c 2,63,-1
 340 641 l 2,64,65
 350 640 350 640 350 595 c 2,66,-1
 350 576 l 2,67,68
 349 556 349 556 348.5 525.5 c 128,-1,69
 348 495 348 495 348 461 c 128,-1,70
 348 427 348 427 347.5 390 c 128,-1,71
 347 353 347 353 347 327 c 0,72,73
 347 130 347 130 358 130 c 0,74,75
 365 130 365 130 374 160 c 128,-1,76
 383 190 383 190 461 359 c 0,77,78
 481 403 481 403 499.5 442 c 128,-1,79
 518 481 518 481 527 499.5 c 128,-1,80
 536 518 536 518 543.5 532.5 c 128,-1,81
 551 547 551 547 553 553.5 c 128,-1,82
 555 560 555 560 555 564 c 0,83,84
 555 567 555 567 553.5 571 c 128,-1,85
 552 575 552 575 552 580 c 0,0,1
EndSplineSet
EndChar

StartChar: X
Encoding: 88 88 59
Width: 491
GlyphClass: 1
Flags: W
LayerCount: 2
Fore
SplineSet
94 49 m 0,0,1
 94 47 94 47 90 34 c 128,-1,2
 86 21 86 21 76.5 7 c 128,-1,3
 67 -7 67 -7 56 -7 c 2,4,-1
 53 -7 l 2,5,6
 44 -6 44 -6 38.5 -1.5 c 128,-1,7
 33 3 33 3 33 8 c 0,8,9
 33 14 33 14 47 57.5 c 128,-1,10
 61 101 61 101 97.5 177 c 128,-1,11
 134 253 134 253 179 311 c 0,12,13
 203 342 203 342 203 359 c 0,14,15
 203 367 203 367 171.5 429.5 c 128,-1,16
 140 492 140 492 134 524 c 0,17,18
 128 558 128 558 112 582 c 0,19,20
 101 598 101 598 101 621 c 0,21,22
 101 640 101 640 116 640 c 0,23,24
 136 640 136 640 143 635 c 128,-1,25
 150 630 150 630 157 615 c 0,26,27
 173 581 173 581 183 536.5 c 128,-1,28
 193 492 193 492 216 450 c 2,29,-1
 244 401 l 1,30,-1
 258 420 l 2,31,32
 267 430 267 430 282.5 458.5 c 128,-1,33
 298 487 298 487 315 503 c 0,34,35
 339 527 339 527 363 563 c 128,-1,36
 387 599 387 599 401 619.5 c 128,-1,37
 415 640 415 640 425 640 c 0,38,39
 456 640 456 640 456 623 c 0,40,41
 456 610 456 610 442 591 c 0,42,43
 441 589 441 589 437.5 581.5 c 128,-1,44
 434 574 434 574 417.5 553.5 c 128,-1,45
 401 533 401 533 363 491 c 0,46,47
 329 452 329 452 299.5 404 c 128,-1,48
 270 356 270 356 270 339 c 0,49,50
 270 328 270 328 278 312.5 c 128,-1,51
 286 297 286 297 305 264 c 128,-1,52
 324 231 324 231 340 200 c 0,53,54
 368 144 368 144 420 73 c 0,55,56
 450 33 450 33 450 2 c 0,57,58
 450 -11 450 -11 442 -11 c 2,59,-1
 441 -11 l 2,60,61
 430 -11 430 -11 412.5 -2.5 c 128,-1,62
 395 6 395 6 386 16 c 0,63,64
 375 27 375 27 339.5 88 c 128,-1,65
 304 149 304 149 303 157 c 0,66,67
 303 166 303 166 278 209 c 0,68,69
 266 230 266 230 241 276 c 0,70,71
 229 299 229 299 218 291 c 0,72,73
 203 278 203 278 148.5 171.5 c 128,-1,74
 94 65 94 65 94 49 c 0,0,1
EndSplineSet
EndChar

StartChar: Y
Encoding: 89 89 60
Width: 381
GlyphClass: 1
Flags: W
LayerCount: 2
Fore
SplineSet
138 334 m 1,0,1
 59 541 59 541 46 578 c 128,-1,2
 33 615 33 615 33 630 c 0,3,4
 33 641 33 641 47 641 c 0,5,6
 67 641 67 641 83 607 c 128,-1,7
 99 573 99 573 140 444 c 0,8,9
 154 398 154 398 163 398 c 0,10,11
 166 398 166 398 169 404 c 0,12,13
 170 405 170 405 182.5 418.5 c 128,-1,14
 195 432 195 432 215.5 459.5 c 128,-1,15
 236 487 236 487 254 522 c 0,16,17
 256 526 256 526 266.5 549.5 c 128,-1,18
 277 573 277 573 286 591 c 128,-1,19
 295 609 295 609 307 625 c 128,-1,20
 319 641 319 641 329 641 c 0,21,22
 347 641 347 641 347 625 c 0,23,24
 347 615 347 615 340 599 c 128,-1,25
 333 583 333 583 321.5 563 c 128,-1,26
 310 543 310 543 307 536 c 0,27,28
 303 527 303 527 281 485.5 c 128,-1,29
 259 444 259 444 254 429 c 1,30,-1
 193 356 l 1,31,-1
 196 314 l 2,32,33
 201 242 201 242 201 196 c 0,34,35
 201 73 201 73 187 22 c 0,36,37
 182 0 182 0 162 0 c 0,38,39
 154 0 154 0 147 6 c 0,40,41
 136 17 136 17 136 236 c 0,42,43
 136 280 136 280 138 334 c 1,0,1
EndSplineSet
EndChar

StartChar: Z
Encoding: 90 90 61
Width: 570
GlyphClass: 1
Flags: W
LayerCount: 2
Fore
SplineSet
34 606 m 2,0,1
 35 609 35 609 41 613.5 c 128,-1,2
 47 618 47 618 65.5 622.5 c 128,-1,3
 84 627 84 627 111 627 c 0,4,5
 122 627 122 627 126 626 c 2,6,-1
 131 626 l 2,7,8
 136 626 136 626 174 628 c 128,-1,9
 212 630 212 630 240 630 c 0,10,11
 264 630 264 630 276 629 c 0,12,13
 366 624 366 624 402.5 617 c 128,-1,14
 439 610 439 610 439 597 c 0,15,16
 439 593 439 593 319 353 c 0,17,18
 309 330 309 330 283 293 c 0,19,20
 282 291 282 291 261 259 c 128,-1,21
 240 227 240 227 213 187 c 128,-1,22
 186 147 186 147 174 132 c 0,23,24
 152 103 152 103 152 92 c 0,25,26
 152 66 152 66 248 66 c 0,27,28
 280 66 280 66 320.5 68 c 128,-1,29
 361 70 361 70 396.5 72.5 c 128,-1,30
 432 75 432 75 463 77.5 c 128,-1,31
 494 80 494 80 513 82 c 2,32,-1
 532 84 l 1,33,-1
 533 83 l 1,34,-1
 530 81 l 2,35,36
 528 79 528 79 525.5 75 c 128,-1,37
 523 71 523 71 523 67 c 0,38,39
 523 64 523 64 524.5 60 c 128,-1,40
 526 56 526 56 526 46 c 0,41,42
 526 25 526 25 502.5 15 c 128,-1,43
 479 5 479 5 425 1 c 0,44,45
 418 0 418 0 400 0 c 0,46,47
 374 0 374 0 303 4.5 c 128,-1,48
 232 9 232 9 200 9 c 0,49,50
 139 9 139 9 121 -2 c 0,51,52
 98 -16 98 -16 78 -16 c 0,53,54
 55 -16 55 -16 55 5 c 0,55,56
 55 33 55 33 86 84.5 c 128,-1,57
 117 136 117 136 182.5 239 c 128,-1,58
 248 342 248 342 301 443 c 0,59,60
 351 539 351 539 351 551 c 128,-1,61
 351 563 351 563 271.5 567.5 c 128,-1,62
 192 572 192 572 112.5 578.5 c 128,-1,63
 33 585 33 585 33 602 c 1,64,-1
 34 604 l 1,65,-1
 34 606 l 2,0,1
EndSplineSet
EndChar

StartChar: bracketleft
Encoding: 91 91 62
Width: 384
GlyphClass: 1
Flags: W
LayerCount: 2
Fore
SplineSet
101 453 m 0,0,1
 101 476 101 476 99 521.5 c 128,-1,2
 97 567 97 567 97 580 c 0,3,4
 97 617 97 617 108.5 627 c 128,-1,5
 120 637 120 637 164 646 c 0,6,7
 210 656 210 656 242 656 c 2,8,-1
 245 656 l 2,9,10
 277 656 277 656 307.5 643 c 128,-1,11
 338 630 338 630 338 617 c 0,12,13
 338 611 338 611 326.5 609.5 c 128,-1,14
 315 608 315 608 277 608 c 2,15,-1
 259 608 l 2,16,17
 187 608 187 608 175 599 c 0,18,19
 162 589 162 589 157 473 c 0,20,21
 153 381 153 381 137 263 c 128,-1,22
 121 145 121 145 107 93 c 0,23,24
 95 47 95 47 95 34 c 0,25,26
 95 20 95 20 106 20 c 0,27,28
 111 20 111 20 134 24 c 128,-1,29
 157 28 157 28 230 28 c 2,30,-1
 312 28 l 2,31,32
 326 29 326 29 337.5 24 c 128,-1,33
 349 19 349 19 349 12 c 0,34,35
 349 2 349 2 332 -7.5 c 128,-1,36
 315 -17 315 -17 288 -21 c 0,37,38
 262 -25 262 -25 177 -28.5 c 128,-1,39
 92 -32 92 -32 69 -32 c 0,40,41
 57 -32 57 -32 45 -22 c 128,-1,42
 33 -12 33 -12 33 -3 c 0,43,44
 33 -1 33 -1 50 65.5 c 128,-1,45
 67 132 67 132 84 240.5 c 128,-1,46
 101 349 101 349 101 453 c 0,0,1
EndSplineSet
EndChar

StartChar: backslash
Encoding: 92 92 63
Width: 431
GlyphClass: 1
Flags: W
LayerCount: 2
Fore
SplineSet
55 624 m 0,0,1
 55 636 55 636 44 658 c 128,-1,2
 33 680 33 680 33 688 c 0,3,4
 33 689 33 689 34 690 c 2,5,-1
 34 692 l 1,6,7
 38 701 38 701 51 701 c 0,8,9
 72 701 72 701 85 683 c 0,10,11
 99 663 99 663 133 538 c 0,12,13
 154 459 154 459 199.5 342 c 128,-1,14
 245 225 245 225 270 187 c 0,15,16
 316 115 316 115 356.5 27 c 128,-1,17
 397 -61 397 -61 397 -89 c 0,18,19
 397 -112 397 -112 376 -112 c 0,20,21
 350 -112 350 -112 344 -85 c 0,22,23
 337 -57 337 -57 324.5 -23 c 128,-1,24
 312 11 312 11 307 16 c 0,25,26
 300 23 300 23 300 36 c 0,27,28
 300 47 300 47 255 120 c 0,29,30
 204 201 204 201 159 304.5 c 128,-1,31
 114 408 114 408 96 488 c 0,32,33
 89 520 89 520 72 566.5 c 128,-1,34
 55 613 55 613 55 624 c 0,0,1
EndSplineSet
EndChar

StartChar: bracketright
Encoding: 93 93 64
Width: 361
GlyphClass: 1
Flags: W
LayerCount: 2
Fore
SplineSet
80 620 m 0,0,1
 39 620 39 620 39 638 c 0,2,3
 39 639 39 639 39.5 641 c 128,-1,4
 40 643 40 643 40 644 c 0,5,6
 42 655 42 655 55.5 657.5 c 128,-1,7
 69 660 69 660 131 662 c 0,8,9
 221 664 221 664 239 667 c 128,-1,10
 257 670 257 670 268 670 c 0,11,12
 289 670 289 670 311 657 c 0,13,14
 323 650 323 650 323 626 c 0,15,16
 323 622 323 622 318 523.5 c 128,-1,17
 313 425 313 425 306.5 315.5 c 128,-1,18
 300 206 300 206 297 187 c 0,19,20
 296 178 296 178 294.5 132 c 128,-1,21
 293 86 293 86 290 57 c 0,22,23
 287 29 287 29 286 -1 c 0,24,25
 285 -23 285 -23 279 -23 c 2,26,-1
 275 -23 l 2,27,28
 231 -23 231 -23 175.5 -14.5 c 128,-1,29
 120 -6 120 -6 83 -6 c 2,30,-1
 68 -6 l 2,31,32
 53 -6 53 -6 43 0 c 128,-1,33
 33 6 33 6 33 14 c 0,34,35
 33 19 33 19 34.5 20.5 c 128,-1,36
 36 22 36 22 43.5 23.5 c 128,-1,37
 51 25 51 25 68 25 c 0,38,39
 86 25 86 25 212 18 c 0,40,41
 215 18 215 18 220 17.5 c 128,-1,42
 225 17 225 17 226 17 c 0,43,44
 233 17 233 17 234.5 22 c 128,-1,45
 236 27 236 27 238 46 c 0,46,47
 242 78 242 78 245 96 c 0,48,49
 246 102 246 102 246 105.5 c 128,-1,50
 246 109 246 109 245.5 114 c 128,-1,51
 245 119 245 119 245.5 138.5 c 128,-1,52
 246 158 246 158 247.5 188 c 128,-1,53
 249 218 249 218 253 280.5 c 128,-1,54
 257 343 257 343 263 426 c 0,55,56
 270 521 270 521 272 571 c 2,57,-1
 274 615 l 1,58,-1
 241 621 l 2,59,60
 224 624 224 624 198 624 c 0,61,62
 177 624 177 624 135 622 c 128,-1,63
 93 620 93 620 80 620 c 0,0,1
EndSplineSet
EndChar

StartChar: asciicircum
Encoding: 94 94 65
Width: 380
GlyphClass: 1
Flags: W
LayerCount: 2
Fore
SplineSet
46 608 m 0,0,1
 46 627 46 627 125.5 717.5 c 128,-1,2
 205 808 205 808 228 808 c 0,3,4
 235 808 235 808 243.5 787 c 128,-1,5
 252 766 252 766 265.5 736 c 128,-1,6
 279 706 279 706 294 690 c 0,7,8
 307 676 307 676 320.5 646.5 c 128,-1,9
 334 617 334 617 334 605 c 128,-1,10
 334 593 334 593 323 593 c 0,11,12
 313 593 313 593 300.5 604.5 c 128,-1,13
 288 616 288 616 282 631 c 0,14,15
 278 642 278 642 257.5 670 c 128,-1,16
 237 698 237 698 230 716 c 0,17,18
 222 739 222 739 210 739 c 0,19,20
 200 739 200 739 156 693 c 128,-1,21
 112 647 112 647 97 620 c 0,22,23
 84 597 84 597 66 596 c 0,24,25
 46 595 46 595 46 608 c 0,0,1
EndSplineSet
EndChar

StartChar: underscore
Encoding: 95 95 66
Width: 601
GlyphClass: 1
Flags: W
LayerCount: 2
Fore
SplineSet
286 63 m 2,0,1
 320 63 320 63 391.5 68.5 c 128,-1,2
 463 74 463 74 493 74 c 0,3,4
 529 74 529 74 543.5 69 c 128,-1,5
 558 64 558 64 558 52 c 0,6,7
 558 47 558 47 556 41.5 c 128,-1,8
 554 36 554 36 543 29 c 128,-1,9
 532 22 532 22 513 22 c 0,10,11
 506 22 506 22 497.5 23.5 c 128,-1,12
 489 25 489 25 466 25 c 0,13,14
 430 25 430 25 382 20 c 0,15,16
 366 18 366 18 232.5 13 c 128,-1,17
 99 8 99 8 70 1 c 0,18,19
 48 -4 48 -4 43 9 c 0,20,21
 40 18 40 18 40 19 c 0,22,23
 40 61 40 61 200 63 c 2,24,-1
 286 63 l 2,0,1
EndSplineSet
EndChar

StartChar: grave
Encoding: 96 96 67
Width: 320
GlyphClass: 1
Flags: W
LayerCount: 2
Fore
SplineSet
38 760 m 0,0,1
 38 767 38 767 42.5 770.5 c 128,-1,2
 47 774 47 774 65 774 c 0,3,4
 78 774 78 774 92.5 756 c 128,-1,5
 107 738 107 738 141.5 694.5 c 128,-1,6
 176 651 176 651 222 608 c 0,7,8
 267 565 267 565 278 548 c 1,9,10
 270 545 270 545 262 545 c 0,11,12
 210 545 210 545 135 629 c 2,13,-1
 66 707 l 2,14,15
 38 738 38 738 38 760 c 0,0,1
EndSplineSet
EndChar

StartChar: a
Encoding: 97 97 68
Width: 380
GlyphClass: 1
Flags: W
LayerCount: 2
Fore
SplineSet
319 202 m 2,0,1
 319 176 319 176 320 152.5 c 128,-1,2
 321 129 321 129 322 112 c 128,-1,3
 323 95 323 95 324.5 80.5 c 128,-1,4
 326 66 326 66 328 57 c 128,-1,5
 330 48 330 48 331 41.5 c 128,-1,6
 332 35 332 35 333 32 c 2,7,-1
 334 28 l 2,8,9
 334 26 334 26 336 19.5 c 128,-1,10
 338 13 338 13 338 9 c 0,11,12
 338 -2 338 -2 327 -12 c 0,13,14
 322 -16 322 -16 302 0 c 0,15,16
 298 4 298 4 293 33 c 128,-1,17
 288 62 288 62 285 86 c 128,-1,18
 282 110 282 110 282 113 c 2,19,-1
 282 118 l 1,20,21
 262 79 262 79 211.5 39 c 128,-1,22
 161 -1 161 -1 136 -1 c 2,23,-1
 135 -1 l 2,24,25
 87 2 87 2 63.5 17 c 128,-1,26
 40 32 40 32 40 71 c 0,27,28
 40 109 40 109 51.5 126 c 128,-1,29
 63 143 63 143 104 172 c 0,30,31
 106 174 106 174 119.5 180.5 c 128,-1,32
 133 187 133 187 164.5 195 c 128,-1,33
 196 203 196 203 230 203 c 0,34,35
 257 203 257 203 276 199 c 1,36,-1
 276 205 l 2,37,38
 276 210 276 210 277 217.5 c 128,-1,39
 278 225 278 225 278 228 c 0,40,41
 278 243 278 243 260 259 c 0,42,43
 239 277 239 277 197 277 c 2,44,-1
 166 277 l 2,45,46
 152 277 152 277 116 267 c 0,47,48
 108 264 108 264 93.5 254.5 c 128,-1,49
 79 245 79 245 68 244 c 2,50,-1
 65 244 l 2,51,52
 55 244 55 244 45.5 248 c 128,-1,53
 36 252 36 252 36 258 c 0,54,55
 36 283 36 283 82.5 301 c 128,-1,56
 129 319 129 319 184 321 c 0,57,58
 188 321 188 321 195.5 321.5 c 128,-1,59
 203 322 203 322 206 322 c 0,60,61
 239 322 239 322 271 306 c 0,62,63
 274 305 274 305 280.5 301.5 c 128,-1,64
 287 298 287 298 289 297 c 128,-1,65
 291 296 291 296 295 293.5 c 128,-1,66
 299 291 299 291 300.5 288.5 c 128,-1,67
 302 286 302 286 304.5 281.5 c 128,-1,68
 307 277 307 277 309 271 c 0,69,70
 319 242 319 242 319 235 c 2,71,-1
 319 202 l 2,0,1
195 77 m 0,72,73
 204 85 204 85 209 87.5 c 128,-1,74
 214 90 214 90 224 99 c 0,75,76
 228 103 228 103 230.5 105.5 c 128,-1,77
 233 108 233 108 234 110 c 128,-1,78
 235 112 235 112 239.5 118 c 128,-1,79
 244 124 244 124 252 133 c 0,80,81
 263 145 263 145 268 165 c 1,82,83
 261 164 261 164 248 164 c 2,84,-1
 225 164 l 2,85,86
 202 164 202 164 166 152 c 0,87,88
 141 144 141 144 130.5 139.5 c 128,-1,89
 120 135 120 135 105.5 126 c 128,-1,90
 91 117 91 117 85.5 103.5 c 128,-1,91
 80 90 80 90 80 70 c 0,92,93
 80 41 80 41 111 41 c 2,94,-1
 119 41 l 2,95,96
 152 41 152 41 195 77 c 0,72,73
EndSplineSet
EndChar

StartChar: b
Encoding: 98 98 69
Width: 420
GlyphClass: 1
Flags: W
LayerCount: 2
Fore
SplineSet
56 391 m 0,0,1
 56 414 56 414 53.5 423 c 128,-1,2
 51 432 51 432 51 466 c 0,3,4
 51 516 51 516 55 574 c 128,-1,5
 59 632 59 632 64 638 c 0,6,7
 70 645 70 645 73.5 645 c 128,-1,8
 77 645 77 645 91 636 c 0,9,10
 104 629 104 629 104 612 c 2,11,-1
 103 603 l 2,12,13
 102 594 102 594 100.5 577 c 128,-1,14
 99 560 99 560 97.5 537.5 c 128,-1,15
 96 515 96 515 94.5 485 c 128,-1,16
 93 455 93 455 91.5 421.5 c 128,-1,17
 90 388 90 388 89 346.5 c 128,-1,18
 88 305 88 305 88 264 c 0,19,20
 88 237 88 237 89 236 c 2,21,-1
 90 236 l 1,22,-1
 136 272 l 2,23,24
 181 308 181 308 191 308 c 0,25,26
 202 308 202 308 203 314 c 0,27,28
 203 321 203 321 243 321 c 2,29,-1
 245 321 l 2,30,31
 270 321 270 321 298 313 c 128,-1,32
 326 305 326 305 352.5 279 c 128,-1,33
 379 253 379 253 379 215 c 0,34,35
 379 147 379 147 322 75.5 c 128,-1,36
 265 4 265 4 200 4 c 0,37,38
 198 4 198 4 195 4.5 c 128,-1,39
 192 5 192 5 191 5 c 0,40,41
 148 9 148 9 130 16.5 c 128,-1,42
 112 24 112 24 104 43 c 0,43,44
 94 66 94 66 89 66 c 0,45,46
 85 66 85 66 77.5 27 c 128,-1,47
 70 -12 70 -12 62 -12 c 0,48,49
 60 -12 60 -12 55.5 -9.5 c 128,-1,50
 51 -7 51 -7 45.5 6.5 c 128,-1,51
 40 20 40 20 40 42 c 2,52,-1
 40 87 l 2,53,54
 40 95 40 95 41.5 118 c 128,-1,55
 43 141 43 141 43 168 c 0,56,57
 43 212 43 212 49.5 288 c 128,-1,58
 56 364 56 364 56 391 c 0,0,1
97 158 m 0,59,60
 97 110 97 110 132.5 76.5 c 128,-1,61
 168 43 168 43 201 43 c 0,62,63
 226 43 226 43 264 67 c 0,64,65
 295 87 295 87 314 130.5 c 128,-1,66
 333 174 333 174 333 213 c 0,67,68
 333 243 333 243 321 255 c 0,69,70
 299 277 299 277 251 277 c 0,71,72
 227 277 227 277 213 270 c 0,73,74
 102 214 102 214 98 170 c 0,75,76
 98 168 98 168 97.5 164 c 128,-1,77
 97 160 97 160 97 158 c 0,59,60
EndSplineSet
EndChar

StartChar: c
Encoding: 99 99 70
Width: 366
GlyphClass: 1
Flags: W
LayerCount: 2
Fore
SplineSet
35 125 m 0,0,1
 35 206 35 206 83.5 269 c 128,-1,2
 132 332 132 332 179 332 c 0,3,4
 200 332 200 332 233 316 c 0,5,6
 254 306 254 306 261.5 298.5 c 128,-1,7
 269 291 269 291 271 279 c 0,8,9
 271 277 271 277 271.5 274.5 c 128,-1,10
 272 272 272 272 272 271 c 0,11,12
 272 259 272 259 254 259 c 0,13,14
 239 259 239 259 221 273.5 c 128,-1,15
 203 288 203 288 191 288 c 0,16,17
 185 288 185 288 173 285.5 c 128,-1,18
 161 283 161 283 139 266.5 c 128,-1,19
 117 250 117 250 106 222 c 0,20,21
 88 174 88 174 88 137 c 0,22,23
 88 62 88 62 145 38 c 0,24,25
 157 34 157 34 184 34 c 0,26,27
 225 34 225 34 266 49.5 c 128,-1,28
 307 65 307 65 316 65 c 0,29,30
 326 65 326 65 326 56 c 0,31,32
 326 43 326 43 312.5 28 c 128,-1,33
 299 13 299 13 275 8 c 0,34,35
 207 -5 207 -5 171 -5 c 0,36,37
 130 -5 130 -5 84 22 c 0,38,39
 35 49 35 49 35 125 c 0,0,1
EndSplineSet
EndChar

StartChar: d
Encoding: 100 100 71
Width: 407
GlyphClass: 1
Flags: W
LayerCount: 2
Fore
SplineSet
312 279 m 1,0,1
 314 294 314 294 317 354 c 128,-1,2
 320 414 320 414 322 464 c 128,-1,3
 324 514 324 514 324 517 c 0,4,5
 324 549 324 549 321.5 586.5 c 128,-1,6
 319 624 319 624 319 625 c 0,7,8
 319 641 319 641 345 641 c 0,9,10
 366 641 366 641 366 609 c 0,11,12
 366 592 366 592 360 562 c 0,13,14
 348 489 348 489 348 300 c 0,15,16
 348 277 348 277 348.5 253 c 128,-1,17
 349 229 349 229 349.5 210 c 128,-1,18
 350 191 350 191 351 173 c 128,-1,19
 352 155 352 155 352.5 141.5 c 128,-1,20
 353 128 353 128 353.5 117.5 c 128,-1,21
 354 107 354 107 354 102 c 2,22,-1
 355 96 l 1,23,24
 355 6 355 6 339 0 c 0,25,26
 337 -1 337 -1 333 -1 c 0,27,28
 319 -1 319 -1 319 25 c 0,29,30
 319 31 319 31 321 48.5 c 128,-1,31
 323 66 323 66 323 77 c 0,32,33
 323 93 323 93 321 100 c 2,34,-1
 314 127 l 1,35,-1
 269 80 l 2,36,37
 265 75 265 75 257.5 67 c 128,-1,38
 250 59 250 59 247.5 57 c 128,-1,39
 245 55 245 55 237.5 49.5 c 128,-1,40
 230 44 230 44 220 39.5 c 128,-1,41
 210 35 210 35 193 27 c 0,42,43
 117 -6 117 -6 92 -6 c 0,44,45
 71 -6 71 -6 59 12 c 0,46,47
 38 44 38 44 38 109 c 2,48,-1
 38 116 l 2,49,50
 36 148 36 148 36 159 c 0,51,52
 36 207 36 207 49.5 236 c 128,-1,53
 63 265 63 265 102 313 c 0,54,55
 107 319 107 319 135.5 331 c 128,-1,56
 164 343 164 343 174 343 c 0,57,58
 229 343 229 343 259 315 c 1,59,60
 297 295 297 295 312 279 c 1,0,1
77 136 m 0,61,62
 77 132 77 132 77.5 126 c 128,-1,63
 78 120 78 120 80.5 105 c 128,-1,64
 83 90 83 90 87.5 78 c 128,-1,65
 92 66 92 66 102 56.5 c 128,-1,66
 112 47 112 47 126 47 c 0,67,68
 144 47 144 47 166 60 c 0,69,70
 181 69 181 69 199 81.5 c 128,-1,71
 217 94 217 94 221 97 c 0,72,73
 248 115 248 115 267.5 140.5 c 128,-1,74
 287 166 287 166 293.5 182.5 c 128,-1,75
 300 199 300 199 300 207 c 0,76,77
 300 223 300 223 285 245 c 0,78,79
 275 259 275 259 269.5 264 c 128,-1,80
 264 269 264 269 261.5 268.5 c 128,-1,81
 259 268 259 268 250 272 c 128,-1,82
 241 276 241 276 227 287 c 0,83,84
 220 293 220 293 201 293 c 0,85,86
 166 293 166 293 147 280 c 0,87,88
 145 279 145 279 128.5 271 c 128,-1,89
 112 263 112 263 107.5 256.5 c 128,-1,90
 103 250 103 250 93.5 225 c 128,-1,91
 84 200 84 200 79 159 c 0,92,93
 77 143 77 143 77 136 c 0,61,62
EndSplineSet
EndChar

StartChar: e
Encoding: 101 101 72
Width: 409
GlyphClass: 1
Flags: W
LayerCount: 2
Fore
SplineSet
35 167 m 0,0,1
 35 186 35 186 45 212 c 128,-1,2
 55 238 55 238 74.5 265.5 c 128,-1,3
 94 293 94 293 130 312 c 128,-1,4
 166 331 166 331 211 331 c 0,5,6
 273 331 273 331 294 306 c 0,7,8
 327 266 327 266 327 233 c 0,9,10
 327 218 327 218 316 205 c 0,11,12
 296 186 296 186 289 175 c 0,13,14
 274 155 274 155 201 128.5 c 128,-1,15
 128 102 128 102 87 102 c 1,16,17
 102 65 102 65 120.5 52.5 c 128,-1,18
 139 40 139 40 179 32 c 0,19,20
 187 30 187 30 190 30 c 0,21,22
 209 30 209 30 275 64 c 128,-1,23
 341 98 341 98 362 98 c 0,24,25
 374 98 374 98 374 88 c 0,26,27
 374 82 374 82 337 57.5 c 128,-1,28
 300 33 300 33 259 11 c 0,29,30
 229 -5 229 -5 186 -5 c 0,31,32
 113 -5 113 -5 70 47 c 0,33,34
 55 66 55 66 45 105.5 c 128,-1,35
 35 145 35 145 35 167 c 0,0,1
285 261 m 0,36,37
 284 264 284 264 277 271 c 128,-1,38
 270 278 270 278 251 286 c 128,-1,39
 232 294 232 294 209 294 c 0,40,41
 176 294 176 294 146.5 276 c 128,-1,42
 117 258 117 258 101 225 c 0,43,44
 89 201 89 201 89 157 c 0,45,46
 89 152 89 152 89.5 145 c 128,-1,47
 90 138 90 138 90 137 c 1,48,49
 94 138 94 138 111.5 143 c 128,-1,50
 129 148 129 148 140 149 c 0,51,52
 170 153 170 153 228 193 c 128,-1,53
 286 233 286 233 286 257 c 0,54,55
 286 258 286 258 285.5 259 c 128,-1,56
 285 260 285 260 285 261 c 0,36,37
EndSplineSet
EndChar

StartChar: f
Encoding: 102 102 73
Width: 366
GlyphClass: 1
Flags: W
LayerCount: 2
Fore
SplineSet
144 52 m 0,0,1
 144 60 144 60 144.5 70 c 128,-1,2
 145 80 145 80 145.5 88.5 c 128,-1,3
 146 97 146 97 146 104.5 c 128,-1,4
 146 112 146 112 146 116 c 2,5,-1
 147 121 l 2,6,7
 147 124 147 124 146.5 131.5 c 128,-1,8
 146 139 146 139 146 145 c 2,9,-1
 146 164 l 1,10,-1
 148 308 l 1,11,-1
 118 306 l 2,12,13
 106 305 106 305 82 305 c 0,14,15
 32 305 32 305 32 322 c 0,16,17
 32 325 32 325 32.5 327.5 c 128,-1,18
 33 330 33 330 34.5 332 c 128,-1,19
 36 334 36 334 37.5 335.5 c 128,-1,20
 39 337 39 337 42 338 c 128,-1,21
 45 339 45 339 47.5 339.5 c 128,-1,22
 50 340 50 340 55 341 c 128,-1,23
 60 342 60 342 63.5 342 c 128,-1,24
 67 342 67 342 74 342.5 c 128,-1,25
 81 343 81 343 86 344 c 128,-1,26
 91 345 91 345 101.5 346 c 128,-1,27
 112 347 112 347 118 347.5 c 128,-1,28
 124 348 124 348 131 349 c 128,-1,29
 138 350 138 350 141.5 352 c 128,-1,30
 145 354 145 354 146 356 c 0,31,32
 148 364 148 364 148 392 c 0,33,34
 148 417 148 417 147 434 c 0,35,36
 147 439 147 439 146.5 447 c 128,-1,37
 146 455 146 455 146 458 c 0,38,39
 146 464 146 464 147.5 478 c 128,-1,40
 149 492 149 492 151.5 508 c 128,-1,41
 154 524 154 524 156.5 539 c 128,-1,42
 159 554 159 554 160 564 c 2,43,-1
 162 574 l 2,44,45
 166 596 166 596 188 617.5 c 128,-1,46
 210 639 210 639 243 639 c 0,47,48
 262 639 262 639 283 630 c 0,49,50
 305 620 305 620 312.5 613.5 c 128,-1,51
 320 607 320 607 320 593 c 0,52,53
 320 582 320 582 307 582 c 0,54,55
 299 582 299 582 283.5 586.5 c 128,-1,56
 268 591 268 591 264 591 c 2,57,-1
 263 591 l 2,58,59
 232 591 232 591 219 574.5 c 128,-1,60
 206 558 206 558 201 518 c 0,61,62
 196 468 196 468 196 439 c 0,63,64
 196 419 196 419 197 400.5 c 128,-1,65
 198 382 198 382 200 367 c 128,-1,66
 202 352 202 352 202 349 c 1,67,68
 223 350 223 350 262 353.5 c 128,-1,69
 301 357 301 357 304 357 c 2,70,-1
 305 357 l 2,71,72
 315 357 315 357 323 348 c 128,-1,73
 331 339 331 339 331 330 c 0,74,75
 331 322 331 322 324 319 c 0,76,77
 322 318 322 318 299.5 318 c 128,-1,78
 277 318 277 318 247 316.5 c 128,-1,79
 217 315 217 315 199 312 c 0,80,81
 199 309 199 309 197.5 248.5 c 128,-1,82
 196 188 196 188 196 151 c 0,83,84
 196 141 196 141 196.5 124 c 128,-1,85
 197 107 197 107 197 101 c 2,86,-1
 197 72 l 2,87,88
 197 -4 197 -4 173 -5 c 2,89,-1
 170 -5 l 2,90,91
 156 -5 156 -5 150 7 c 128,-1,92
 144 19 144 19 144 52 c 0,0,1
EndSplineSet
EndChar

StartChar: g
Encoding: 103 103 74
Width: 435
GlyphClass: 1
Flags: W
LayerCount: 2
Fore
SplineSet
68 -293 m 0,0,1
 69 -273 69 -273 86 -273 c 0,2,3
 98 -273 98 -273 131 -281 c 128,-1,4
 164 -289 164 -289 172 -289 c 2,5,-1
 175 -289 l 2,6,7
 199 -286 199 -286 223.5 -261.5 c 128,-1,8
 248 -237 248 -237 263 -200 c 0,9,10
 274 -172 274 -172 284 -120 c 128,-1,11
 294 -68 294 -68 294 -38 c 0,12,13
 294 -35 294 -35 293.5 -30.5 c 128,-1,14
 293 -26 293 -26 293 -25 c 0,15,16
 292 -11 292 -11 284 -11 c 0,17,18
 282 -11 282 -11 260 -17.5 c 128,-1,19
 238 -24 238 -24 216 -24 c 0,20,21
 150 -24 150 -24 94 27.5 c 128,-1,22
 38 79 38 79 35 153 c 2,23,-1
 35 158 l 2,24,25
 35 199 35 199 59 240 c 128,-1,26
 83 281 83 281 115 300 c 0,27,28
 151 320 151 320 222 329 c 1,29,-1
 226 329 l 2,30,31
 248 329 248 329 286.5 310.5 c 128,-1,32
 325 292 325 292 341 277 c 1,33,-1
 341 286 l 2,34,35
 341 290 341 290 340.5 293 c 128,-1,36
 340 296 340 296 340 298 c 2,37,-1
 340 299 l 2,38,39
 340 300 340 300 340.5 301 c 128,-1,40
 341 302 341 302 341.5 305.5 c 128,-1,41
 342 309 342 309 342 314 c 0,42,43
 343 319 343 319 352 322.5 c 128,-1,44
 361 326 361 326 368 325 c 0,45,46
 376 324 376 324 378 311 c 0,47,48
 386 242 386 242 386 223 c 2,49,-1
 386 200 l 2,50,51
 386 194 386 194 386.5 178 c 128,-1,52
 387 162 387 162 387 153 c 0,53,54
 387 121 387 121 381 97 c 128,-1,55
 375 73 375 73 372 16 c 0,56,57
 369 -34 369 -34 352 -98 c 0,58,59
 326 -195 326 -195 312.5 -225 c 128,-1,60
 299 -255 299 -255 265 -290 c 0,61,62
 234 -321 234 -321 219.5 -329 c 128,-1,63
 205 -337 205 -337 175 -341 c 0,64,65
 173 -341 173 -341 169 -341.5 c 128,-1,66
 165 -342 165 -342 163 -342 c 0,67,68
 130 -342 130 -342 99 -327 c 128,-1,69
 68 -312 68 -312 68 -293 c 0,0,1
298 252 m 0,70,71
 289 264 289 264 255.5 276.5 c 128,-1,72
 222 289 222 289 204 289 c 0,73,74
 203 289 203 289 202 288 c 2,75,-1
 200 288 l 1,76,77
 150 279 150 279 118 247 c 128,-1,78
 86 215 86 215 86 166 c 0,79,80
 86 164 86 164 86.5 160.5 c 128,-1,81
 87 157 87 157 87 155 c 0,82,83
 89 132 89 132 93.5 118 c 128,-1,84
 98 104 98 104 101 99.5 c 128,-1,85
 104 95 104 95 117 83.5 c 128,-1,86
 130 72 130 72 137 65 c 0,87,88
 151 51 151 51 183 38.5 c 128,-1,89
 215 26 215 26 240 26 c 0,90,91
 272 26 272 26 284 41 c 0,92,93
 310 74 310 74 318 94 c 0,94,95
 337 139 337 139 337 164 c 0,96,97
 337 202 337 202 298 252 c 0,70,71
EndSplineSet
EndChar

StartChar: h
Encoding: 104 104 75
Width: 432
GlyphClass: 1
Flags: W
LayerCount: 2
Fore
SplineSet
47 163 m 2,0,1
 47 197 47 197 46.5 238.5 c 128,-1,2
 46 280 46 280 45 315 c 128,-1,3
 44 350 44 350 43 380 c 128,-1,4
 42 410 42 410 42 428 c 2,5,-1
 41 446 l 1,6,7
 41 553 41 553 62 614 c 0,8,9
 72 645 72 645 84 645 c 0,10,11
 103 645 103 645 103 572 c 2,12,-1
 103 570 l 2,13,14
 103 567 103 567 102.5 563 c 128,-1,15
 102 559 102 559 101.5 553 c 128,-1,16
 101 547 101 547 100.5 538.5 c 128,-1,17
 100 530 100 530 99.5 520 c 128,-1,18
 99 510 99 510 99 497 c 128,-1,19
 99 484 99 484 99 470 c 0,20,21
 99 448 99 448 99 428 c 128,-1,22
 99 408 99 408 99.5 394 c 128,-1,23
 100 380 100 380 100.5 368.5 c 128,-1,24
 101 357 101 357 101.5 349 c 128,-1,25
 102 341 102 341 102.5 336 c 128,-1,26
 103 331 103 331 103 328 c 2,27,-1
 103 326 l 1,28,-1
 103 312 l 2,29,30
 103 303 103 303 102.5 289.5 c 128,-1,31
 102 276 102 276 102 272 c 0,32,33
 102 255 102 255 104 253 c 0,34,35
 108 251 108 251 115 257.5 c 128,-1,36
 122 264 122 264 135 275.5 c 128,-1,37
 148 287 148 287 166 299 c 128,-1,38
 184 311 184 311 214.5 319.5 c 128,-1,39
 245 328 245 328 281 328 c 0,40,41
 346 328 346 328 374 286 c 0,42,43
 385 270 385 270 385 182 c 0,44,45
 385 108 385 108 378 54 c 0,46,47
 373 17 373 17 367.5 5.5 c 128,-1,48
 362 -6 362 -6 348 -8 c 2,49,-1
 346 -8 l 2,50,51
 326 -8 326 -8 326 36 c 0,52,53
 326 56 326 56 332 109.5 c 128,-1,54
 338 163 338 163 338 193 c 0,55,56
 338 246 338 246 323.5 268 c 128,-1,57
 309 290 309 290 273 290 c 0,58,59
 236 290 236 290 190 264 c 0,60,61
 159 246 159 246 144.5 230 c 128,-1,62
 130 214 130 214 121 175.5 c 128,-1,63
 112 137 112 137 112 66 c 0,64,65
 112 0 112 0 81 0 c 0,66,67
 69 0 69 0 61.5 6 c 128,-1,68
 54 12 54 12 51 27 c 128,-1,69
 48 42 48 42 47.5 53.5 c 128,-1,70
 47 65 47 65 47 88 c 2,71,-1
 47 163 l 2,0,1
EndSplineSet
EndChar

StartChar: i
Encoding: 105 105 76
Width: 158
GlyphClass: 1
Flags: W
LayerCount: 2
Fore
SplineSet
75 314 m 0,0,1
 89 308 89 308 93.5 299.5 c 128,-1,2
 98 291 98 291 98 270 c 0,3,4
 98 263 98 263 96.5 226 c 128,-1,5
 95 189 95 189 95 157 c 2,6,-1
 95 137 l 1,7,-1
 97 0 l 1,8,-1
 71 0 l 2,9,10
 55 0 55 0 50.5 3 c 128,-1,11
 46 6 46 6 46 18 c 0,12,13
 46 20 46 20 46.5 24.5 c 128,-1,14
 47 29 47 29 47 32 c 0,15,16
 49 60 49 60 49 111 c 0,17,18
 49 161 49 161 42 266 c 1,19,-1
 42 273 l 2,20,21
 42 295 42 295 49 305.5 c 128,-1,22
 56 316 56 316 63 315 c 128,-1,23
 70 314 70 314 75 314 c 0,0,1
77 393 m 0,24,25
 41 393 41 393 41 433 c 0,26,27
 41 480 41 480 75 480 c 0,28,29
 91 480 91 480 105 467.5 c 128,-1,30
 119 455 119 455 119 431 c 0,31,32
 119 393 119 393 77 393 c 0,24,25
EndSplineSet
EndChar

StartChar: j
Encoding: 106 106 77
Width: 303
GlyphClass: 1
Flags: W
LayerCount: 2
Fore
SplineSet
54 -52 m 0,0,1
 61 -52 61 -52 77 -58 c 128,-1,2
 93 -64 93 -64 112 -64 c 0,3,4
 153 -64 153 -64 161 -49 c 0,5,6
 168 -36 168 -36 180.5 16.5 c 128,-1,7
 193 69 193 69 193 87 c 2,8,-1
 193 213 l 2,9,10
 191 236 191 236 191 264 c 0,11,12
 191 297 191 297 195 318 c 0,13,14
 195 322 195 322 201 324 c 128,-1,15
 207 326 207 326 213 326 c 2,16,-1
 219 326 l 2,17,18
 239 326 239 326 241 318 c 0,19,20
 246 299 246 299 246 266 c 2,21,-1
 243 220 l 2,22,23
 243 215 243 215 243.5 205 c 128,-1,24
 244 195 244 195 244 191 c 0,25,26
 244 72 244 72 218 -48 c 0,27,28
 212 -74 212 -74 206 -82 c 128,-1,29
 200 -90 200 -90 183 -97 c 0,30,31
 138 -113 138 -113 96 -113 c 0,32,33
 78 -113 78 -113 65 -109 c 128,-1,34
 52 -105 52 -105 45.5 -100 c 128,-1,35
 39 -95 39 -95 35.5 -88.5 c 128,-1,36
 32 -82 32 -82 31.5 -79 c 128,-1,37
 31 -76 31 -76 31 -74 c 0,38,39
 31 -65 31 -65 37.5 -58.5 c 128,-1,40
 44 -52 44 -52 54 -52 c 0,0,1
223 393 m 0,41,42
 204 393 204 393 195 401.5 c 128,-1,43
 186 410 186 410 186 433 c 0,44,45
 186 480 186 480 220 480 c 0,46,47
 225 480 225 480 231 478 c 128,-1,48
 237 476 237 476 245 471.5 c 128,-1,49
 253 467 253 467 258.5 456.5 c 128,-1,50
 264 446 264 446 264 431 c 0,51,52
 264 393 264 393 223 393 c 0,41,42
EndSplineSet
EndChar

StartChar: k
Encoding: 107 107 78
Width: 430
GlyphClass: 1
Flags: W
LayerCount: 2
Fore
SplineSet
71 265 m 0,0,1
 71 344 71 344 53 484.5 c 128,-1,2
 35 625 35 625 35 639 c 0,3,4
 35 645 35 645 42 645 c 0,5,6
 66 645 66 645 78 631 c 0,7,8
 87 622 87 622 99 492.5 c 128,-1,9
 111 363 111 363 111 285 c 2,10,-1
 112 251 l 1,11,-1
 154 277 l 1,12,-1
 160 284 l 2,13,14
 167 291 167 291 177.5 301.5 c 128,-1,15
 188 312 188 312 201.5 326 c 128,-1,16
 215 340 215 340 229 354.5 c 128,-1,17
 243 369 243 369 257 383 c 128,-1,18
 271 397 271 397 282.5 408 c 128,-1,19
 294 419 294 419 302.5 425.5 c 128,-1,20
 311 432 311 432 314 433 c 2,21,-1
 316 433 l 2,22,23
 333 433 333 433 333 403 c 0,24,25
 333 377 333 377 319 361 c 0,26,27
 238 274 238 274 215.5 245.5 c 128,-1,28
 193 217 193 217 193 201 c 0,29,30
 193 172 193 172 258 110 c 0,31,32
 292 78 292 78 311.5 65 c 128,-1,33
 331 52 331 52 355 46 c 0,34,35
 395 36 395 36 395 23 c 0,36,37
 395 9 395 9 358 9 c 0,38,39
 315 9 315 9 278 31 c 128,-1,40
 241 53 241 53 190 116 c 0,41,42
 182 126 182 126 173 140 c 128,-1,43
 164 154 164 154 159 161 c 128,-1,44
 154 168 154 168 153 168 c 2,45,-1
 147 178 l 2,46,47
 141 187 141 187 137 187 c 0,48,49
 132 187 132 187 128 173 c 0,50,51
 126 168 126 168 123 158 c 128,-1,52
 120 148 120 148 119.5 144.5 c 128,-1,53
 119 141 119 141 117 134.5 c 128,-1,54
 115 128 115 128 114.5 125 c 128,-1,55
 114 122 114 122 112.5 116 c 128,-1,56
 111 110 111 110 110.5 106 c 128,-1,57
 110 102 110 102 109.5 96 c 128,-1,58
 109 90 109 90 108.5 82.5 c 128,-1,59
 108 75 108 75 107.5 67.5 c 128,-1,60
 107 60 107 60 107 48 c 0,61,62
 106 1 106 1 78 1 c 2,63,-1
 77 1 l 2,64,65
 48 1 48 1 48 44 c 0,66,67
 48 63 48 63 59.5 135.5 c 128,-1,68
 71 208 71 208 71 265 c 0,0,1
EndSplineSet
EndChar

StartChar: l
Encoding: 108 108 79
Width: 156
GlyphClass: 1
Flags: W
LayerCount: 2
Fore
SplineSet
26 700 m 1024,0,-1
53 427 m 2,1,2
 53 455 53 455 52.5 492.5 c 128,-1,3
 52 530 52 530 51 564 c 128,-1,4
 50 598 50 598 49 627.5 c 128,-1,5
 48 657 48 657 48 676 c 2,6,-1
 47 694 l 2,7,8
 47 697 47 697 63 698 c 0,9,10
 64 698 64 698 66 698.5 c 128,-1,11
 68 699 68 699 69 699 c 0,12,13
 91 699 91 699 96.5 666 c 128,-1,14
 102 633 102 633 104 488 c 0,15,16
 105 420 105 420 105 287 c 2,17,-1
 105 211 l 2,18,19
 105 203 105 203 104.5 184 c 128,-1,20
 104 165 104 165 104 156 c 0,21,22
 104 112 104 112 106 80 c 2,23,-1
 106 69 l 2,24,25
 106 38 106 38 95 19 c 128,-1,26
 84 0 84 0 68 0 c 0,27,28
 65 0 65 0 60 1 c 128,-1,29
 55 2 55 2 46.5 10 c 128,-1,30
 38 18 38 18 38 32 c 0,31,32
 38 36 38 36 45.5 89 c 128,-1,33
 53 142 53 142 53 195 c 2,34,-1
 53 206 l 2,35,36
 52 229 52 229 52 305 c 0,37,38
 52 319 52 319 52.5 347.5 c 128,-1,39
 53 376 53 376 53 388 c 2,40,-1
 53 427 l 2,1,2
EndSplineSet
EndChar

StartChar: m
Encoding: 109 109 80
Width: 516
GlyphClass: 1
Flags: W
LayerCount: 2
Fore
SplineSet
56 309 m 0,0,1
 56 313 56 313 65 317.5 c 128,-1,2
 74 322 74 322 84 322 c 128,-1,3
 94 322 94 322 104 316.5 c 128,-1,4
 114 311 114 311 114 301 c 0,5,6
 114 300 114 300 113 291 c 128,-1,7
 112 282 112 282 112 273 c 2,8,-1
 112 266 l 1,9,10
 116 197 116 197 117 197 c 0,11,12
 119 197 119 197 125 209 c 128,-1,13
 131 221 131 221 138 235 c 128,-1,14
 145 249 145 249 149 253 c 0,15,16
 168 273 168 273 196.5 288.5 c 128,-1,17
 225 304 225 304 243 304 c 2,18,-1
 245 304 l 2,19,20
 272 304 272 304 295 294 c 1,21,-1
 315 266 l 1,22,-1
 339 280 l 2,23,24
 347 285 347 285 362 297 c 128,-1,25
 377 309 377 309 389.5 315.5 c 128,-1,26
 402 322 402 322 417 322 c 0,27,28
 438 322 438 322 462 308 c 0,29,30
 471 303 471 303 471 289 c 0,31,32
 471 278 471 278 464 240 c 0,33,34
 461 224 461 224 459.5 166 c 128,-1,35
 458 108 458 108 457 95 c 0,36,37
 449 1 449 1 446 -1 c 0,38,39
 440 -5 440 -5 426 0 c 0,40,41
 407 7 407 7 407 112 c 0,42,43
 407 134 407 134 408 157 c 128,-1,44
 409 180 409 180 411 198 c 128,-1,45
 413 216 413 216 415 231 c 128,-1,46
 417 246 417 246 418 254 c 2,47,-1
 419 263 l 2,48,49
 419 277 419 277 403 277 c 0,50,51
 374 277 374 277 341 242.5 c 128,-1,52
 308 208 308 208 308 156 c 2,53,-1
 308 148 l 2,54,55
 308 96 308 96 297.5 49.5 c 128,-1,56
 287 3 287 3 275 3 c 0,57,58
 265 3 265 3 257 32.5 c 128,-1,59
 249 62 249 62 249 106 c 0,60,61
 249 132 249 132 254 171 c 128,-1,62
 259 210 259 210 259 224 c 0,63,64
 259 260 259 260 231 260 c 0,65,66
 214 260 214 260 171 201 c 128,-1,67
 128 142 128 142 122 117 c 0,68,69
 91 -14 91 -14 57 -14 c 0,70,71
 38 -14 38 -14 38 8 c 0,72,73
 38 19 38 19 52 110 c 128,-1,74
 66 201 66 201 66 244 c 0,75,76
 66 268 66 268 63.5 282 c 128,-1,77
 61 296 61 296 58.5 301.5 c 128,-1,78
 56 307 56 307 56 309 c 0,0,1
EndSplineSet
EndChar

StartChar: n
Encoding: 110 110 81
Width: 406
GlyphClass: 1
Flags: W
LayerCount: 2
Fore
SplineSet
53 184 m 2,0,-1
 53 192 l 2,1,2
 53 201 53 201 52.5 213 c 128,-1,3
 52 225 52 225 51.5 238 c 128,-1,4
 51 251 51 251 51 262.5 c 128,-1,5
 51 274 51 274 51 279 c 0,6,7
 51 318 51 318 61 320 c 0,8,9
 104 324 104 324 104 253 c 0,10,11
 104 245 104 245 102 219 c 2,12,-1
 96 154 l 1,13,14
 104 188 104 188 111.5 202 c 128,-1,15
 119 216 119 216 136 235 c 0,16,17
 159 263 159 263 199 285.5 c 128,-1,18
 239 308 239 308 275 308 c 0,19,20
 306 308 306 308 327.5 286.5 c 128,-1,21
 349 265 349 265 355.5 244.5 c 128,-1,22
 362 224 362 224 362 210 c 0,23,24
 362 194 362 194 350.5 130.5 c 128,-1,25
 339 67 339 67 339 44 c 0,26,27
 339 3 339 3 312 3 c 0,28,29
 284 5 284 5 284 28 c 0,30,31
 284 38 284 38 296 94.5 c 128,-1,32
 308 151 308 151 308 190 c 0,33,34
 308 268 308 268 266 268 c 0,35,36
 230 268 230 268 170 204 c 0,37,38
 140 172 140 172 123.5 131 c 128,-1,39
 107 90 107 90 103 61.5 c 128,-1,40
 99 33 99 33 88.5 13 c 128,-1,41
 78 -7 78 -7 56 -7 c 0,42,43
 39 -7 39 -7 39 19 c 0,44,45
 39 27 39 27 46 75.5 c 128,-1,46
 53 124 53 124 53 184 c 2,0,-1
EndSplineSet
EndChar

StartChar: o
Encoding: 111 111 82
Width: 389
GlyphClass: 1
Flags: W
LayerCount: 2
Fore
SplineSet
161 -7 m 0,0,1
 116 -7 116 -7 75.5 37 c 128,-1,2
 35 81 35 81 35 133 c 0,3,4
 35 181 35 181 68 229.5 c 128,-1,5
 101 278 101 278 161 317 c 0,6,7
 187 333 187 333 223 333 c 2,8,-1
 228 333 l 2,9,10
 251 333 251 333 261.5 326.5 c 128,-1,11
 272 320 272 320 300 291 c 2,12,-1
 340 249 l 1,13,-1
 343 187 l 2,14,15
 344 173 344 173 344 154 c 0,16,17
 344 133 344 133 338.5 121 c 128,-1,18
 333 109 333 109 312 79 c 0,19,20
 251 -7 251 -7 161 -7 c 0,0,1
85 131 m 0,21,22
 85 96 85 96 107 66.5 c 128,-1,23
 129 37 129 37 158 37 c 0,24,25
 163 37 163 37 177 39 c 0,26,27
 216 43 216 43 238 60.5 c 128,-1,28
 260 78 260 78 293 132 c 0,29,30
 300 143 300 143 300 166 c 0,31,32
 300 197 300 197 294 217.5 c 128,-1,33
 288 238 288 238 281.5 245.5 c 128,-1,34
 275 253 275 253 261 265 c 0,35,36
 229 291 229 291 216 293 c 2,37,-1
 214 293 l 2,38,39
 184 293 184 293 134.5 242 c 128,-1,40
 85 191 85 191 85 131 c 0,21,22
EndSplineSet
EndChar

StartChar: p
Encoding: 112 112 83
Width: 462
GlyphClass: 1
Flags: W
LayerCount: 2
Fore
SplineSet
34 -263 m 2,0,1
 34 -250 34 -250 43.5 -118.5 c 128,-1,2
 53 13 53 13 53 140 c 2,3,-1
 53 167 l 2,4,5
 53 183 53 183 52.5 208 c 128,-1,6
 52 233 52 233 52 242 c 0,7,8
 52 270 52 270 52.5 287 c 128,-1,9
 53 304 53 304 54.5 313 c 128,-1,10
 56 322 56 322 58 325 c 128,-1,11
 60 328 60 328 64 328 c 0,12,13
 89 328 89 328 94.5 307 c 128,-1,14
 100 286 100 286 100 187 c 0,15,16
 100 114 100 114 107 114 c 1,17,-1
 108 115 l 2,18,19
 110 116 110 116 113.5 126 c 128,-1,20
 117 136 117 136 122.5 152 c 128,-1,21
 128 168 128 168 132 178 c 0,22,23
 144 206 144 206 157 226.5 c 128,-1,24
 170 247 170 247 187 262 c 128,-1,25
 204 277 204 277 214 284 c 128,-1,26
 224 291 224 291 247.5 304 c 128,-1,27
 271 317 271 317 280 322 c 0,28,29
 300 334 300 334 329 334 c 2,30,-1
 347 334 l 2,31,32
 364 334 364 334 371.5 329.5 c 128,-1,33
 379 325 379 325 389 310 c 0,34,35
 418 265 418 265 418 219 c 0,36,37
 418 203 418 203 415 182 c 0,38,39
 406 126 406 126 387 91.5 c 128,-1,40
 368 57 368 57 327 19 c 1,41,42
 300 -23 300 -23 277 -23 c 0,43,44
 270 -23 270 -23 260.5 -19.5 c 128,-1,45
 251 -16 251 -16 246 -12 c 2,46,-1
 240 -9 l 1,47,48
 215 -2 215 -2 189 19.5 c 128,-1,49
 163 41 163 41 158 41 c 0,50,51
 134 41 134 41 117 -43.5 c 128,-1,52
 100 -128 100 -128 95 -196 c 128,-1,53
 90 -264 90 -264 90 -282 c 0,54,55
 90 -289 90 -289 84.5 -291.5 c 128,-1,56
 79 -294 79 -294 62 -294 c 0,57,58
 42 -294 42 -294 38 -291 c 128,-1,59
 34 -288 34 -288 34 -271 c 2,60,-1
 34 -263 l 2,0,1
362 270 m 0,61,62
 354 298 354 298 336 298 c 0,63,64
 320 298 320 298 285 280 c 0,65,66
 283 279 283 279 279 277 c 128,-1,67
 275 275 275 275 273 274 c 128,-1,68
 271 273 271 273 268 271 c 128,-1,69
 265 269 265 269 263.5 268 c 128,-1,70
 262 267 262 267 259 265 c 128,-1,71
 256 263 256 263 253.5 261 c 128,-1,72
 251 259 251 259 248 256 c 128,-1,73
 245 253 245 253 241.5 249.5 c 128,-1,74
 238 246 238 246 233.5 241.5 c 128,-1,75
 229 237 229 237 224 231 c 0,76,77
 185 192 185 192 185 132 c 0,78,79
 185 122 185 122 187 96 c 0,80,81
 188 87 188 87 228.5 57.5 c 128,-1,82
 269 28 269 28 279 28 c 0,83,84
 285 28 285 28 316.5 57 c 128,-1,85
 348 86 348 86 357 102 c 0,86,87
 372 129 372 129 372 187 c 0,88,89
 372 230 372 230 362 270 c 0,61,62
EndSplineSet
EndChar

StartChar: q
Encoding: 113 113 84
Width: 349
GlyphClass: 1
Flags: W
LayerCount: 2
Fore
SplineSet
234 155 m 0,0,1
 234 185 234 185 210 225.5 c 128,-1,2
 186 266 186 266 156 266 c 0,3,4
 130 266 130 266 103 223.5 c 128,-1,5
 76 181 76 181 76 114 c 0,6,7
 76 75 76 75 87 63 c 0,8,9
 96 52 96 52 100 52 c 0,10,11
 103 52 103 52 113 58.5 c 128,-1,12
 123 65 123 65 145 79 c 128,-1,13
 167 93 167 93 192 106 c 0,14,15
 204 112 204 112 218 118 c 0,16,17
 226 122 226 122 228 123.5 c 128,-1,18
 230 125 230 125 231 132 c 0,19,20
 232 135 232 135 232 136 c 0,21,22
 234 143 234 143 234 155 c 0,0,1
230 73 m 0,23,24
 224 73 224 73 170 41 c 128,-1,25
 116 9 116 9 94 9 c 128,-1,26
 72 9 72 9 52 38 c 0,27,28
 36 61 36 61 36 114 c 0,29,30
 36 149 36 149 41 168 c 128,-1,31
 46 187 46 187 67 226 c 0,32,33
 99 285 99 285 118 298 c 0,34,35
 138 310 138 310 157 310 c 0,36,37
 178 310 178 310 195.5 298 c 128,-1,38
 213 286 213 286 223 273.5 c 128,-1,39
 233 261 233 261 236 261 c 128,-1,40
 239 261 239 261 239 274 c 0,41,42
 239 318 239 318 264 318 c 0,43,44
 276 318 276 318 290 307 c 128,-1,45
 304 296 304 296 304 285 c 2,46,-1
 302 275 l 2,47,48
 300 265 300 265 297.5 249.5 c 128,-1,49
 295 234 295 234 293 217 c 128,-1,50
 291 200 291 200 289 183 c 128,-1,51
 287 166 287 166 287 155 c 0,52,53
 287 140 287 140 287.5 111.5 c 128,-1,54
 288 83 288 83 289 53 c 128,-1,55
 290 23 290 23 291 -4.5 c 128,-1,56
 292 -32 292 -32 292 -50 c 2,57,-1
 293 -68 l 2,58,59
 294 -106 294 -106 294 -162 c 0,60,61
 294 -178 294 -178 293.5 -199 c 128,-1,62
 293 -220 293 -220 293 -226 c 0,63,64
 293 -258 293 -258 299 -266 c 0,65,66
 312 -284 312 -284 303 -294 c 0,67,68
 294 -305 294 -305 278 -305 c 0,69,70
 264 -305 264 -305 256 -296 c 0,71,72
 254 -294 254 -294 253 -289.5 c 128,-1,73
 252 -285 252 -285 251 -276.5 c 128,-1,74
 250 -268 250 -268 249.5 -259 c 128,-1,75
 249 -250 249 -250 248.5 -235.5 c 128,-1,76
 248 -221 248 -221 247.5 -209 c 128,-1,77
 247 -197 247 -197 247 -177 c 128,-1,78
 247 -157 247 -157 246.5 -143 c 128,-1,79
 246 -129 246 -129 246 -104.5 c 128,-1,80
 246 -80 246 -80 246 -64 c 0,81,82
 246 17 246 17 243 45 c 128,-1,83
 240 73 240 73 230 73 c 0,23,24
EndSplineSet
EndChar

StartChar: r
Encoding: 114 114 85
Width: 427
GlyphClass: 1
Flags: W
LayerCount: 2
Fore
SplineSet
36 272 m 128,-1,1
 36 287 36 287 39 297.5 c 128,-1,2
 42 308 42 308 48 313 c 128,-1,3
 54 318 54 318 58.5 319.5 c 128,-1,4
 63 321 63 321 69 322 c 2,5,-1
 71 322 l 2,6,7
 77 322 77 322 82 314 c 128,-1,8
 87 306 87 306 90.5 292.5 c 128,-1,9
 94 279 94 279 96.5 264 c 128,-1,10
 99 249 99 249 100.5 231 c 128,-1,11
 102 213 102 213 103 200.5 c 128,-1,12
 104 188 104 188 104 175 c 2,13,-1
 105 162 l 1,14,15
 108 173 108 173 110.5 185 c 128,-1,16
 113 197 113 197 115.5 205 c 128,-1,17
 118 213 118 213 125 228 c 0,18,19
 134 246 134 246 142.5 259.5 c 128,-1,20
 151 273 151 273 164.5 288.5 c 128,-1,21
 178 304 178 304 197.5 312 c 128,-1,22
 217 320 217 320 240 320 c 0,23,24
 250 320 250 320 302 311 c 0,25,26
 316 308 316 308 327.5 300.5 c 128,-1,27
 339 293 339 293 352.5 279.5 c 128,-1,28
 366 266 366 266 373 260 c 0,29,30
 386 250 386 250 386 239 c 0,31,32
 386 236 386 236 384.5 231 c 128,-1,33
 383 226 383 226 375.5 219 c 128,-1,34
 368 212 368 212 355 212 c 0,35,36
 346 212 346 212 334 225.5 c 128,-1,37
 322 239 322 239 316 242 c 0,38,39
 271 266 271 266 260 266 c 0,40,41
 232 266 232 266 194 242 c 0,42,43
 188 238 188 238 184 233 c 128,-1,44
 180 228 180 228 179 225 c 128,-1,45
 178 222 178 222 175 213 c 128,-1,46
 172 204 172 204 171 202 c 0,47,48
 162 179 162 179 152 144 c 128,-1,49
 142 109 142 109 136 91 c 0,50,51
 131 79 131 79 131 55.5 c 128,-1,52
 131 32 131 32 124 18 c 0,53,54
 114 -2 114 -2 93 -2 c 0,55,56
 92 -2 92 -2 91 -1.5 c 128,-1,57
 90 -1 90 -1 89 -1 c 0,58,59
 85 -1 85 -1 82.5 0.5 c 128,-1,60
 80 2 80 2 78.5 3 c 128,-1,61
 77 4 77 4 76.5 7.5 c 128,-1,62
 76 11 76 11 75.5 13 c 128,-1,63
 75 15 75 15 74.5 20.5 c 128,-1,64
 74 26 74 26 74 29 c 0,65,66
 71 56 71 56 60 105.5 c 128,-1,67
 49 155 49 155 48 189 c 0,68,69
 48 205 48 205 42 231 c 128,-1,0
 36 257 36 257 36 272 c 128,-1,1
EndSplineSet
EndChar

StartChar: s
Encoding: 115 115 86
Width: 354
GlyphClass: 1
Flags: W
LayerCount: 2
Fore
SplineSet
61 60 m 0,0,1
 64 60 64 60 90.5 48.5 c 128,-1,2
 117 37 117 37 136 37 c 0,3,4
 156 37 156 37 211 70 c 0,5,6
 236 85 236 85 236 93 c 0,7,8
 236 104 236 104 207 117 c 0,9,10
 194 123 194 123 163 128.5 c 128,-1,11
 132 134 132 134 107.5 141 c 128,-1,12
 83 148 83 148 76 159 c 0,13,14
 55 192 55 192 55 219 c 0,15,16
 55 232 55 232 58 247 c 0,17,18
 58 249 58 249 59 253 c 0,19,20
 62 266 62 266 68 270 c 0,21,22
 69 270 69 270 72 272 c 0,23,24
 80 277 80 277 86 281 c 0,25,26
 88 282 88 282 98.5 289.5 c 128,-1,27
 109 297 109 297 111.5 298.5 c 128,-1,28
 114 300 114 300 123 304.5 c 128,-1,29
 132 309 132 309 137 310.5 c 128,-1,30
 142 312 142 312 151 313.5 c 128,-1,31
 160 315 160 315 169 315 c 2,32,-1
 172 315 l 2,33,34
 246 314 246 314 306 277 c 0,35,36
 314 272 314 272 314 265 c 0,37,38
 314 255 314 255 301.5 243 c 128,-1,39
 289 231 289 231 272 231 c 0,40,41
 252 231 252 231 239.5 245.5 c 128,-1,42
 227 260 227 260 223 262 c 0,43,44
 195 276 195 276 182 276 c 0,45,46
 174 276 174 276 170 275 c 0,47,48
 162 272 162 272 154 270.5 c 128,-1,49
 146 269 146 269 142.5 268.5 c 128,-1,50
 139 268 139 268 135 266.5 c 128,-1,51
 131 265 131 265 127.5 261.5 c 128,-1,52
 124 258 124 258 120 252 c 0,53,54
 105 230 105 230 105 216 c 128,-1,55
 105 202 105 202 115 191 c 0,56,57
 128 176 128 176 168 166 c 128,-1,58
 208 156 208 156 219 151 c 0,59,60
 228 147 228 147 243.5 142 c 128,-1,61
 259 137 259 137 268 134 c 128,-1,62
 277 131 277 131 286.5 124.5 c 128,-1,63
 296 118 296 118 300 110 c 0,64,65
 302 104 302 104 302 102 c 0,66,67
 302 95 302 95 296.5 87 c 128,-1,68
 291 79 291 79 285 74 c 128,-1,69
 279 69 279 69 267.5 60.5 c 128,-1,70
 256 52 256 52 253 49 c 0,71,72
 237 36 237 36 207 24.5 c 128,-1,73
 177 13 177 13 167 8 c 0,74,75
 153 1 153 1 134 1 c 0,76,77
 129 1 129 1 109 3.5 c 128,-1,78
 89 6 89 6 64 13 c 128,-1,79
 39 20 39 20 37 29 c 0,80,81
 35 39 35 39 35 41 c 0,82,83
 35 48 35 48 43 54 c 128,-1,84
 51 60 51 60 61 60 c 0,0,1
EndSplineSet
EndChar

StartChar: t
Encoding: 116 116 87
Width: 432
GlyphClass: 1
Flags: W
LayerCount: 2
Fore
SplineSet
377 310 m 0,0,1
 377 303 377 303 374.5 298.5 c 128,-1,2
 372 294 372 294 354 289 c 128,-1,3
 336 284 336 284 302 284 c 2,4,-1
 241 284 l 1,5,-1
 241 273 l 2,6,7
 241 268 241 268 240.5 241.5 c 128,-1,8
 240 215 240 215 240 196 c 0,9,10
 240 116 240 116 245 66 c 0,11,12
 246 55 246 55 258 46.5 c 128,-1,13
 270 38 270 38 284 38 c 2,14,-1
 289 38 l 2,15,16
 304 40 304 40 326 59 c 128,-1,17
 348 78 348 78 363 80 c 2,18,-1
 369 80 l 2,19,20
 394 80 394 80 394 60 c 0,21,22
 394 48 394 48 388 41.5 c 128,-1,23
 382 35 382 35 347 6 c 0,24,25
 319 -16 319 -16 305 -16 c 2,26,-1
 300 -16 l 2,27,28
 297 -16 297 -16 280.5 -15.5 c 128,-1,29
 264 -15 264 -15 255 -13.5 c 128,-1,30
 246 -12 246 -12 233.5 -6 c 128,-1,31
 221 0 221 0 213 10 c 0,32,33
 202 25 202 25 196.5 42 c 128,-1,34
 191 59 191 59 190 71 c 128,-1,35
 189 83 189 83 188.5 105.5 c 128,-1,36
 188 128 188 128 187 140 c 0,37,38
 187 141 187 141 186.5 144.5 c 128,-1,39
 186 148 186 148 186 150 c 0,40,41
 186 168 186 168 189.5 218.5 c 128,-1,42
 193 269 193 269 193 280 c 0,43,44
 193 289 193 289 163 289 c 0,45,46
 150 289 150 289 119 286.5 c 128,-1,47
 88 284 88 284 77 284 c 0,48,49
 60 284 60 284 46.5 292 c 128,-1,50
 33 300 33 300 33 310 c 0,51,52
 33 336 33 336 97 336 c 0,53,54
 110 336 110 336 190 332 c 1,55,56
 191 341 191 341 194.5 403 c 128,-1,57
 198 465 198 465 203 517 c 128,-1,58
 208 569 208 569 214 576 c 0,59,60
 221 585 221 585 238 585 c 0,61,62
 252 585 252 585 252 573 c 128,-1,63
 252 561 252 561 250 550 c 0,64,65
 249 542 249 542 247 500 c 128,-1,66
 245 458 245 458 243 407.5 c 128,-1,67
 241 357 241 357 240 338 c 1,68,69
 255 337 255 337 277 337.5 c 128,-1,70
 299 338 299 338 316.5 337 c 128,-1,71
 334 336 334 336 353 332 c 0,72,73
 377 329 377 329 377 310 c 0,0,1
EndSplineSet
EndChar

StartChar: u
Encoding: 117 117 88
Width: 432
GlyphClass: 1
Flags: W
LayerCount: 2
Fore
SplineSet
143 -1 m 0,0,1
 108 -1 108 -1 72.5 61.5 c 128,-1,2
 37 124 37 124 37 224 c 0,3,4
 37 263 37 263 45 305 c 0,5,6
 48 322 48 322 62 322 c 0,7,8
 71 322 71 322 83 312.5 c 128,-1,9
 95 303 95 303 95 297 c 0,10,11
 95 294 95 294 93 284.5 c 128,-1,12
 91 275 91 275 89 256 c 128,-1,13
 87 237 87 237 87 211 c 0,14,15
 87 145 87 145 105 98 c 128,-1,16
 123 51 123 51 149 51 c 0,17,18
 177 51 177 51 243 131.5 c 128,-1,19
 309 212 309 212 328 278 c 0,20,21
 340 322 340 322 367 322 c 0,22,23
 383 322 383 322 383 271 c 0,24,25
 383 244 383 244 377.5 171 c 128,-1,26
 372 98 372 98 372 83 c 0,27,28
 372 72 372 72 375 53 c 128,-1,29
 378 34 378 34 378 23 c 0,30,31
 378 -2 378 -2 363 -2 c 0,32,33
 326 -2 326 -2 326 84 c 0,34,35
 326 90 326 90 326.5 104 c 128,-1,36
 327 118 327 118 328 133 c 128,-1,37
 329 148 329 148 330 162.5 c 128,-1,38
 331 177 331 177 332 186 c 2,39,-1
 332 196 l 1,40,-1
 331 196 l 2,41,42
 325 196 325 196 296 141 c 0,43,44
 256 69 256 69 215 34 c 128,-1,45
 174 -1 174 -1 143 -1 c 0,0,1
EndSplineSet
EndChar

StartChar: v
Encoding: 118 118 89
Width: 381
GlyphClass: 1
Flags: W
LayerCount: 2
Fore
SplineSet
107 55 m 0,0,1
 107 74 107 74 71 171.5 c 128,-1,2
 35 269 35 269 35 301 c 0,3,4
 35 322 35 322 50 322 c 0,5,6
 64 322 64 322 74 312.5 c 128,-1,7
 84 303 84 303 84 290 c 0,8,9
 84 272 84 272 109.5 200.5 c 128,-1,10
 135 129 135 129 144 118 c 0,11,12
 152 107 152 107 155 108 c 128,-1,13
 158 109 158 109 164 122 c 0,14,15
 183 159 183 159 244 240.5 c 128,-1,16
 305 322 305 322 336 322 c 0,17,18
 339 322 339 322 341 320.5 c 128,-1,19
 343 319 343 319 343 318 c 2,20,-1
 343 316 l 2,21,22
 343 310 343 310 330 286 c 128,-1,23
 317 262 317 262 299 241 c 0,24,25
 246 180 246 180 234 160 c 0,26,27
 212 124 212 124 201 103 c 128,-1,28
 190 82 190 82 188 76 c 128,-1,29
 186 70 186 70 184 62 c 128,-1,30
 182 54 182 54 178 46 c 0,31,32
 172 32 172 32 161 17 c 128,-1,33
 150 2 150 2 145 0 c 0,34,35
 144 0 144 0 143 -0.5 c 128,-1,36
 142 -1 142 -1 141 -1 c 0,37,38
 129 -1 129 -1 118 18 c 128,-1,39
 107 37 107 37 107 55 c 0,0,1
EndSplineSet
EndChar

StartChar: w
Encoding: 119 119 90
Width: 502
GlyphClass: 1
Flags: W
LayerCount: 2
Fore
SplineSet
34 301 m 0,0,1
 34 319 34 319 53 319 c 0,2,3
 60 319 60 319 72 304 c 0,4,5
 82 292 82 292 90 254.5 c 128,-1,6
 98 217 98 217 107 164 c 128,-1,7
 116 111 116 111 125 81 c 0,8,9
 129 65 129 65 147 90 c 0,10,11
 154 100 154 100 154 104 c 0,12,13
 154 106 154 106 163 133.5 c 128,-1,14
 172 161 172 161 185.5 196 c 128,-1,15
 199 231 199 231 208 248 c 0,16,17
 215 261 215 261 224 281.5 c 128,-1,18
 233 302 233 302 238 312 c 128,-1,19
 243 322 243 322 247 322 c 2,20,-1
 248 322 l 1,21,22
 257 318 257 318 265 285.5 c 128,-1,23
 273 253 273 253 273 228 c 0,24,25
 273 200 273 200 280 131 c 128,-1,26
 287 62 287 62 292 62 c 1,27,-1
 320 105 l 2,28,29
 329 121 329 121 352 167.5 c 128,-1,30
 375 214 375 214 392.5 245.5 c 128,-1,31
 410 277 410 277 423 293 c 0,32,33
 445 319 445 319 458 319 c 0,34,35
 465 319 465 319 465 309 c 0,36,37
 465 304 465 304 460.5 298.5 c 128,-1,38
 456 293 456 293 447.5 284 c 128,-1,39
 439 275 439 275 434 267 c 0,40,41
 405 218 405 218 373.5 144.5 c 128,-1,42
 342 71 342 71 321.5 35 c 128,-1,43
 301 -1 301 -1 280 -1 c 1,44,-1
 279 0 l 1,45,-1
 278 0 l 2,46,47
 267 1 267 1 254.5 32.5 c 128,-1,48
 242 64 242 64 237 96 c 0,49,50
 236 104 236 104 235.5 137.5 c 128,-1,51
 235 171 235 171 234.5 199.5 c 128,-1,52
 234 228 234 228 233 228 c 0,53,54
 228 228 228 228 201 156 c 128,-1,55
 174 84 174 84 165 54 c 0,56,57
 160 35 160 35 145.5 17.5 c 128,-1,58
 131 0 131 0 121 0 c 0,59,60
 110 0 110 0 101 17 c 0,61,62
 93 33 93 33 77 109 c 128,-1,63
 61 185 61 185 57 223 c 0,64,65
 54 256 54 256 44 276 c 128,-1,66
 34 296 34 296 34 301 c 0,0,1
EndSplineSet
EndChar

StartChar: x
Encoding: 120 120 91
Width: 427
GlyphClass: 1
Flags: W
LayerCount: 2
Fore
SplineSet
313 299 m 2,0,-1
 318 302 l 2,1,2
 322 304 322 304 329 307 c 128,-1,3
 336 310 336 310 344 313.5 c 128,-1,4
 352 317 352 317 360.5 319.5 c 128,-1,5
 369 322 369 322 376 322 c 0,6,7
 390 322 390 322 390 314 c 0,8,9
 390 304 390 304 340 268 c 0,10,11
 333 263 333 263 294 228 c 0,12,13
 220 163 220 163 220 134 c 0,14,15
 220 114 220 114 256.5 71 c 128,-1,16
 293 28 293 28 293 16 c 0,17,18
 293 9 293 9 284.5 4.5 c 128,-1,19
 276 0 276 0 271 0 c 0,20,21
 259 0 259 0 192 76 c 2,22,-1
 172 98 l 1,23,-1
 136 66 l 2,24,25
 99 35 99 35 97 20 c 0,26,27
 92 -1 92 -1 79 -1 c 0,28,29
 65 -1 65 -1 50 11.5 c 128,-1,30
 35 24 35 24 35 35 c 0,31,32
 35 41 35 41 91 97 c 2,33,-1
 150 155 l 1,34,-1
 118 212 l 2,35,36
 105 237 105 237 88 252 c 0,37,38
 86 254 86 254 83 256.5 c 128,-1,39
 80 259 80 259 78.5 260 c 128,-1,40
 77 261 77 261 75 263 c 128,-1,41
 73 265 73 265 72 266 c 128,-1,42
 71 267 71 267 69.5 268.5 c 128,-1,43
 68 270 68 270 67.5 271 c 128,-1,44
 67 272 67 272 66.5 273.5 c 128,-1,45
 66 275 66 275 65.5 276 c 128,-1,46
 65 277 65 277 65 278.5 c 128,-1,47
 65 280 65 280 65 282 c 0,48,49
 65 283 65 283 65.5 286.5 c 128,-1,50
 66 290 66 290 66 293 c 0,51,52
 69 322 69 322 90 322 c 0,53,54
 102 322 102 322 115 312 c 0,55,56
 123 307 123 307 124.5 304 c 128,-1,57
 126 301 126 301 144 267 c 0,58,59
 188 183 188 183 193 183 c 2,60,-1
 204 196 l 2,61,62
 215 209 215 209 236.5 232.5 c 128,-1,63
 258 256 258 256 280 275 c 0,64,65
 311 301 311 301 312 301 c 1,66,67
 312 299 312 299 313 299 c 2,0,-1
EndSplineSet
EndChar

StartChar: y
Encoding: 121 121 92
Width: 381
GlyphClass: 1
Flags: W
LayerCount: 2
Fore
SplineSet
61 322 m 0,0,1
 71 322 71 322 77 317.5 c 128,-1,2
 83 313 83 313 85.5 303 c 128,-1,3
 88 293 88 293 89 284 c 128,-1,4
 90 275 90 275 90.5 258.5 c 128,-1,5
 91 242 91 242 92 233 c 0,6,7
 96 185 96 185 120.5 115.5 c 128,-1,8
 145 46 145 46 156 46 c 0,9,10
 166 46 166 46 200.5 116.5 c 128,-1,11
 235 187 235 187 255 239 c 0,12,13
 270 278 270 278 289 300 c 128,-1,14
 308 322 308 322 327 322 c 0,15,16
 342 322 342 322 342 309 c 0,17,18
 342 287 342 287 295 192 c 0,19,20
 283 167 283 167 261 117 c 128,-1,21
 239 67 239 67 222.5 27.5 c 128,-1,22
 206 -12 206 -12 206 -14 c 0,23,24
 206 -19 206 -19 184.5 -62.5 c 128,-1,25
 163 -106 163 -106 135 -160.5 c 128,-1,26
 107 -215 107 -215 99 -234 c 0,27,28
 80 -278 80 -278 69.5 -292 c 128,-1,29
 59 -306 59 -306 46 -306 c 0,30,31
 34 -306 34 -306 34 -294 c 0,32,33
 34 -284 34 -284 43 -263 c 128,-1,34
 52 -242 52 -242 67 -210.5 c 128,-1,35
 82 -179 82 -179 91 -156 c 0,36,37
 94 -147 94 -147 109.5 -115.5 c 128,-1,38
 125 -84 125 -84 136 -56.5 c 128,-1,39
 147 -29 147 -29 147 -17 c 0,40,41
 147 -3 147 -3 129.5 5.5 c 128,-1,42
 112 14 112 14 108 22 c 0,43,44
 90 55 90 55 65.5 139 c 128,-1,45
 41 223 41 223 41 281 c 0,46,47
 41 322 41 322 61 322 c 0,0,1
EndSplineSet
EndChar

StartChar: z
Encoding: 122 122 93
Width: 448
GlyphClass: 1
Flags: W
LayerCount: 2
Fore
SplineSet
101 311 m 2,0,1
 122 311 122 311 156 316.5 c 128,-1,2
 190 322 190 322 215 322 c 2,3,-1
 223 322 l 2,4,5
 245 322 245 322 315 313 c 128,-1,6
 385 304 385 304 385 290 c 0,7,8
 385 270 385 270 251 167 c 128,-1,9
 117 64 117 64 117 55 c 0,10,11
 117 52 117 52 124 52 c 2,12,-1
 133 52 l 2,13,14
 157 52 157 52 170 51 c 0,15,16
 172 51 172 51 176.5 50.5 c 128,-1,17
 181 50 181 50 184 50 c 0,18,19
 189 50 189 50 230 51.5 c 128,-1,20
 271 53 271 53 310.5 54.5 c 128,-1,21
 350 56 350 56 351 56 c 0,22,23
 410 56 410 56 410 41 c 0,24,25
 410 32 410 32 394 24 c 128,-1,26
 378 16 378 16 357 16 c 2,27,-1
 341 16 l 2,28,29
 337 16 337 16 282.5 8 c 128,-1,30
 228 0 228 0 175 0 c 0,31,32
 87 0 87 0 49 18 c 0,33,34
 35 25 35 25 35 40 c 0,35,36
 35 58 35 58 56 67 c 0,37,38
 69 73 69 73 179 167 c 0,39,40
 187 174 187 174 218 199 c 128,-1,41
 249 224 249 224 274.5 244.5 c 128,-1,42
 300 265 300 265 300 266 c 0,43,44
 301 268 301 268 297 269.5 c 128,-1,45
 293 271 293 271 285 272 c 128,-1,46
 277 273 277 273 267.5 273.5 c 128,-1,47
 258 274 258 274 245 274 c 0,48,49
 210 274 210 274 176 271 c 128,-1,50
 142 268 142 268 125 268 c 0,51,52
 61 268 61 268 61 286 c 0,53,54
 61 311 61 311 88 311 c 2,55,-1
 101 311 l 2,0,1
EndSplineSet
EndChar

StartChar: braceleft
Encoding: 123 123 94
Width: 433
GlyphClass: 1
Flags: W
LayerCount: 2
Fore
SplineSet
192 626 m 0,0,1
 192 660 192 660 196.5 681 c 128,-1,2
 201 702 201 702 210 710 c 128,-1,3
 219 718 219 718 225 720 c 128,-1,4
 231 722 231 722 241 722 c 0,5,6
 278 722 278 722 338.5 706.5 c 128,-1,7
 399 691 399 691 399 672 c 0,8,9
 399 666 399 666 384 654.5 c 128,-1,10
 369 643 369 643 355 643 c 0,11,12
 342 643 342 643 310.5 656.5 c 128,-1,13
 279 670 279 670 272 670 c 0,14,15
 266 670 266 670 253 659 c 0,16,17
 241 648 241 648 241 624 c 0,18,19
 241 603 241 603 247 533.5 c 128,-1,20
 253 464 253 464 253 441 c 0,21,22
 253 411 253 411 242 386 c 2,23,-1
 228 351 l 1,24,-1
 255 329 l 2,25,26
 270 316 270 316 274.5 309.5 c 128,-1,27
 279 303 279 303 279 289 c 0,28,29
 279 227 279 227 247 122 c 128,-1,30
 215 17 215 17 215 13 c 0,31,32
 215 5 215 5 221 5 c 0,33,34
 228 5 228 5 271.5 31 c 128,-1,35
 315 57 315 57 338 57 c 0,36,37
 349 57 349 57 358 51.5 c 128,-1,38
 367 46 367 46 370.5 38.5 c 128,-1,39
 374 31 374 31 371 27 c 0,40,41
 370 25 370 25 355.5 20 c 128,-1,42
 341 15 341 15 305 -0.5 c 128,-1,43
 269 -16 269 -16 226 -39 c 0,44,45
 212 -47 212 -47 205 -47 c 0,46,47
 200 -47 200 -47 195 -45.5 c 128,-1,48
 190 -44 190 -44 182.5 -32.5 c 128,-1,49
 175 -21 175 -21 175 -2 c 0,50,51
 175 31 175 31 202.5 124.5 c 128,-1,52
 230 218 230 218 230 252 c 0,53,54
 230 280 230 280 227 288 c 128,-1,55
 224 296 224 296 210 302 c 0,56,57
 202 306 202 306 192 306 c 0,58,59
 179 306 179 306 148 293 c 128,-1,60
 117 280 117 280 102 280 c 0,61,62
 85 280 85 280 60 294 c 128,-1,63
 35 308 35 308 35 324 c 0,64,65
 35 336 35 336 52 350 c 128,-1,66
 69 364 69 364 127 364 c 2,67,-1
 185 364 l 1,68,-1
 199 390 l 2,69,70
 210 410 210 410 210 450 c 0,71,72
 210 486 210 486 201 542.5 c 128,-1,73
 192 599 192 599 192 626 c 0,0,1
EndSplineSet
EndChar

StartChar: bar
Encoding: 124 124 95
Width: 160
GlyphClass: 1
Flags: W
LayerCount: 2
Fore
SplineSet
92 576 m 2,0,1
 92 442 92 442 106 246 c 128,-1,2
 120 50 120 50 120 -19 c 0,3,4
 120 -84 120 -84 111 -89 c 0,5,6
 99 -96 99 -96 85 -92 c 0,7,8
 76 -89 76 -89 73.5 -68.5 c 128,-1,9
 71 -48 71 -48 71 24 c 0,10,11
 71 132 71 132 63 154 c 0,12,13
 57 169 57 169 49 340 c 128,-1,14
 41 511 41 511 41 619 c 0,15,16
 41 658 41 658 43 682 c 0,17,18
 46 717 46 717 49 725.5 c 128,-1,19
 52 734 52 734 61 734 c 2,20,-1
 70 734 l 1,21,-1
 92 731 l 1,22,-1
 92 576 l 2,0,1
EndSplineSet
EndChar

StartChar: braceright
Encoding: 125 125 96
Width: 398
GlyphClass: 1
Flags: W
LayerCount: 2
Fore
SplineSet
97 682 m 0,0,1
 97 701 97 701 122.5 718.5 c 128,-1,2
 148 736 148 736 180 736 c 0,3,4
 241 736 241 736 241 684 c 0,5,6
 241 659 241 659 219 605 c 128,-1,7
 197 551 197 551 197 507 c 0,8,9
 197 470 197 470 205.5 441 c 128,-1,10
 214 412 214 412 224.5 399 c 128,-1,11
 235 386 235 386 243 386 c 0,12,13
 247 386 247 386 269.5 391 c 128,-1,14
 292 396 292 396 314 396 c 0,15,16
 364 396 364 396 364 377 c 0,17,18
 364 365 364 365 332 343.5 c 128,-1,19
 300 322 300 322 282 322 c 0,20,21
 261 322 261 322 250 311 c 0,22,23
 241 301 241 301 231.5 250.5 c 128,-1,24
 222 200 222 200 222 162 c 0,25,26
 222 140 222 140 226.5 128 c 128,-1,27
 231 116 231 116 231 111 c 0,28,29
 231 100 231 100 218 83 c 0,30,31
 179 26 179 26 149 0.5 c 128,-1,32
 119 -25 119 -25 76 -25 c 0,33,34
 51 -25 51 -25 45 -21.5 c 128,-1,35
 39 -18 39 -18 35 -2 c 0,36,37
 33 8 33 8 33 10 c 0,38,39
 33 30 33 30 49 30 c 0,40,41
 57 30 57 30 71.5 21 c 128,-1,42
 86 12 86 12 87 12 c 0,43,44
 89 12 89 12 92 16 c 128,-1,45
 95 20 95 20 106 31.5 c 128,-1,46
 117 43 117 43 133 57 c 1,47,48
 181 82 181 82 181 124 c 1,49,-1
 176 164 l 2,50,51
 176 177 176 177 179.5 200 c 128,-1,52
 183 223 183 223 187.5 247 c 128,-1,53
 192 271 192 271 197 293 c 128,-1,54
 202 315 202 315 206 330 c 2,55,-1
 209 345 l 2,56,57
 209 355 209 355 200 364 c 0,58,59
 178 386 178 386 165.5 428.5 c 128,-1,60
 153 471 153 471 153 512 c 0,61,62
 153 545 153 545 183 634 c 2,63,-1
 199 684 l 1,64,-1
 182 684 l 2,65,66
 169 684 169 684 149.5 670 c 128,-1,67
 130 656 130 656 124 656 c 0,68,69
 116 656 116 656 106.5 663 c 128,-1,70
 97 670 97 670 97 682 c 0,0,1
EndSplineSet
EndChar

StartChar: asciitilde
Encoding: 126 126 97
Width: 466
GlyphClass: 1
Flags: W
LayerCount: 2
Fore
SplineSet
40 264 m 0,0,1
 40 287 40 287 88 332 c 128,-1,2
 136 377 136 377 173 377 c 0,3,4
 207 377 207 377 207 340 c 0,5,6
 207 327 207 327 220 307.5 c 128,-1,7
 233 288 233 288 258 288 c 0,8,9
 287 288 287 288 354 328 c 2,10,-1
 422 369 l 2,11,12
 427 369 427 369 427 357 c 0,13,14
 427 349 427 349 400 322.5 c 128,-1,15
 373 296 373 296 329.5 270 c 128,-1,16
 286 244 286 244 253 244 c 0,17,18
 218 244 218 244 198 264 c 128,-1,19
 178 284 178 284 169 304 c 128,-1,20
 160 324 160 324 153 324 c 0,21,22
 137 324 137 324 90 262 c 0,23,24
 76 244 76 244 63 244 c 0,25,26
 54 244 54 244 47 251 c 128,-1,27
 40 258 40 258 40 264 c 0,0,1
EndSplineSet
EndChar

StartChar: exclamdown
Encoding: 161 161 99
Width: 152
GlyphClass: 1
Flags: W
LayerCount: 2
Fore
SplineSet
38 611 m 0,0,1
 38 605 38 605 40 593.5 c 128,-1,2
 42 582 42 582 54 565.5 c 128,-1,3
 66 549 66 549 86 549 c 0,4,5
 114 549 114 549 114 568 c 0,6,7
 114 581 114 581 97 611.5 c 128,-1,8
 80 642 80 642 65 642 c 0,9,10
 63 642 63 642 57.5 640 c 128,-1,11
 52 638 52 638 45 630.5 c 128,-1,12
 38 623 38 623 38 611 c 0,0,1
102 51 m 0,13,14
 102 78 102 78 100 130.5 c 128,-1,15
 98 183 98 183 98 186 c 0,16,17
 98 197 98 197 99 218.5 c 128,-1,18
 100 240 100 240 100 258 c 0,19,20
 100 262 100 262 99.5 270.5 c 128,-1,21
 99 279 99 279 99 284 c 0,22,23
 97 404 97 404 95.5 424 c 128,-1,24
 94 444 94 444 85 444 c 0,25,26
 84 444 84 444 82 443.5 c 128,-1,27
 80 443 80 443 79 443 c 0,28,29
 62 443 62 443 56 412.5 c 128,-1,30
 50 382 50 382 50 297 c 2,31,-1
 50 265 l 2,32,33
 51 68 51 68 76 12 c 0,34,35
 86 -12 86 -12 93 -12 c 0,36,37
 102 -12 102 -12 102 51 c 0,13,14
EndSplineSet
EndChar

StartChar: cent
Encoding: 162 162 100
Width: 363
GlyphClass: 1
Flags: W
LayerCount: 2
Fore
SplineSet
36 125 m 0,0,1
 36 206 36 206 84.5 269 c 128,-1,2
 133 332 133 332 180 332 c 0,3,4
 201 332 201 332 234 316 c 0,5,6
 255 306 255 306 262.5 298.5 c 128,-1,7
 270 291 270 291 272 279 c 0,8,9
 272 277 272 277 272.5 274.5 c 128,-1,10
 273 272 273 272 273 271 c 0,11,12
 273 259 273 259 255 259 c 0,13,14
 240 259 240 259 222 273.5 c 128,-1,15
 204 288 204 288 192 288 c 0,16,17
 186 288 186 288 174 285.5 c 128,-1,18
 162 283 162 283 140 266.5 c 128,-1,19
 118 250 118 250 107 222 c 0,20,21
 89 174 89 174 89 137 c 0,22,23
 89 62 89 62 146 38 c 0,24,25
 158 34 158 34 185 34 c 0,26,27
 226 34 226 34 267 49.5 c 128,-1,28
 308 65 308 65 317 65 c 0,29,30
 327 65 327 65 327 56 c 0,31,32
 327 43 327 43 313.5 28 c 128,-1,33
 300 13 300 13 276 8 c 0,34,35
 208 -5 208 -5 172 -5 c 0,36,37
 132 -5 132 -5 85 22 c 0,38,39
 36 49 36 49 36 125 c 0,0,1
152 384 m 0,40,41
 152 451 152 451 156 472.5 c 128,-1,42
 160 494 160 494 172 494 c 2,43,-1
 180 494 l 1,44,-1
 202 492 l 1,45,-1
 202 396 l 2,46,47
 202 261 202 261 215 81 c 128,-1,48
 228 -99 228 -99 228 -142 c 0,49,50
 228 -201 228 -201 218 -207 c 0,51,52
 206 -214 206 -214 191 -210 c 0,53,54
 182 -207 182 -207 180 -187.5 c 128,-1,55
 178 -168 178 -168 178 -94 c 2,56,-1
 178 -72 l 2,57,58
 178 -35 178 -35 174 -26 c 0,59,60
 168 -11 168 -11 160 138 c 128,-1,61
 152 287 152 287 152 384 c 0,40,41
EndSplineSet
EndChar

StartChar: sterling
Encoding: 163 163 101
Width: 603
GlyphClass: 1
Flags: W
LayerCount: 2
Fore
SplineSet
111 374 m 0,0,1
 130 374 130 374 165 366 c 128,-1,2
 200 358 200 358 208 358 c 0,3,4
 224 358 224 358 228.5 371 c 128,-1,5
 233 384 233 384 234 423 c 0,6,7
 235 477 235 477 253.5 526 c 128,-1,8
 272 575 272 575 298 591 c 0,9,10
 325 607 325 607 346 607 c 2,11,-1
 347 607 l 2,12,13
 369 606 369 606 393 592.5 c 128,-1,14
 417 579 417 579 419 566 c 0,15,16
 421 555 421 555 441 542.5 c 128,-1,17
 461 530 461 530 461 521 c 128,-1,18
 461 512 461 512 449 512 c 0,19,20
 435 512 435 512 412.5 523 c 128,-1,21
 390 534 390 534 377 548 c 0,22,23
 362 563 362 563 347 563 c 0,24,25
 316 563 316 563 299 509 c 128,-1,26
 282 455 282 455 282 406 c 2,27,-1
 282 356 l 1,28,-1
 309 356 l 2,29,30
 326 356 326 356 405 345 c 128,-1,31
 484 334 484 334 517 334 c 0,32,33
 560 334 560 334 565 322 c 0,34,35
 570 312 570 312 564 306 c 0,36,37
 553 295 553 295 460 295 c 0,38,39
 426 295 426 295 379.5 298 c 128,-1,40
 333 301 333 301 312 301 c 0,41,42
 284 301 284 301 274.5 296 c 128,-1,43
 265 291 265 291 262 276 c 0,44,45
 258 262 258 262 246.5 230.5 c 128,-1,46
 235 199 235 199 226 174 c 128,-1,47
 217 149 217 149 217 145 c 128,-1,48
 217 141 217 141 249 117 c 128,-1,49
 281 93 281 93 321.5 70 c 128,-1,50
 362 47 362 47 381 47 c 0,51,52
 403 47 403 47 457 77 c 128,-1,53
 511 107 511 107 523 107 c 0,54,55
 532 107 532 107 532 99 c 0,56,57
 532 82 532 82 458 30 c 0,58,59
 414 0 414 0 378 0 c 0,60,61
 348 0 348 0 315.5 17 c 128,-1,62
 283 34 283 34 259 50.5 c 128,-1,63
 235 67 235 67 224 67 c 0,64,65
 212 67 212 67 201 58 c 128,-1,66
 190 49 190 49 182 37.5 c 128,-1,67
 174 26 174 26 158.5 17 c 128,-1,68
 143 8 143 8 123 8 c 0,69,70
 105 8 105 8 69 25.5 c 128,-1,71
 33 43 33 43 33 65 c 0,72,73
 33 80 33 80 42 84 c 128,-1,74
 51 88 51 88 68 88 c 0,75,76
 75 88 75 88 88.5 85.5 c 128,-1,77
 102 83 102 83 107 83 c 0,78,79
 116 83 116 83 126.5 91.5 c 128,-1,80
 137 100 137 100 146.5 111 c 128,-1,81
 156 122 156 122 159 124 c 0,82,83
 169 131 169 131 191.5 201 c 128,-1,84
 214 271 214 271 214 291 c 0,85,86
 214 301 214 301 182 306.5 c 128,-1,87
 150 312 150 312 118.5 321.5 c 128,-1,88
 87 331 87 331 87 352 c 0,89,90
 87 374 87 374 111 374 c 0,0,1
EndSplineSet
EndChar

StartChar: currency
Encoding: 164 164 102
Width: 427
GlyphClass: 1
Flags: W
LayerCount: 2
Fore
SplineSet
145 265 m 1,0,1
 180 290 180 290 217 290 c 2,2,-1
 222 290 l 2,3,4
 239 290 239 290 247.5 286 c 128,-1,5
 256 282 256 282 272 267 c 1,6,7
 308 301 308 301 312 301 c 1,8,9
 312 299 312 299 313 299 c 2,10,-1
 318 302 l 2,11,12
 322 304 322 304 329 307 c 128,-1,13
 336 310 336 310 344 313.5 c 128,-1,14
 352 317 352 317 360.5 319.5 c 128,-1,15
 369 322 369 322 376 322 c 0,16,17
 390 322 390 322 390 314 c 0,18,19
 390 304 390 304 340 268 c 0,20,21
 335 264 335 264 304 237 c 1,22,-1
 315 226 l 1,23,-1
 317 180 l 2,24,25
 318 169 318 169 318 154 c 0,26,27
 318 138 318 138 313.5 129 c 128,-1,28
 309 120 309 120 291 97 c 0,29,30
 278 80 278 80 261 66 c 1,31,32
 293 28 293 28 293 16 c 0,33,34
 293 9 293 9 284.5 4.5 c 128,-1,35
 276 0 276 0 271 0 c 0,36,37
 259 0 259 0 222 42 c 1,38,39
 195 31 195 31 166 31 c 0,40,41
 144 31 144 31 117 48 c 1,42,43
 100 29 100 29 97 20 c 0,44,45
 92 -1 92 -1 79 -1 c 0,46,47
 65 -1 65 -1 50 11.5 c 128,-1,48
 35 24 35 24 35 35 c 0,49,50
 35 41 35 41 79 85 c 1,51,52
 62 120 62 120 62 138 c 0,53,54
 62 185 62 185 107 232 c 1,55,56
 102 241 102 241 83.5 256 c 128,-1,57
 65 271 65 271 65 282 c 0,58,59
 65 283 65 283 65.5 286.5 c 128,-1,60
 66 290 66 290 66 293 c 0,61,62
 69 322 69 322 90 322 c 0,63,64
 102 322 102 322 115 312 c 0,65,66
 123 307 123 307 124.5 304 c 128,-1,67
 126 301 126 301 144 267 c 0,68,69
 144 266 144 266 144.5 266 c 128,-1,70
 145 266 145 266 145 265 c 1,0,1
266 122 m 0,71,72
 281 135 281 135 281 175 c 0,73,74
 281 176 281 176 280.5 179 c 128,-1,75
 280 182 280 182 280 184 c 0,76,77
 280 189 280 189 275 201 c 128,-1,78
 270 213 270 213 265 224 c 128,-1,79
 260 235 260 235 259 237 c 0,80,81
 234 256 234 256 212 260 c 1,82,-1
 210 260 l 2,83,84
 189 260 189 260 153 230 c 0,85,86
 151 226 151 226 139.5 215 c 128,-1,87
 128 204 128 204 119.5 188.5 c 128,-1,88
 111 173 111 173 111 150 c 0,89,90
 111 124 111 124 121 96 c 1,91,92
 152 66 152 66 174 66 c 2,93,-1
 179 66 l 2,94,95
 186 67 186 67 198 69 c 0,96,97
 216 77 216 77 233 89.5 c 128,-1,98
 250 102 250 102 258 111 c 128,-1,99
 266 120 266 120 266 122 c 0,71,72
EndSplineSet
EndChar

StartChar: yen
Encoding: 165 165 103
Width: 488
GlyphClass: 1
Flags: W
LayerCount: 2
Fore
SplineSet
199 336 m 1,0,1
 120 543 120 543 107 580 c 128,-1,2
 94 617 94 617 94 632 c 0,3,4
 94 643 94 643 108 643 c 0,5,6
 128 643 128 643 144 609 c 128,-1,7
 160 575 160 575 201 446 c 0,8,9
 215 400 215 400 224 400 c 0,10,11
 227 400 227 400 230 406 c 0,12,13
 231 407 231 407 243.5 420.5 c 128,-1,14
 256 434 256 434 276.5 461.5 c 128,-1,15
 297 489 297 489 315 524 c 0,16,17
 317 528 317 528 327.5 551.5 c 128,-1,18
 338 575 338 575 347 593 c 128,-1,19
 356 611 356 611 368 627 c 128,-1,20
 380 643 380 643 390 643 c 0,21,22
 408 643 408 643 408 627 c 0,23,24
 408 617 408 617 401 601 c 128,-1,25
 394 585 394 585 382.5 565 c 128,-1,26
 371 545 371 545 368 538 c 0,27,28
 364 529 364 529 342 487.5 c 128,-1,29
 320 446 320 446 315 431 c 1,30,-1
 254 358 l 1,31,-1
 257 316 l 2,32,33
 262 244 262 244 262 198 c 0,34,35
 262 75 262 75 248 24 c 0,36,37
 243 2 243 2 223 2 c 0,38,39
 216 2 216 2 208 8 c 0,40,41
 197 19 197 19 197 238 c 0,42,43
 197 282 197 282 199 336 c 1,0,1
240 143 m 2,44,45
 283 143 283 143 337 148.5 c 128,-1,46
 391 154 391 154 415 154 c 2,47,-1
 426 154 l 2,48,49
 438 153 438 153 446 146.5 c 128,-1,50
 454 140 454 140 454 134 c 0,51,52
 454 127 454 127 447 126 c 0,53,54
 381 106 381 106 248 101.5 c 128,-1,55
 115 97 115 97 97 93 c 0,56,57
 87 91 87 91 82 91 c 0,58,59
 51 91 51 91 51 111 c 0,60,61
 51 146 51 146 143 146 c 0,62,63
 149 146 149 146 173 145 c 128,-1,64
 197 144 197 144 218 144 c 2,65,-1
 240 143 l 2,44,45
86 306 m 0,66,67
 122 310 122 310 274 310 c 0,68,69
 349 310 349 310 411 308 c 0,70,71
 417 308 417 308 415 291 c 0,72,73
 413 280 413 280 399.5 276 c 128,-1,74
 386 272 386 272 327 266 c 0,75,76
 241 258 241 258 153 258 c 2,77,-1
 139 258 l 2,78,79
 71 259 71 259 53.5 261.5 c 128,-1,80
 36 264 36 264 34 274 c 2,81,-1
 34 280 l 2,82,83
 34 291 34 291 45 296.5 c 128,-1,84
 56 302 56 302 86 306 c 0,66,67
EndSplineSet
EndChar

StartChar: brokenbar
Encoding: 166 166 104
Width: 162
GlyphClass: 1
Flags: W
LayerCount: 2
Fore
SplineSet
72 24 m 0,0,1
 72 102 72 102 61.5 167.5 c 128,-1,2
 51 233 51 233 47 322 c 1,3,-1
 102 322 l 1,4,5
 123 14 123 14 123 -21 c 0,6,7
 123 -83 123 -83 112 -89 c 0,8,9
 100 -96 100 -96 86 -92 c 0,10,11
 77 -89 77 -89 74.5 -68.5 c 128,-1,12
 72 -48 72 -48 72 24 c 0,0,1
100 380 m 1,13,-1
 46 380 l 1,14,15
 41 495 41 495 41 579 c 0,16,17
 41 655 41 655 44 682 c 0,18,19
 47 717 47 717 50 725.5 c 128,-1,20
 53 734 53 734 62 734 c 2,21,-1
 71 734 l 1,22,-1
 93 731 l 1,23,-1
 93 576 l 2,24,25
 93 511 93 511 100 380 c 1,13,-1
EndSplineSet
EndChar

StartChar: section
Encoding: 167 167 105
Width: 420
GlyphClass: 1
Flags: W
LayerCount: 2
Fore
SplineSet
58 56 m 0,0,1
 73 56 73 56 105.5 49.5 c 128,-1,2
 138 43 138 43 154 43 c 0,3,4
 173 43 173 43 184 46 c 0,5,6
 196 49 196 49 208 54.5 c 128,-1,7
 220 60 220 60 228 65.5 c 128,-1,8
 236 71 236 71 249 80 c 128,-1,9
 262 89 262 89 270 94 c 0,10,11
 297 112 297 112 303.5 120 c 128,-1,12
 310 128 310 128 310 146 c 0,13,14
 310 167 310 167 296.5 180 c 128,-1,15
 283 193 283 193 213 243 c 0,16,17
 197 254 197 254 176 270 c 0,18,19
 101 325 101 325 101 372 c 0,20,21
 101 406 101 406 161 437 c 0,22,23
 198 456 198 456 225 456 c 0,24,25
 229 456 229 456 238 455.5 c 128,-1,26
 247 455 247 455 253 455 c 2,27,-1
 254 455 l 1,28,29
 227 472 227 472 201 491 c 128,-1,30
 175 510 175 510 147 542.5 c 128,-1,31
 119 575 119 575 119 600 c 0,32,33
 119 634 119 634 179 665 c 0,34,35
 216 684 216 684 244 684 c 0,36,37
 248 684 248 684 257 683.5 c 128,-1,38
 266 683 266 683 272 683 c 0,39,40
 322 681 322 681 353 669 c 128,-1,41
 384 657 384 657 384 640 c 0,42,43
 384 620 384 620 369 620 c 0,44,45
 361 620 361 620 353.5 625 c 128,-1,46
 346 630 346 630 338.5 635.5 c 128,-1,47
 331 641 331 641 307.5 646 c 128,-1,48
 284 651 284 651 248 651 c 0,49,50
 222 651 222 651 197 636 c 0,51,52
 169 620 169 620 169 604 c 0,53,54
 169 587 169 587 196 559 c 128,-1,55
 223 531 223 531 243.5 515.5 c 128,-1,56
 264 500 264 500 281 488 c 0,57,58
 325 457 325 457 352 432 c 0,59,60
 384 407 384 407 384 373 c 0,61,62
 384 340 384 340 358.5 319 c 128,-1,63
 333 298 333 298 255 265 c 1,64,65
 256 264 256 264 258.5 262.5 c 128,-1,66
 261 261 261 261 262 260 c 0,67,68
 322 219 322 219 343.5 195 c 128,-1,69
 365 171 365 171 365 145 c 0,70,71
 365 111 365 111 341 92.5 c 128,-1,72
 317 74 317 74 235 36 c 0,73,74
 232 35 232 35 221 28.5 c 128,-1,75
 210 22 210 22 197.5 17 c 128,-1,76
 185 12 185 12 172 10 c 0,77,78
 167 9 167 9 157 9 c 0,79,80
 136 9 136 9 99.5 16 c 128,-1,81
 63 23 63 23 60 23 c 0,82,83
 33 26 33 26 33 39 c 0,84,85
 33 56 33 56 58 56 c 0,0,1
310 413 m 1,86,87
 290 423 290 423 230 423 c 0,88,89
 204 423 204 423 179 408 c 0,90,91
 151 392 151 392 151 376 c 0,92,93
 151 355 151 355 169.5 326 c 128,-1,94
 188 297 188 297 224 294 c 2,95,-1
 225 294 l 1,96,-1
 226 293 l 1,97,98
 245 293 245 293 288 321 c 0,99,100
 315 339 315 339 321.5 347 c 128,-1,101
 328 355 328 355 328 373 c 0,102,103
 328 396 328 396 310 413 c 1,86,87
EndSplineSet
EndChar

StartChar: dieresis
Encoding: 168 168 106
Width: 440
GlyphClass: 1
Flags: W
LayerCount: 2
Fore
SplineSet
315 716 m 0,0,1
 315 742 315 742 323.5 750 c 128,-1,2
 332 758 332 758 349 758 c 0,3,4
 388 758 388 758 388 721 c 0,5,6
 388 700 388 700 377.5 685.5 c 128,-1,7
 367 671 367 671 346 671 c 0,8,9
 315 671 315 671 315 716 c 0,0,1
60 707 m 0,10,11
 66 707 66 707 81 732.5 c 128,-1,12
 96 758 96 758 111 758 c 0,13,14
 142 758 142 758 142 721 c 0,15,16
 142 692 142 692 126 670 c 128,-1,17
 110 648 110 648 93 648 c 0,18,19
 78 648 78 648 65 662 c 128,-1,20
 52 676 52 676 52 693 c 0,21,22
 52 707 52 707 60 707 c 0,10,11
EndSplineSet
EndChar

StartChar: copyright
Encoding: 169 169 107
Width: 587
GlyphClass: 1
Flags: W
LayerCount: 2
Fore
SplineSet
259 609 m 0,0,1
 298 627 298 627 328 627 c 0,2,3
 369 627 369 627 416 601 c 0,4,5
 464 574 464 574 483.5 552.5 c 128,-1,6
 503 531 503 531 522 485 c 0,7,8
 549 420 549 420 549 376 c 0,9,10
 549 350 549 350 539 296 c 128,-1,11
 529 242 529 242 528 219 c 0,12,13
 526 182 526 182 517 165 c 0,14,15
 507 145 507 145 452 92.5 c 128,-1,16
 397 40 397 40 369 23 c 0,17,18
 325 -2 325 -2 292 -2 c 0,19,20
 269 -2 269 -2 242 2 c 0,21,22
 180 10 180 10 143 35 c 128,-1,23
 106 60 106 60 76 114 c 0,24,25
 39 182 39 182 39 267 c 0,26,27
 39 317 39 317 49 377 c 0,28,29
 64 464 64 464 163 540 c 0,30,31
 171 546 171 546 182 554 c 128,-1,32
 193 562 193 562 200 567 c 0,33,34
 205 571 205 571 217.5 581 c 128,-1,35
 230 591 230 591 239 597.5 c 128,-1,36
 248 604 248 604 259 609 c 0,0,1
201 515 m 0,37,38
 135 446 135 446 111.5 397.5 c 128,-1,39
 88 349 88 349 88 249 c 0,40,41
 88 207 88 207 109 155 c 0,42,43
 125 115 125 115 134.5 101 c 128,-1,44
 144 87 144 87 167 70 c 0,45,46
 216 34 216 34 276 34 c 0,47,48
 291 34 291 34 303 37 c 0,49,50
 326 43 326 43 363 71 c 128,-1,51
 400 99 400 99 435 136 c 0,52,53
 461 164 461 164 469 183.5 c 128,-1,54
 477 203 477 203 489 264 c 0,55,56
 507 360 507 360 507 386 c 0,57,58
 507 409 507 409 493 456 c 0,59,60
 483 491 483 491 465.5 516.5 c 128,-1,61
 448 542 448 542 432 554 c 128,-1,62
 416 566 416 566 398 573 c 128,-1,63
 380 580 380 580 372.5 581 c 128,-1,64
 365 582 365 582 359 582 c 0,65,66
 324 582 324 582 273.5 560 c 128,-1,67
 223 538 223 538 201 515 c 0,37,38
141 275 m 0,68,69
 141 354 141 354 189 417.5 c 128,-1,70
 237 481 237 481 285 481 c 0,71,72
 306 481 306 481 339 465 c 0,73,74
 360 455 360 455 368 448 c 128,-1,75
 376 441 376 441 377 429 c 0,76,77
 377 427 377 427 377.5 424.5 c 128,-1,78
 378 422 378 422 378 421 c 0,79,80
 378 408 378 408 360 408 c 0,81,82
 345 408 345 408 327 422.5 c 128,-1,83
 309 437 309 437 297 437 c 0,84,85
 291 437 291 437 279 434.5 c 128,-1,86
 267 432 267 432 245 415.5 c 128,-1,87
 223 399 223 399 212 371 c 0,88,89
 194 323 194 323 194 286 c 0,90,91
 194 212 194 212 252 187 c 0,92,93
 261 184 261 184 290 184 c 0,94,95
 331 184 331 184 372 199.5 c 128,-1,96
 413 215 413 215 422 215 c 0,97,98
 432 215 432 215 432 206 c 0,99,100
 432 193 432 193 418.5 178 c 128,-1,101
 405 163 405 163 381 158 c 0,102,103
 308 144 308 144 277 144 c 0,104,105
 238 144 238 144 190 172 c 0,106,107
 141 199 141 199 141 275 c 0,68,69
EndSplineSet
EndChar

StartChar: ordfeminine
Encoding: 170 170 108
Width: 387
GlyphClass: 1
Flags: W
LayerCount: 2
Fore
SplineSet
323 617 m 0,0,1
 323 588 323 588 324.5 559.5 c 128,-1,2
 326 531 326 531 328.5 511 c 128,-1,3
 331 491 331 491 333.5 476 c 128,-1,4
 336 461 336 461 338 452 c 2,5,-1
 339 444 l 2,6,7
 339 442 339 442 341 435.5 c 128,-1,8
 343 429 343 429 343 425 c 0,9,10
 343 415 343 415 331 404 c 0,11,12
 326 400 326 400 307 416 c 0,13,14
 302 421 302 421 296.5 450 c 128,-1,15
 291 479 291 479 288.5 502.5 c 128,-1,16
 286 526 286 526 286 529 c 0,17,18
 286 530 286 530 286.5 531.5 c 128,-1,19
 287 533 287 533 287 534 c 1,20,21
 267 495 267 495 216.5 455 c 128,-1,22
 166 415 166 415 141 415 c 2,23,-1
 139 415 l 2,24,25
 92 418 92 418 68.5 433 c 128,-1,26
 45 448 45 448 45 487 c 0,27,28
 45 525 45 525 56.5 542 c 128,-1,29
 68 559 68 559 109 588 c 0,30,31
 111 590 111 590 124.5 596.5 c 128,-1,32
 138 603 138 603 169.5 611 c 128,-1,33
 201 619 201 619 235 619 c 0,34,35
 262 619 262 619 281 615 c 1,36,-1
 281 620 l 2,37,38
 281 625 281 625 281.5 633 c 128,-1,39
 282 641 282 641 282 644 c 0,40,41
 282 660 282 660 265 675 c 0,42,43
 244 693 244 693 202 693 c 2,44,-1
 171 693 l 2,45,46
 161 693 161 693 121 682 c 0,47,48
 113 679 113 679 99 670 c 128,-1,49
 85 661 85 661 73 660 c 2,50,-1
 70 660 l 2,51,52
 60 660 60 660 50.5 664 c 128,-1,53
 41 668 41 668 41 674 c 0,54,55
 41 700 41 700 90 717 c 128,-1,56
 139 734 139 734 189 737 c 0,57,58
 193 737 193 737 200.5 737.5 c 128,-1,59
 208 738 208 738 211 738 c 0,60,61
 244 738 244 738 276 722 c 0,62,63
 279 721 279 721 285.5 717.5 c 128,-1,64
 292 714 292 714 294 713 c 128,-1,65
 296 712 296 712 300 709.5 c 128,-1,66
 304 707 304 707 305.5 704.5 c 128,-1,67
 307 702 307 702 309.5 697.5 c 128,-1,68
 312 693 312 693 314 687 c 0,69,70
 324 658 324 658 324 651 c 0,71,72
 324 650 324 650 323.5 639 c 128,-1,73
 323 628 323 628 323 617 c 0,0,1
199 493 m 0,74,75
 208 501 208 501 213 503.5 c 128,-1,76
 218 506 218 506 228 515 c 0,77,78
 232 519 232 519 234.5 521.5 c 128,-1,79
 237 524 237 524 238 526 c 128,-1,80
 239 528 239 528 244 534 c 128,-1,81
 249 540 249 540 257 549 c 0,82,83
 260 553 260 553 262 555.5 c 128,-1,84
 264 558 264 558 265.5 559.5 c 128,-1,85
 267 561 267 561 268 564 c 128,-1,86
 269 567 269 567 269.5 568.5 c 128,-1,87
 270 570 270 570 270.5 574 c 128,-1,88
 271 578 271 578 272 581 c 1,89,90
 265 580 265 580 252 580 c 2,91,-1
 230 580 l 2,92,93
 207 580 207 580 171 568 c 0,94,95
 147 560 147 560 135.5 555.5 c 128,-1,96
 124 551 124 551 110 542 c 128,-1,97
 96 533 96 533 90.5 519 c 128,-1,98
 85 505 85 505 85 485 c 0,99,100
 85 457 85 457 116 457 c 2,101,-1
 124 457 l 2,102,103
 156 457 156 457 199 493 c 0,74,75
EndSplineSet
EndChar

StartChar: guillemotleft
Encoding: 171 171 109
Width: 831
GlyphClass: 1
Flags: W
LayerCount: 2
Fore
SplineSet
796 158 m 0,0,1
 796 153 796 153 784 147 c 128,-1,2
 772 141 772 141 755 141 c 0,3,4
 733 141 733 141 707 151 c 0,5,6
 672 165 672 165 564 196 c 0,7,8
 508 212 508 212 463.5 234.5 c 128,-1,9
 419 257 419 257 395.5 277 c 128,-1,10
 372 297 372 297 360.5 313 c 128,-1,11
 349 329 349 329 349 338 c 0,12,13
 349 357 349 357 386 393.5 c 128,-1,14
 423 430 423 430 544 536 c 0,15,16
 663 641 663 641 685 641 c 0,17,18
 706 641 706 641 706 627 c 0,19,20
 706 608 706 608 672 569 c 128,-1,21
 638 530 638 530 577 480 c 0,22,23
 508 423 508 423 479.5 394 c 128,-1,24
 451 365 451 365 451 345 c 0,25,26
 451 328 451 328 481.5 303 c 128,-1,27
 512 278 512 278 534 272 c 0,28,29
 549 268 549 268 583 250.5 c 128,-1,30
 617 233 617 233 633 228 c 0,31,32
 653 222 653 222 677 215.5 c 128,-1,33
 701 209 701 209 713 205.5 c 128,-1,34
 725 202 725 202 740 196 c 128,-1,35
 755 190 755 190 768 182 c 0,36,37
 796 166 796 166 796 158 c 0,0,1
459 118 m 0,38,39
 459 105 459 105 426 105 c 0,40,41
 399 105 399 105 370 120 c 0,42,43
 351 130 351 130 340.5 135 c 128,-1,44
 330 140 330 140 322.5 143 c 128,-1,45
 315 146 315 146 288.5 156.5 c 128,-1,46
 262 167 262 167 233 179 c 0,47,48
 180 201 180 201 139 227 c 128,-1,49
 98 253 98 253 77.5 275 c 128,-1,50
 57 297 57 297 47 313.5 c 128,-1,51
 37 330 37 330 37 340 c 0,52,53
 37 359 37 359 76 390.5 c 128,-1,54
 115 422 115 422 257 520 c 0,55,56
 385 609 385 609 408 609 c 2,57,-1
 410 609 l 2,58,59
 429 608 429 608 429 595 c 0,60,61
 429 577 429 577 390 540.5 c 128,-1,62
 351 504 351 504 282 460 c 0,63,64
 204 410 204 410 172 383 c 128,-1,65
 140 356 140 356 140 335 c 0,66,67
 140 320 140 320 166.5 293.5 c 128,-1,68
 193 267 193 267 214 258 c 0,69,70
 228 253 228 253 258.5 232 c 128,-1,71
 289 211 289 211 305 204 c 0,72,73
 324 196 324 196 347.5 187 c 128,-1,74
 371 178 371 178 382.5 173.5 c 128,-1,75
 394 169 394 169 408 161.5 c 128,-1,76
 422 154 422 154 434 144 c 0,77,78
 459 124 459 124 459 118 c 0,38,39
EndSplineSet
EndChar

StartChar: logicalnot
Encoding: 172 172 110
Width: 520
GlyphClass: 1
Flags: W
LayerCount: 2
Fore
SplineSet
78 301 m 1,0,1
 41 301 41 301 41 325 c 0,2,3
 41 341 41 341 59 347 c 128,-1,4
 77 353 77 353 245 353 c 2,5,-1
 266 353 l 2,6,7
 331 353 331 353 368 352 c 128,-1,8
 405 351 405 351 430 349 c 128,-1,9
 455 347 455 347 463 343.5 c 128,-1,10
 471 340 471 340 469 334 c 0,11,12
 476 300 476 300 476 272 c 0,13,14
 476 246 476 246 467 176 c 0,15,16
 465 161 465 161 446 159 c 0,17,18
 430 158 430 158 430 168 c 0,19,20
 430 179 430 179 429.5 197 c 128,-1,21
 429 215 429 215 429 222 c 0,22,23
 429 246 429 246 431 312 c 1,24,25
 393 304 393 304 324 304 c 2,26,-1
 312 304 l 2,27,28
 301 305 301 305 283.5 305.5 c 128,-1,29
 266 306 266 306 247 306 c 128,-1,30
 228 306 228 306 210.5 306.5 c 128,-1,31
 193 307 193 307 183 307 c 0,32,33
 170 307 170 307 157 306.5 c 128,-1,34
 144 306 144 306 134 305.5 c 128,-1,35
 124 305 124 305 115 304.5 c 128,-1,36
 106 304 106 304 99.5 303.5 c 128,-1,37
 93 303 93 303 88 302.5 c 128,-1,38
 83 302 83 302 80 302 c 2,39,-1
 78 301 l 1,0,1
EndSplineSet
EndChar

StartChar: registered
Encoding: 174 174 112
Width: 587
GlyphClass: 1
Flags: W
LayerCount: 2
Fore
SplineSet
259 609 m 0,0,1
 298 627 298 627 328 627 c 0,2,3
 369 627 369 627 416 601 c 0,4,5
 464 574 464 574 483.5 552.5 c 128,-1,6
 503 531 503 531 522 485 c 0,7,8
 549 420 549 420 549 376 c 0,9,10
 549 350 549 350 539 296 c 128,-1,11
 529 242 529 242 528 219 c 0,12,13
 526 182 526 182 517 165 c 0,14,15
 507 145 507 145 452 92.5 c 128,-1,16
 397 40 397 40 369 23 c 0,17,18
 325 -2 325 -2 292 -2 c 0,19,20
 269 -2 269 -2 242 2 c 0,21,22
 180 10 180 10 143 35 c 128,-1,23
 106 60 106 60 76 114 c 0,24,25
 39 182 39 182 39 267 c 0,26,27
 39 317 39 317 49 377 c 0,28,29
 64 464 64 464 163 540 c 0,30,31
 171 546 171 546 182 554 c 128,-1,32
 193 562 193 562 200 567 c 0,33,34
 205 571 205 571 217.5 581 c 128,-1,35
 230 591 230 591 239 597.5 c 128,-1,36
 248 604 248 604 259 609 c 0,0,1
201 515 m 0,37,38
 135 446 135 446 111.5 397.5 c 128,-1,39
 88 349 88 349 88 249 c 0,40,41
 88 207 88 207 109 155 c 0,42,43
 125 115 125 115 134.5 101 c 128,-1,44
 144 87 144 87 167 70 c 0,45,46
 216 34 216 34 276 34 c 0,47,48
 291 34 291 34 303 37 c 0,49,50
 326 43 326 43 363 71 c 128,-1,51
 400 99 400 99 435 136 c 0,52,53
 461 164 461 164 469 183.5 c 128,-1,54
 477 203 477 203 489 264 c 0,55,56
 507 360 507 360 507 386 c 0,57,58
 507 409 507 409 493 456 c 0,59,60
 483 491 483 491 465.5 516.5 c 128,-1,61
 448 542 448 542 432 554 c 128,-1,62
 416 566 416 566 398 573 c 128,-1,63
 380 580 380 580 372.5 581 c 128,-1,64
 365 582 365 582 359 582 c 0,65,66
 324 582 324 582 273.5 560 c 128,-1,67
 223 538 223 538 201 515 c 0,37,38
206 445 m 2,68,69
 220 445 220 445 242 452 c 128,-1,70
 264 459 264 459 288 459 c 0,71,72
 291 459 291 459 299.5 458.5 c 128,-1,73
 308 458 308 458 313 458 c 0,74,75
 405 454 405 454 405 418 c 0,76,77
 405 394 405 394 371 350 c 128,-1,78
 337 306 337 306 307 294 c 0,79,80
 290 286 290 286 290 284 c 0,81,82
 290 277 290 277 337 224 c 0,83,84
 342 219 342 219 351.5 210 c 128,-1,85
 361 201 361 201 367.5 194 c 128,-1,86
 374 187 374 187 378 179 c 0,87,88
 391 158 391 158 399 152 c 0,89,90
 409 144 409 144 402 136 c 0,91,92
 395 127 395 127 377 136 c 0,93,94
 368 141 368 141 312 199 c 0,95,96
 304 208 304 208 293.5 218 c 128,-1,97
 283 228 283 228 276.5 234 c 128,-1,98
 270 240 270 240 266 246 c 0,99,100
 239 282 239 282 225 282 c 2,101,-1
 222 282 l 2,102,103
 217 281 217 281 213 266 c 128,-1,104
 209 251 209 251 209 231 c 0,105,106
 209 210 209 210 216 183.5 c 128,-1,107
 223 157 223 157 223 150 c 0,108,109
 221 141 221 141 211 141.5 c 128,-1,110
 201 142 201 142 192 147 c 0,111,112
 182 152 182 152 178.5 164 c 128,-1,113
 175 176 175 176 170 224 c 0,114,115
 169 236 169 236 169 261 c 2,116,-1
 169 300 l 2,117,118
 169 320 169 320 165.5 335 c 128,-1,119
 162 350 162 350 162 362 c 0,120,121
 162 376 162 376 166 403 c 0,122,123
 170 432 170 432 172.5 439 c 128,-1,124
 175 446 175 446 184 446 c 0,125,126
 191 446 191 446 196 445 c 2,127,-1
 206 445 l 2,68,69
368 413 m 0,128,129
 368 415 368 415 366.5 418.5 c 128,-1,130
 365 422 365 422 350 428 c 128,-1,131
 335 434 335 434 309 434 c 0,132,133
 279 434 279 434 261.5 429 c 128,-1,134
 244 424 244 424 239.5 417.5 c 128,-1,135
 235 411 235 411 230 406 c 128,-1,136
 225 401 225 401 218 401 c 0,137,138
 210 401 210 401 210 393 c 0,139,140
 210 391 210 391 210.5 381.5 c 128,-1,141
 211 372 211 372 211 363 c 0,142,143
 211 351 211 351 210 345 c 2,144,-1
 209 339 l 2,145,146
 209 335 209 335 210 331 c 2,147,-1
 215 314 l 1,148,-1
 248 315 l 2,149,150
 271 316 271 316 279.5 319 c 128,-1,151
 288 322 288 322 306 335 c 0,152,153
 328 352 328 352 348 377 c 128,-1,154
 368 402 368 402 368 413 c 0,128,129
EndSplineSet
EndChar

StartChar: macron
Encoding: 175 175 113
Width: 401
GlyphClass: 1
Flags: W
LayerCount: 2
Fore
SplineSet
56 697 m 0,0,1
 56 715 56 715 75.5 720 c 128,-1,2
 95 725 95 725 141 725 c 0,3,4
 153 725 153 725 215 723 c 0,5,6
 345 718 345 718 345 700 c 0,7,8
 345 696 345 696 337 688 c 0,9,10
 327 679 327 679 319 676 c 128,-1,11
 311 673 311 673 287 673 c 0,12,13
 274 673 274 673 254.5 673.5 c 128,-1,14
 235 674 235 674 216 675 c 128,-1,15
 197 676 197 676 180.5 677 c 128,-1,16
 164 678 164 678 154 678 c 2,17,-1
 143 679 l 2,18,19
 135 679 135 679 124.5 676.5 c 128,-1,20
 114 674 114 674 93 674 c 0,21,22
 56 674 56 674 56 697 c 0,0,1
EndSplineSet
EndChar

StartChar: degree
Encoding: 176 176 114
Width: 310
GlyphClass: 1
Flags: W
LayerCount: 2
Fore
SplineSet
264 738 m 0,0,1
 264 690 264 690 213.5 645 c 128,-1,2
 163 600 163 600 121 600 c 0,3,4
 92 600 92 600 69.5 624 c 128,-1,5
 47 648 47 648 47 678 c 0,6,7
 47 697 47 697 69 738.5 c 128,-1,8
 91 780 91 780 106 790 c 0,9,10
 110 792 110 792 116 796 c 128,-1,11
 122 800 122 800 130 805.5 c 128,-1,12
 138 811 138 811 142 814 c 0,13,14
 162 827 162 827 184 827 c 0,15,16
 213 827 213 827 238.5 799 c 128,-1,17
 264 771 264 771 264 738 c 0,0,1
84 681 m 0,18,19
 84 668 84 668 95 652 c 128,-1,20
 106 636 106 636 124 636 c 0,21,22
 144 636 144 636 169 654 c 0,23,24
 223 693 223 693 223 732 c 0,25,26
 223 760 223 760 215 784 c 0,27,28
 212 793 212 793 194 793 c 0,29,30
 158 793 158 793 121 748 c 128,-1,31
 84 703 84 703 84 681 c 0,18,19
EndSplineSet
EndChar

StartChar: plusminus
Encoding: 177 177 115
Width: 550
GlyphClass: 1
Flags: W
LayerCount: 2
Fore
SplineSet
258 496 m 0,0,1
 258 514 258 514 256.5 522.5 c 128,-1,2
 255 531 255 531 255 539 c 0,3,4
 255 568 255 568 268.5 588 c 128,-1,5
 282 608 282 608 302 595 c 0,6,7
 313 588 313 588 313 567 c 0,8,9
 313 551 313 551 306 495.5 c 128,-1,10
 299 440 299 440 299 393 c 2,11,-1
 299 385 l 1,12,13
 303 381 303 381 399 381 c 2,14,-1
 422 381 l 2,15,16
 427 381 427 381 436.5 381.5 c 128,-1,17
 446 382 446 382 450 382 c 0,18,19
 516 382 516 382 516 369 c 0,20,21
 516 365 516 365 506 355 c 0,22,23
 497 347 497 347 466 344 c 128,-1,24
 435 341 435 341 385 336.5 c 128,-1,25
 335 332 335 332 295 322 c 1,26,27
 291 282 291 282 291 223 c 0,28,29
 290 161 290 161 287.5 148.5 c 128,-1,30
 285 136 285 136 272 134 c 2,31,-1
 268 134 l 2,32,33
 252 134 252 134 247 156.5 c 128,-1,34
 242 179 242 179 242 244 c 2,35,-1
 241 322 l 1,36,-1
 183 317 l 1,37,-1
 70 308 l 2,38,39
 56 304 56 304 52 304 c 0,40,41
 36 304 36 304 36 316 c 0,42,43
 36 329 36 329 57 344 c 0,44,45
 77 358 77 358 152 362 c 128,-1,46
 227 366 227 366 240 376 c 0,47,48
 246 382 246 382 252 422.5 c 128,-1,49
 258 463 258 463 258 496 c 0,0,1
91 31 m 1,50,51
 54 31 54 31 54 54 c 0,52,53
 54 71 54 71 72 77 c 0,54,55
 87 82 87 82 258 82 c 2,56,-1
 279 82 l 2,57,58
 401 81 401 81 442 78 c 128,-1,59
 483 75 483 75 483 66 c 0,60,61
 483 34 483 34 337 34 c 0,62,63
 323 34 323 34 303.5 34.5 c 128,-1,64
 284 35 284 35 266 35.5 c 128,-1,65
 248 36 248 36 232 36 c 128,-1,66
 216 36 216 36 206 36 c 2,67,-1
 196 37 l 2,68,69
 186 37 186 37 171.5 36.5 c 128,-1,70
 157 36 157 36 143.5 35 c 128,-1,71
 130 34 130 34 118 33 c 128,-1,72
 106 32 106 32 98 32 c 2,73,-1
 91 31 l 1,50,51
EndSplineSet
EndChar

StartChar: uni00B2
Encoding: 178 178 116
Width: 543
GlyphClass: 1
Flags: W
LayerCount: 2
Fore
SplineSet
196 667 m 0,0,1
 196 659 196 659 197.5 652 c 128,-1,2
 199 645 199 645 199 642 c 0,3,4
 199 632 199 632 187 632 c 2,5,-1
 184 632 l 2,6,7
 172 633 172 633 154 647.5 c 128,-1,8
 136 662 136 662 136 671 c 0,9,10
 136 677 136 677 173 701 c 128,-1,11
 210 725 210 725 266.5 748.5 c 128,-1,12
 323 772 323 772 365 772 c 0,13,14
 368 772 368 772 374.5 771.5 c 128,-1,15
 381 771 381 771 395 767.5 c 128,-1,16
 409 764 409 764 420 758.5 c 128,-1,17
 431 753 431 753 440 741 c 128,-1,18
 449 729 449 729 449 713 c 0,19,20
 449 653 449 653 408 562 c 0,21,22
 397 536 397 536 333 463.5 c 128,-1,23
 269 391 269 391 248 374 c 0,24,25
 206 340 206 340 206 333 c 0,26,27
 206 330 206 330 211.5 324.5 c 128,-1,28
 217 319 217 319 237 312 c 128,-1,29
 257 305 257 305 287 305 c 0,30,31
 331 305 331 305 402.5 321.5 c 128,-1,32
 474 338 474 338 492 338 c 0,33,34
 508 338 508 338 508 330 c 0,35,36
 508 326 508 326 465.5 311 c 128,-1,37
 423 296 423 296 367 282.5 c 128,-1,38
 311 269 311 269 280 269 c 0,39,40
 246 269 246 269 208 283.5 c 128,-1,41
 170 298 170 298 162 298 c 0,42,43
 149 298 149 298 103 271.5 c 128,-1,44
 57 245 57 245 43 245 c 2,45,-1
 41 245 l 2,46,47
 36 246 36 246 36 257 c 0,48,49
 36 276 36 276 51 296 c 0,50,51
 60 307 60 307 93.5 323 c 128,-1,52
 127 339 127 339 142 339 c 2,53,-1
 143 339 l 2,54,55
 185 339 185 339 250 415 c 128,-1,56
 315 491 315 491 362 580 c 128,-1,57
 409 669 409 669 409 709 c 0,58,59
 409 737 409 737 361 737 c 0,60,61
 307 737 307 737 230 697 c 0,62,63
 208 686 208 686 202 681 c 128,-1,64
 196 676 196 676 196 667 c 0,0,1
EndSplineSet
EndChar

StartChar: uni00B3
Encoding: 179 179 117
Width: 476
GlyphClass: 1
Flags: W
LayerCount: 2
Fore
SplineSet
214 729 m 0,0,1
 171 729 171 729 136.5 718 c 128,-1,2
 102 707 102 707 81.5 696 c 128,-1,3
 61 685 61 685 54 685 c 0,4,5
 48 685 48 685 38 695 c 0,6,7
 28 706 28 706 45 720 c 0,8,9
 66 739 66 739 108.5 752.5 c 128,-1,10
 151 766 151 766 200 766 c 0,11,12
 248 766 248 766 292.5 755.5 c 128,-1,13
 337 745 337 745 349 730 c 0,14,15
 358 718 358 718 358 704 c 0,16,17
 358 685 358 685 330 648 c 128,-1,18
 302 611 302 611 302 604 c 0,19,20
 302 595 302 595 332 595 c 0,21,22
 367 594 367 594 403.5 537.5 c 128,-1,23
 440 481 440 481 440 444 c 0,24,25
 440 425 440 425 418 390.5 c 128,-1,26
 396 356 396 356 374 340 c 0,27,28
 351 322 351 322 304.5 293 c 128,-1,29
 258 264 258 264 242 257 c 128,-1,30
 226 250 226 250 184 250 c 2,31,-1
 176 250 l 2,32,33
 134 251 134 251 116 262.5 c 128,-1,34
 98 274 98 274 98 300 c 0,35,36
 98 332 98 332 116 332 c 0,37,38
 128 332 128 332 153 308.5 c 128,-1,39
 178 285 178 285 199 285 c 0,40,41
 236 285 236 285 306 341 c 128,-1,42
 376 397 376 397 388 425 c 0,43,44
 391 432 391 432 391 446 c 0,45,46
 391 474 391 474 381.5 506.5 c 128,-1,47
 372 539 372 539 357 547 c 0,48,49
 330 562 330 562 306 562 c 0,50,51
 278 562 278 562 236.5 538.5 c 128,-1,52
 195 515 195 515 185 515 c 0,53,54
 180 515 180 515 174 519.5 c 128,-1,55
 168 524 168 524 168 530 c 0,56,57
 168 541 168 541 213.5 578 c 128,-1,58
 259 615 259 615 259 619 c 128,-1,59
 259 623 259 623 284 651.5 c 128,-1,60
 309 680 309 680 309 693 c 0,61,62
 309 709 309 709 279 719 c 128,-1,63
 249 729 249 729 214 729 c 0,0,1
EndSplineSet
EndChar

StartChar: acute
Encoding: 180 180 118
Width: 282
GlyphClass: 1
Flags: W
LayerCount: 2
Fore
SplineSet
238 766 m 0,0,1
 238 741 238 741 211 714 c 2,2,-1
 185 688 l 2,3,4
 112 615 112 615 72 602 c 0,5,6
 45 596 45 596 45 603 c 0,7,8
 45 609 45 609 55 620 c 128,-1,9
 65 631 65 631 80.5 646 c 128,-1,10
 96 661 96 661 101 667 c 0,11,12
 116 684 116 684 130 698.5 c 128,-1,13
 144 713 144 713 159 730 c 0,14,15
 165 737 165 737 172 745.5 c 128,-1,16
 179 754 179 754 182.5 758 c 128,-1,17
 186 762 186 762 190 767 c 128,-1,18
 194 772 194 772 196.5 774 c 128,-1,19
 199 776 199 776 201.5 778 c 128,-1,20
 204 780 204 780 206.5 780.5 c 128,-1,21
 209 781 209 781 212 781 c 0,22,23
 227 783 227 783 234 780 c 0,24,25
 238 776 238 776 238 766 c 0,0,1
EndSplineSet
EndChar

StartChar: mu
Encoding: 181 181 119
Width: 432
GlyphClass: 1
Flags: W
LayerCount: 2
Fore
SplineSet
331 84 m 0,0,1
 331 90 331 90 331.5 104 c 128,-1,2
 332 118 332 118 333 133 c 128,-1,3
 334 148 334 148 335 162.5 c 128,-1,4
 336 177 336 177 336 186 c 2,5,-1
 337 196 l 1,6,-1
 336 196 l 2,7,8
 330 196 330 196 301 141 c 0,9,10
 261 69 261 69 220 34 c 128,-1,11
 179 -1 179 -1 148 -1 c 0,12,13
 128 -1 128 -1 101 28 c 1,14,15
 100 -7 100 -7 94 -165 c 0,16,17
 92 -193 92 -193 76 -195 c 2,18,-1
 73 -195 l 2,19,20
 62 -195 62 -195 53 -188 c 128,-1,21
 44 -181 44 -181 44 -171 c 0,22,23
 44 -170 44 -170 44.5 -161.5 c 128,-1,24
 45 -153 45 -153 46 -138.5 c 128,-1,25
 47 -124 47 -124 48 -105 c 128,-1,26
 49 -86 49 -86 49.5 -58 c 128,-1,27
 50 -30 50 -30 50 0 c 0,28,29
 50 117 50 117 48 152 c 0,30,31
 42 221 42 221 42 224 c 0,32,33
 42 264 42 264 49 298 c 1,34,-1
 49 306 l 2,35,36
 49 308 49 308 52 310 c 0,37,38
 56 322 56 322 67 322 c 0,39,40
 76 322 76 322 88 312.5 c 128,-1,41
 100 303 100 303 100 297 c 0,42,43
 100 292 100 292 97 279 c 0,44,45
 102 182 102 182 102 125 c 1,46,47
 107 105 107 105 117 90.5 c 128,-1,48
 127 76 127 76 139.5 65 c 128,-1,49
 152 54 152 54 154 51 c 0,50,51
 182 51 182 51 248 131.5 c 128,-1,52
 314 212 314 212 333 278 c 0,53,54
 345 322 345 322 372 322 c 0,55,56
 388 322 388 322 388 271 c 0,57,58
 388 244 388 244 382.5 171 c 128,-1,59
 377 98 377 98 377 83 c 0,60,61
 377 72 377 72 380 53 c 128,-1,62
 383 34 383 34 383 23 c 0,63,64
 383 -2 383 -2 368 -2 c 0,65,66
 331 -2 331 -2 331 84 c 0,0,1
EndSplineSet
EndChar

StartChar: paragraph
Encoding: 182 182 120
Width: 448
GlyphClass: 1
Flags: W
LayerCount: 2
Fore
SplineSet
267 31 m 0,0,1
 267 36 267 36 254.5 245.5 c 128,-1,2
 242 455 242 455 242 538 c 2,3,-1
 242 548 l 2,4,5
 245 556 245 556 272.5 565.5 c 128,-1,6
 300 575 300 575 320 575 c 0,7,8
 329 575 329 575 332 573 c 0,9,10
 336 571 336 571 340 443.5 c 128,-1,11
 344 316 344 316 344 203 c 2,12,-1
 344 164 l 2,13,14
 343 109 343 109 343 55 c 0,15,16
 343 33 343 33 343.5 28 c 128,-1,17
 344 23 344 23 347.5 22 c 128,-1,18
 351 21 351 21 354 17 c 0,19,20
 366 1 366 1 371 1 c 0,21,22
 377 1 377 1 390.5 11 c 128,-1,23
 404 21 404 21 401 32 c 0,24,25
 396 42 396 42 396 277 c 0,26,27
 396 285 396 285 398 419 c 2,28,-1
 399 482 l 2,29,30
 399 495 399 495 399.5 509.5 c 128,-1,31
 400 524 400 524 400.5 536.5 c 128,-1,32
 401 549 401 549 401.5 561 c 128,-1,33
 402 573 402 573 403 582.5 c 128,-1,34
 404 592 404 592 404.5 599 c 128,-1,35
 405 606 405 606 406 610 c 2,36,-1
 406 614 l 2,37,38
 406 652 406 652 387 652 c 0,39,40
 383 652 383 652 366.5 642.5 c 128,-1,41
 350 633 350 633 335 633 c 0,42,43
 330 633 330 633 327 634 c 2,44,-1
 322 634 l 2,45,46
 303 634 303 634 256.5 620 c 128,-1,47
 210 606 210 606 171 588 c 0,48,49
 133 571 133 571 84 509 c 128,-1,50
 35 447 35 447 35 416 c 0,51,52
 35 392 35 392 61.5 378.5 c 128,-1,53
 88 365 88 365 119.5 362 c 128,-1,54
 151 359 151 359 177.5 352.5 c 128,-1,55
 204 346 204 346 204 334 c 0,56,57
 204 329 204 329 203 329 c 0,58,59
 202 328 202 328 202 314 c 0,60,61
 202 280 202 280 209 212 c 128,-1,62
 216 144 216 144 216 102 c 0,63,64
 217 39 217 39 219 23 c 128,-1,65
 221 7 221 7 231 6 c 0,66,67
 237 5 237 5 246 2 c 128,-1,68
 255 -1 255 -1 258 -1 c 0,69,70
 267 -1 267 -1 267 31 c 0,0,1
EndSplineSet
EndChar

StartChar: periodcentered
Encoding: 183 183 121
Width: 150
GlyphClass: 1
Flags: W
LayerCount: 2
Fore
SplineSet
45 306 m 0,0,1
 46 344 46 344 52 353 c 0,2,3
 54 356 54 356 61 356 c 0,4,5
 74 356 74 356 91 349 c 128,-1,6
 108 342 108 342 108 336 c 0,7,8
 108 329 108 329 99.5 315.5 c 128,-1,9
 91 302 91 302 81 294 c 128,-1,10
 71 286 71 286 68 285.5 c 128,-1,11
 65 285 65 285 56 290 c 0,12,13
 45 297 45 297 45 306 c 0,0,1
EndSplineSet
EndChar

StartChar: cedilla
Encoding: 184 184 122
Width: 248
GlyphClass: 1
Flags: W
LayerCount: 2
Fore
SplineSet
90 7 m 128,-1,1
 117 7 117 7 117 -14 c 0,2,3
 117 -19 117 -19 115 -29.5 c 128,-1,4
 113 -40 113 -40 113 -43 c 0,5,6
 113 -51 113 -51 122 -51 c 0,7,8
 150 -51 150 -51 177 -80 c 128,-1,9
 204 -109 204 -109 204 -149 c 0,10,11
 204 -180 204 -180 185.5 -198 c 128,-1,12
 167 -216 167 -216 148 -216 c 0,13,14
 132 -216 132 -216 87.5 -200 c 128,-1,15
 43 -184 43 -184 43 -169 c 0,16,17
 43 -156 43 -156 62 -156 c 0,18,19
 76 -156 76 -156 107 -166.5 c 128,-1,20
 138 -177 138 -177 139 -177 c 0,21,22
 157 -177 157 -177 157 -150 c 0,23,24
 157 -108 157 -108 132 -96 c 0,25,26
 118 -90 118 -90 116 -90 c 0,27,28
 115 -90 115 -90 105 -96.5 c 128,-1,29
 95 -103 95 -103 84 -103 c 2,30,-1
 83 -103 l 2,31,32
 64 -103 64 -103 64 -87 c 0,33,34
 64 -79 64 -79 63.5 -66.5 c 128,-1,35
 63 -54 63 -54 63 -48 c 0,36,0
 63 7 63 7 90 7 c 128,-1,1
EndSplineSet
EndChar

StartChar: uni00B9
Encoding: 185 185 123
Width: 299
GlyphClass: 1
Flags: W
LayerCount: 2
Fore
SplineSet
204 629 m 128,-1,1
 202 629 202 629 175 600.5 c 128,-1,2
 148 572 148 572 114 542.5 c 128,-1,3
 80 513 80 513 61 511 c 2,4,-1
 59 511 l 2,5,6
 50 511 50 511 42 517.5 c 128,-1,7
 34 524 34 524 34 531 c 0,8,9
 34 534 34 534 35 535 c 0,10,11
 42 542 42 542 77 558 c 0,12,13
 86 562 86 562 89.5 563.5 c 128,-1,14
 93 565 93 565 96.5 567.5 c 128,-1,15
 100 570 100 570 101 571.5 c 128,-1,16
 102 573 102 573 106.5 578 c 128,-1,17
 111 583 111 583 117 589 c 0,18,19
 153 624 153 624 186.5 670.5 c 128,-1,20
 220 717 220 717 224 733 c 0,21,22
 228 747 228 747 249 747 c 0,23,24
 265 747 265 747 265 736 c 0,25,26
 265 722 265 722 232.5 554.5 c 128,-1,27
 200 387 200 387 200 366 c 0,28,29
 200 356 200 356 205 341 c 0,30,31
 210 327 210 327 209.5 323 c 128,-1,32
 209 319 209 319 199 318 c 0,33,34
 186 317 186 317 173 323 c 0,35,36
 159 331 159 331 159 374 c 0,37,38
 159 402 159 402 166 426 c 0,39,40
 166 428 166 428 171.5 456 c 128,-1,41
 177 484 177 484 185.5 524 c 128,-1,42
 194 564 194 564 200 586 c 0,43,44
 206 607 206 607 206 622 c 0,45,0
 206 629 206 629 204 629 c 128,-1,1
EndSplineSet
EndChar

StartChar: ordmasculine
Encoding: 186 186 124
Width: 396
GlyphClass: 1
Flags: W
LayerCount: 2
Fore
SplineSet
168 408 m 0,0,1
 123 408 123 408 82.5 452.5 c 128,-1,2
 42 497 42 497 42 548 c 0,3,4
 42 596 42 596 75 644.5 c 128,-1,5
 108 693 108 693 168 732 c 0,6,7
 194 748 194 748 230 748 c 2,8,-1
 235 748 l 2,9,10
 258 748 258 748 268.5 741.5 c 128,-1,11
 279 735 279 735 307 706 c 2,12,-1
 348 664 l 1,13,-1
 351 603 l 2,14,15
 352 589 352 589 352 569 c 0,16,17
 352 548 352 548 346.5 536.5 c 128,-1,18
 341 525 341 525 319 494 c 0,19,20
 258 408 258 408 168 408 c 0,0,1
92 546 m 0,21,22
 92 512 92 512 114.5 482.5 c 128,-1,23
 137 453 137 453 165 453 c 0,24,25
 216 453 216 453 241.5 473 c 128,-1,26
 267 493 267 493 301 547 c 0,27,28
 308 558 308 558 308 581 c 0,29,30
 308 612 308 612 302 632.5 c 128,-1,31
 296 653 296 653 289.5 660.5 c 128,-1,32
 283 668 283 668 269 680 c 0,33,34
 236 707 236 707 223 709 c 2,35,-1
 221 709 l 2,36,37
 192 709 192 709 142 657.5 c 128,-1,38
 92 606 92 606 92 546 c 0,21,22
EndSplineSet
EndChar

StartChar: guillemotright
Encoding: 187 187 125
Width: 753
GlyphClass: 1
Flags: W
LayerCount: 2
Fore
SplineSet
312 578 m 0,0,1
 312 592 312 592 330 592 c 0,2,3
 360 592 360 592 416 554.5 c 128,-1,4
 472 517 472 517 635 393 c 0,5,6
 717 331 717 331 717 325 c 0,7,8
 717 320 717 320 694 304.5 c 128,-1,9
 671 289 671 289 664 289 c 0,10,11
 647 289 647 289 575 241.5 c 128,-1,12
 503 194 503 194 461 156 c 0,13,14
 395 96 395 96 376 96 c 0,15,16
 366 96 366 96 366 110 c 0,17,18
 366 135 366 135 442 204 c 128,-1,19
 518 273 518 273 607 330 c 0,20,21
 616 336 616 336 616 340 c 0,22,23
 616 348 616 348 577 380 c 0,24,25
 447 489 447 489 375 525 c 0,26,27
 312 557 312 557 312 578 c 0,0,1
34 575 m 0,28,29
 34 589 34 589 52 589 c 0,30,31
 82 589 82 589 141.5 549 c 128,-1,32
 201 509 201 509 357 390 c 0,33,34
 439 328 439 328 439 322 c 0,35,36
 439 317 439 317 416 301.5 c 128,-1,37
 393 286 393 286 386 286 c 0,38,39
 369 286 369 286 297 238.5 c 128,-1,40
 225 191 225 191 183 153 c 0,41,42
 117 93 117 93 98 93 c 0,43,44
 89 93 89 93 89 106 c 0,45,46
 89 131 89 131 164.5 200.5 c 128,-1,47
 240 270 240 270 329 327 c 0,48,49
 338 333 338 333 338 337 c 0,50,51
 338 345 338 345 299 377 c 0,52,53
 172 483 172 483 97 521 c 0,54,55
 34 553 34 553 34 575 c 0,28,29
EndSplineSet
EndChar

